<svg xmlns="http://www.w3.org/2000/svg" xmlns:xlink="http://www.w3.org/1999/xlink" width="1920" zoomAndPan="magnify" viewBox="0 0 1440 809.999993" height="1080" preserveAspectRatio="xMidYMid meet" version="1.0"><defs><filter x="0%" y="0%" width="100%" height="100%" id="a323843688"><feColorMatrix values="0 0 0 0 1 0 0 0 0 1 0 0 0 0 1 0 0 0 1 0" color-interpolation-filters="sRGB"/></filter><g/><mask id="d599bb6c2c"><g filter="url(#a323843688)"><rect x="-144" width="1728" fill="#000000" y="-80.999999" height="971.999992" fill-opacity="0.149"/></g></mask><clipPath id="fac8c76101"><path d="M 253 248 L 954 248 L 954 810 L 253 810 Z M 253 248 " clip-rule="nonzero"/></clipPath><clipPath id="118a4dbcc7"><path d="M -1.675781 733.734375 L 554.152344 -124.199219 L 1255.984375 330.5 L 700.152344 1188.429688 Z M -1.675781 733.734375 " clip-rule="nonzero"/></clipPath><clipPath id="ef2f8189e9"><path d="M -1.675781 733.734375 L 554.152344 -124.199219 L 1255.984375 330.5 L 700.152344 1188.429688 Z M -1.675781 733.734375 " clip-rule="nonzero"/></clipPath><clipPath id="2ad79cdcd4"><rect x="0" width="954" y="0" height="810"/></clipPath><mask id="d55acf59c8"><g filter="url(#a323843688)"><rect x="-144" width="1728" fill="#000000" y="-80.999999" height="971.999992" fill-opacity="0.149"/></g></mask><clipPath id="f83824615b"><path d="M 0 0 L 711 0 L 711 575 L 0 575 Z M 0 0 " clip-rule="nonzero"/></clipPath><clipPath id="7cf3507951"><path d="M 984.886719 51.003906 L 386.679688 976.207031 L -370.363281 486.726562 L 227.84375 -438.476562 Z M 984.886719 51.003906 " clip-rule="nonzero"/></clipPath><clipPath id="fbd84f190d"><path d="M 984.886719 51.003906 L 386.679688 976.207031 L -370.363281 486.726562 L 227.84375 -438.476562 Z M 984.886719 51.003906 " clip-rule="nonzero"/></clipPath><clipPath id="93ad685b73"><rect x="0" width="983" y="0" height="810"/></clipPath></defs><rect x="-144" width="1728" fill="#ffffff" y="-80.999999" height="971.999992" fill-opacity="1"/><rect x="-144" width="1728" fill="#ffffff" y="-80.999999" height="971.999992" fill-opacity="1"/><rect x="-144" width="1728" fill="#ffffff" y="-80.999999" height="971.999992" fill-opacity="1"/><g mask="url(#d599bb6c2c)"><g transform="matrix(1, 0, 0, 1, 486, 0.000000000000039746)"><g clip-path="url(#2ad79cdcd4)"><g clip-path="url(#fac8c76101)"><g clip-path="url(#118a4dbcc7)"><g clip-path="url(#ef2f8189e9)"><path fill="#3e4044" d="M 777.90625 1068.203125 C 751.003906 1109.730469 700.578125 1135.296875 652.425781 1131.824219 C 608.484375 1128.667969 572.042969 1102.375 552.433594 1059.691406 L 265.519531 435.539062 C 246.292969 393.695312 249.363281 346.25 273.746094 308.617188 C 298.144531 270.953125 340.238281 248.484375 386.34375 248.492188 L 1077.441406 248.796875 C 1124.414062 248.808594 1163.347656 270.960938 1184.296875 309.527344 C 1207.394531 352.046875 1204.664062 408.730469 1177.546875 450.585938 C 1177.546875 450.585938 1177.546875 450.585938 1177.53125 450.605469 C 1153.769531 487.285156 1114.128906 508.328125 1068.820312 508.300781 L 584.589844 508.113281 L 785.46875 945.113281 C 804.515625 986.546875 801.746094 1031.402344 777.90625 1068.203125 Z M 335 348.300781 C 324.128906 365.082031 322.976562 385.769531 331.835938 405.042969 L 618.742188 1029.1875 C 627.261719 1047.742188 640.375 1057.777344 657.6875 1059.027344 C 679.390625 1060.585938 704.1875 1047.761719 716.652344 1028.519531 C 727.058594 1012.453125 727.894531 994.652344 719.160156 975.613281 L 470.675781 435.089844 L 1068.851562 435.328125 C 1089.820312 435.324219 1105.78125 427.109375 1116.285156 410.902344 C 1128.890625 391.441406 1130.535156 363.464844 1120.160156 344.375 C 1112.03125 329.398438 1097.636719 321.796875 1077.390625 321.789062 L 386.304688 321.488281 C 364.746094 321.480469 346.046875 331.25 335 348.300781 Z M 335 348.300781 " fill-opacity="1" fill-rule="nonzero"/></g></g></g></g></g></g><g mask="url(#d55acf59c8)"><g transform="matrix(1, 0, 0, 1, 0, 0.000000000000039746)"><g clip-path="url(#93ad685b73)"><g clip-path="url(#f83824615b)"><g clip-path="url(#7cf3507951)"><g clip-path="url(#fbd84f190d)"><path fill="#18577b" d="M 144.164062 -308.820312 C 173.117188 -353.601562 227.441406 -381.203125 279.355469 -377.503906 C 326.722656 -374.140625 366.035156 -345.832031 387.21875 -299.839844 L 697.191406 372.644531 C 717.964844 417.726562 714.707031 468.871094 688.464844 509.453125 C 662.207031 550.070312 616.855469 574.324219 567.160156 574.359375 L -177.8125 574.628906 C -228.445312 574.660156 -270.4375 550.820312 -293.0625 509.265625 C -318.007812 463.460938 -315.128906 402.363281 -285.941406 357.222656 C -285.941406 357.222656 -285.941406 357.222656 -285.929688 357.199219 C -260.351562 317.644531 -217.648438 294.933594 -168.804688 294.921875 L 353.171875 294.699219 L 136.144531 -176.144531 C 115.570312 -220.785156 118.503906 -269.136719 144.164062 -308.820312 Z M 622.394531 466.734375 C 634.09375 448.640625 635.3125 426.339844 625.738281 405.570312 L 315.777344 -266.90625 C 306.574219 -286.898438 292.425781 -297.703125 273.761719 -299.035156 C 250.367188 -300.699219 223.652344 -286.851562 210.234375 -266.101562 C 199.035156 -248.773438 198.152344 -229.585938 207.589844 -209.074219 L 476.042969 373.308594 L -168.761719 373.574219 C -191.363281 373.59375 -208.558594 382.460938 -219.863281 399.941406 C -233.429688 420.929688 -235.171875 451.082031 -223.964844 471.652344 C -215.183594 487.785156 -199.660156 495.96875 -177.835938 495.957031 L 567.121094 495.679688 C 590.359375 495.667969 610.503906 485.121094 622.394531 466.734375 Z M 622.394531 466.734375 " fill-opacity="1" fill-rule="nonzero"/></g></g></g></g></g></g><g fill="#18577b" fill-opacity="1"><g transform="translate(639.674326, 771.049019)"><g><path d="M 11.015625 -20.546875 C 12.160156 -20.546875 13.289062 -20.414062 14.40625 -20.15625 C 15.519531 -19.894531 16.347656 -19.640625 16.890625 -19.390625 L 17.703125 -19 L 15.453125 -14.484375 C 13.890625 -15.304688 12.410156 -15.71875 11.015625 -15.71875 C 10.234375 -15.71875 9.679688 -15.632812 9.359375 -15.46875 C 9.035156 -15.300781 8.875 -14.984375 8.875 -14.515625 C 8.875 -14.410156 8.882812 -14.304688 8.90625 -14.203125 C 8.9375 -14.097656 8.988281 -14 9.0625 -13.90625 C 9.144531 -13.820312 9.21875 -13.742188 9.28125 -13.671875 C 9.34375 -13.609375 9.453125 -13.535156 9.609375 -13.453125 C 9.765625 -13.378906 9.890625 -13.320312 9.984375 -13.28125 C 10.078125 -13.25 10.226562 -13.191406 10.4375 -13.109375 C 10.644531 -13.035156 10.796875 -12.976562 10.890625 -12.9375 C 10.992188 -12.90625 11.171875 -12.847656 11.421875 -12.765625 C 11.671875 -12.691406 11.859375 -12.640625 11.984375 -12.609375 C 12.785156 -12.378906 13.484375 -12.117188 14.078125 -11.828125 C 14.679688 -11.546875 15.3125 -11.15625 15.96875 -10.65625 C 16.632812 -10.164062 17.148438 -9.546875 17.515625 -8.796875 C 17.878906 -8.046875 18.0625 -7.191406 18.0625 -6.234375 C 18.0625 -1.691406 14.910156 0.578125 8.609375 0.578125 C 7.179688 0.578125 5.820312 0.359375 4.53125 -0.078125 C 3.25 -0.515625 2.320312 -0.957031 1.75 -1.40625 L 0.890625 -2.109375 L 3.703125 -6.8125 C 3.910156 -6.625 4.179688 -6.40625 4.515625 -6.15625 C 4.847656 -5.914062 5.457031 -5.582031 6.34375 -5.15625 C 7.226562 -4.726562 7.992188 -4.515625 8.640625 -4.515625 C 10.066406 -4.515625 10.78125 -4.992188 10.78125 -5.953125 C 10.78125 -6.390625 10.597656 -6.734375 10.234375 -6.984375 C 9.867188 -7.234375 9.25 -7.515625 8.375 -7.828125 C 7.507812 -8.140625 6.832031 -8.421875 6.34375 -8.671875 C 5.09375 -9.328125 4.101562 -10.0625 3.375 -10.875 C 2.65625 -11.695312 2.296875 -12.78125 2.296875 -14.125 C 2.296875 -16.15625 3.078125 -17.734375 4.640625 -18.859375 C 6.210938 -19.984375 8.335938 -20.546875 11.015625 -20.546875 Z M 11.015625 -20.546875 "/></g></g></g><g fill="#18577b" fill-opacity="1"><g transform="translate(655.047159, 771.049019)"><g><path d="M 14.59375 0 L 9.921875 0 L -0.78125 -19.96875 L 7.15625 -19.96875 L 12.03125 -9.1875 L 16.8125 -19.96875 L 21.5625 -19.96875 L 26.34375 -9.1875 L 31.21875 -19.96875 L 39.15625 -19.96875 L 28.453125 0 L 23.78125 0 L 19.1875 -10.3125 Z M 14.59375 0 "/></g></g></g><g fill="#18577b" fill-opacity="1"><g transform="translate(689.64585, 771.049019)"><g><path d="M 3.6875 -2.46875 C 1.820312 -4.507812 0.890625 -7.007812 0.890625 -9.96875 C 0.890625 -12.925781 1.820312 -15.425781 3.6875 -17.46875 C 5.5625 -19.519531 7.9375 -20.546875 10.8125 -20.546875 C 13.46875 -20.546875 15.648438 -19.71875 17.359375 -18.0625 L 17.359375 -19.96875 L 24.25 -19.96875 L 24.25 0 L 17.4375 0 L 17.4375 -2.25 L 17.359375 -2.25 C 15.648438 -0.363281 13.46875 0.578125 10.8125 0.578125 C 7.9375 0.578125 5.5625 -0.4375 3.6875 -2.46875 Z M 9.546875 -13.34375 C 8.660156 -12.46875 8.21875 -11.34375 8.21875 -9.96875 C 8.21875 -8.59375 8.644531 -7.46875 9.5 -6.59375 C 10.351562 -5.726562 11.484375 -5.296875 12.890625 -5.296875 C 14.234375 -5.296875 15.335938 -5.734375 16.203125 -6.609375 C 17.078125 -7.492188 17.515625 -8.613281 17.515625 -9.96875 C 17.515625 -11.34375 17.066406 -12.46875 16.171875 -13.34375 C 15.273438 -14.226562 14.179688 -14.671875 12.890625 -14.671875 C 11.554688 -14.671875 10.441406 -14.226562 9.546875 -13.34375 Z M 9.546875 -13.34375 "/></g></g></g><g fill="#18577b" fill-opacity="1"><g transform="translate(712.452162, 771.049019)"><g><path d="M 22.875 -17.484375 C 24.75 -15.453125 25.6875 -12.957031 25.6875 -10 C 25.6875 -7.039062 24.75 -4.535156 22.875 -2.484375 C 21.007812 -0.441406 18.640625 0.578125 15.765625 0.578125 C 13.117188 0.578125 10.9375 -0.25 9.21875 -1.90625 L 9.21875 10.125 L 2.328125 10.125 L 2.328125 -19.96875 L 9.140625 -19.96875 L 9.140625 -17.703125 L 9.21875 -17.703125 C 10.9375 -19.597656 13.117188 -20.546875 15.765625 -20.546875 C 18.640625 -20.546875 21.007812 -19.523438 22.875 -17.484375 Z M 17.03125 -6.609375 C 17.925781 -7.492188 18.375 -8.625 18.375 -10 C 18.375 -11.375 17.941406 -12.492188 17.078125 -13.359375 C 16.222656 -14.234375 15.097656 -14.671875 13.703125 -14.671875 C 12.347656 -14.671875 11.234375 -14.226562 10.359375 -13.34375 C 9.492188 -12.46875 9.0625 -11.351562 9.0625 -10 C 9.0625 -8.625 9.507812 -7.492188 10.40625 -6.609375 C 11.300781 -5.734375 12.398438 -5.296875 13.703125 -5.296875 C 15.023438 -5.296875 16.132812 -5.734375 17.03125 -6.609375 Z M 17.03125 -6.609375 "/></g></g></g><g fill="#000000" fill-opacity="1"><g transform="translate(740.546237, 770.283839)"><g><path d="M 10.15625 -6.9375 C 10.9375 -3.269531 12.066406 -1.4375 13.546875 -1.4375 C 14.117188 -1.4375 14.664062 -1.644531 15.1875 -2.0625 C 15.71875 -2.488281 16.207031 -3.003906 16.65625 -3.609375 C 17.113281 -4.222656 17.515625 -4.867188 17.859375 -5.546875 C 18.210938 -6.234375 18.503906 -6.832031 18.734375 -7.34375 C 18.890625 -7.726562 19.164062 -7.921875 19.5625 -7.921875 C 19.8125 -7.921875 20.023438 -7.820312 20.203125 -7.625 C 20.378906 -7.4375 20.46875 -7.234375 20.46875 -7.015625 C 20.46875 -6.890625 20.441406 -6.78125 20.390625 -6.6875 C 20.285156 -6.414062 20.125 -6.050781 19.90625 -5.59375 C 19.695312 -5.144531 19.4375 -4.660156 19.125 -4.140625 C 18.8125 -3.617188 18.460938 -3.085938 18.078125 -2.546875 C 17.703125 -2.003906 17.28125 -1.519531 16.8125 -1.09375 C 16.351562 -0.664062 15.863281 -0.3125 15.34375 -0.03125 C 14.832031 0.238281 14.289062 0.375 13.71875 0.375 C 12.65625 0.375 11.738281 0.00390625 10.96875 -0.734375 C 10.207031 -1.472656 9.550781 -2.691406 9 -4.390625 C 8.226562 -2.765625 7.453125 -1.585938 6.671875 -0.859375 C 5.898438 -0.128906 5.0625 0.234375 4.15625 0.234375 C 3.675781 0.234375 3.210938 0.15625 2.765625 0 C 2.316406 -0.144531 1.925781 -0.390625 1.59375 -0.734375 C 1.257812 -1.085938 0.988281 -1.535156 0.78125 -2.078125 C 0.582031 -2.628906 0.484375 -3.304688 0.484375 -4.109375 C 0.484375 -5.203125 0.671875 -6.207031 1.046875 -7.125 C 1.429688 -8.050781 1.925781 -8.84375 2.53125 -9.5 C 3.132812 -10.164062 3.804688 -10.679688 4.546875 -11.046875 C 5.285156 -11.410156 6.019531 -11.59375 6.75 -11.59375 C 6.988281 -11.59375 7.195312 -11.507812 7.375 -11.34375 C 7.550781 -11.175781 7.640625 -10.96875 7.640625 -10.71875 C 7.640625 -10.488281 7.566406 -10.285156 7.421875 -10.109375 C 7.273438 -9.941406 7.082031 -9.84375 6.84375 -9.8125 C 6.363281 -9.738281 5.851562 -9.582031 5.3125 -9.34375 C 4.78125 -9.113281 4.285156 -8.769531 3.828125 -8.3125 C 3.378906 -7.863281 3.003906 -7.285156 2.703125 -6.578125 C 2.410156 -5.878906 2.265625 -5.046875 2.265625 -4.078125 C 2.265625 -3.285156 2.425781 -2.664062 2.75 -2.21875 C 3.082031 -1.769531 3.554688 -1.546875 4.171875 -1.546875 C 4.429688 -1.546875 4.703125 -1.613281 4.984375 -1.75 C 5.273438 -1.882812 5.582031 -2.148438 5.90625 -2.546875 C 6.226562 -2.953125 6.582031 -3.519531 6.96875 -4.25 C 7.363281 -4.976562 7.800781 -5.941406 8.28125 -7.140625 C 8.007812 -8.535156 7.757812 -10.144531 7.53125 -11.96875 C 7.3125 -13.800781 7.203125 -15.847656 7.203125 -18.109375 C 7.203125 -19.097656 7.234375 -20.128906 7.296875 -21.203125 C 7.359375 -22.273438 7.460938 -23.320312 7.609375 -24.34375 C 7.753906 -25.375 7.945312 -26.347656 8.1875 -27.265625 C 8.425781 -28.191406 8.710938 -29.003906 9.046875 -29.703125 C 9.390625 -30.398438 9.789062 -30.953125 10.25 -31.359375 C 10.71875 -31.765625 11.242188 -31.96875 11.828125 -31.96875 C 12.359375 -31.96875 12.804688 -31.820312 13.171875 -31.53125 C 13.535156 -31.25 13.832031 -30.851562 14.0625 -30.34375 C 14.289062 -29.832031 14.460938 -29.21875 14.578125 -28.5 C 14.691406 -27.789062 14.75 -27.003906 14.75 -26.140625 C 14.75 -24.296875 14.585938 -22.453125 14.265625 -20.609375 C 13.953125 -18.765625 13.554688 -17 13.078125 -15.3125 C 12.609375 -13.625 12.113281 -12.066406 11.59375 -10.640625 C 11.070312 -9.210938 10.59375 -7.976562 10.15625 -6.9375 Z M 12.953125 -26.171875 C 12.953125 -26.566406 12.941406 -26.992188 12.921875 -27.453125 C 12.898438 -27.921875 12.84375 -28.359375 12.75 -28.765625 C 12.664062 -29.171875 12.550781 -29.503906 12.40625 -29.765625 C 12.257812 -30.035156 12.066406 -30.171875 11.828125 -30.171875 C 11.429688 -30.171875 11.0625 -29.820312 10.71875 -29.125 C 10.375 -28.425781 10.078125 -27.507812 9.828125 -26.375 C 9.578125 -25.238281 9.375 -23.945312 9.21875 -22.5 C 9.070312 -21.0625 9 -19.613281 9 -18.15625 C 9 -16.757812 9.050781 -15.359375 9.15625 -13.953125 C 9.269531 -12.554688 9.398438 -11.304688 9.546875 -10.203125 C 10.003906 -11.429688 10.4375 -12.691406 10.84375 -13.984375 C 11.257812 -15.285156 11.625 -16.613281 11.9375 -17.96875 C 12.25 -19.320312 12.492188 -20.6875 12.671875 -22.0625 C 12.859375 -23.4375 12.953125 -24.804688 12.953125 -26.171875 Z M 12.953125 -26.171875 "/></g></g></g><g fill="#000000" fill-opacity="1"><g transform="translate(758.389404, 770.283839)"><g><path d="M 3.765625 -2.625 C 4.097656 -2.164062 4.523438 -1.796875 5.046875 -1.515625 C 5.578125 -1.234375 6.222656 -1.09375 6.984375 -1.09375 C 7.765625 -1.09375 8.472656 -1.28125 9.109375 -1.65625 C 9.742188 -2.03125 10.320312 -2.519531 10.84375 -3.125 C 11.375 -3.726562 11.847656 -4.40625 12.265625 -5.15625 C 12.679688 -5.90625 13.054688 -6.648438 13.390625 -7.390625 C 13.460938 -7.566406 13.570312 -7.695312 13.71875 -7.78125 C 13.863281 -7.875 14.019531 -7.921875 14.1875 -7.921875 C 14.457031 -7.921875 14.675781 -7.820312 14.84375 -7.625 C 15.007812 -7.4375 15.09375 -7.234375 15.09375 -7.015625 C 15.09375 -6.929688 15.082031 -6.863281 15.0625 -6.8125 C 15.050781 -6.757812 15.03125 -6.695312 15 -6.625 C 13.90625 -4.207031 12.707031 -2.382812 11.40625 -1.15625 C 10.113281 0.0625 8.648438 0.6875 7.015625 0.71875 C 5.960938 0.71875 5.054688 0.515625 4.296875 0.109375 C 3.535156 -0.296875 2.90625 -0.820312 2.40625 -1.46875 C 1.914062 -2.113281 1.550781 -2.835938 1.3125 -3.640625 C 1.070312 -4.453125 0.953125 -5.265625 0.953125 -6.078125 C 0.953125 -6.890625 1.050781 -7.640625 1.25 -8.328125 C 1.445312 -9.015625 1.734375 -9.609375 2.109375 -10.109375 C 2.484375 -10.617188 2.925781 -11.015625 3.4375 -11.296875 C 3.957031 -11.585938 4.53125 -11.734375 5.15625 -11.734375 C 5.519531 -11.734375 5.878906 -11.65625 6.234375 -11.5 C 6.597656 -11.351562 6.921875 -11.140625 7.203125 -10.859375 C 7.492188 -10.585938 7.722656 -10.25 7.890625 -9.84375 C 8.066406 -9.445312 8.15625 -9 8.15625 -8.5 C 8.15625 -7.84375 8.039062 -7.226562 7.8125 -6.65625 C 7.59375 -6.082031 7.289062 -5.546875 6.90625 -5.046875 C 6.519531 -4.554688 6.054688 -4.101562 5.515625 -3.6875 C 4.972656 -3.28125 4.390625 -2.925781 3.765625 -2.625 Z M 3.046875 -4.171875 C 3.546875 -4.378906 4 -4.640625 4.40625 -4.953125 C 4.8125 -5.273438 5.15625 -5.625 5.4375 -6 C 5.726562 -6.382812 5.953125 -6.785156 6.109375 -7.203125 C 6.265625 -7.628906 6.34375 -8.0625 6.34375 -8.5 C 6.34375 -8.96875 6.222656 -9.328125 5.984375 -9.578125 C 5.742188 -9.828125 5.46875 -9.953125 5.15625 -9.953125 C 4.726562 -9.953125 4.363281 -9.832031 4.0625 -9.59375 C 3.757812 -9.351562 3.507812 -9.039062 3.3125 -8.65625 C 3.125 -8.28125 2.984375 -7.859375 2.890625 -7.390625 C 2.804688 -6.921875 2.765625 -6.453125 2.765625 -5.984375 C 2.765625 -5.703125 2.789062 -5.398438 2.84375 -5.078125 C 2.90625 -4.765625 2.972656 -4.460938 3.046875 -4.171875 Z M 3.046875 -4.171875 "/></g></g></g><g fill="#000000" fill-opacity="1"><g transform="translate(770.86531, 770.283839)"><g><path d="M 3.5625 -8.828125 C 3.457031 -8.578125 3.335938 -8.289062 3.203125 -7.96875 C 3.066406 -7.644531 2.914062 -7.3125 2.75 -6.96875 C 2.601562 -6.695312 2.453125 -6.484375 2.296875 -6.328125 C 2.148438 -6.179688 1.957031 -6.109375 1.71875 -6.109375 C 1.445312 -6.109375 1.226562 -6.191406 1.0625 -6.359375 C 0.90625 -6.523438 0.828125 -6.71875 0.828125 -6.9375 C 0.828125 -7.019531 0.832031 -7.085938 0.84375 -7.140625 C 0.863281 -7.203125 0.910156 -7.296875 0.984375 -7.421875 C 1.390625 -8.210938 1.691406 -8.90625 1.890625 -9.5 C 2.085938 -10.101562 2.253906 -10.726562 2.390625 -11.375 C 2.273438 -11.738281 2.191406 -12.046875 2.140625 -12.296875 C 2.097656 -12.554688 2.078125 -12.820312 2.078125 -13.09375 C 2.078125 -13.625 2.1875 -14.050781 2.40625 -14.375 C 2.632812 -14.695312 2.945312 -14.859375 3.34375 -14.859375 C 3.707031 -14.859375 3.992188 -14.695312 4.203125 -14.375 C 4.421875 -14.0625 4.53125 -13.675781 4.53125 -13.21875 C 4.53125 -12.957031 4.503906 -12.703125 4.453125 -12.453125 C 4.410156 -12.203125 4.347656 -11.882812 4.265625 -11.5 C 4.628906 -10.59375 4.992188 -9.789062 5.359375 -9.09375 C 5.734375 -8.394531 6.0625 -7.753906 6.34375 -7.171875 C 6.632812 -6.585938 6.867188 -6.039062 7.046875 -5.53125 C 7.234375 -5.019531 7.328125 -4.515625 7.328125 -4.015625 C 7.328125 -3.335938 7.191406 -2.695312 6.921875 -2.09375 C 6.648438 -1.488281 6.203125 -0.984375 5.578125 -0.578125 C 5.660156 -0.554688 5.738281 -0.546875 5.8125 -0.546875 C 5.894531 -0.546875 5.976562 -0.546875 6.0625 -0.546875 C 6.96875 -0.546875 7.800781 -0.753906 8.5625 -1.171875 C 9.320312 -1.585938 10.007812 -2.125 10.625 -2.78125 C 11.238281 -3.4375 11.785156 -4.164062 12.265625 -4.96875 C 12.742188 -5.769531 13.15625 -6.570312 13.5 -7.375 C 13.65625 -7.738281 13.878906 -7.921875 14.171875 -7.921875 C 14.441406 -7.921875 14.648438 -7.820312 14.796875 -7.625 C 14.953125 -7.4375 15.03125 -7.234375 15.03125 -7.015625 C 15.03125 -6.890625 15.003906 -6.769531 14.953125 -6.65625 C 14.785156 -6.226562 14.5625 -5.738281 14.28125 -5.1875 C 14 -4.632812 13.660156 -4.066406 13.265625 -3.484375 C 12.878906 -2.910156 12.429688 -2.34375 11.921875 -1.78125 C 11.421875 -1.226562 10.851562 -0.734375 10.21875 -0.296875 C 9.59375 0.140625 8.90625 0.488281 8.15625 0.75 C 7.40625 1.007812 6.585938 1.140625 5.703125 1.140625 C 4.640625 1.140625 3.648438 0.953125 2.734375 0.578125 C 1.816406 0.210938 1.070312 -0.398438 0.5 -1.265625 C 0.40625 -1.410156 0.359375 -1.5625 0.359375 -1.71875 C 0.359375 -1.957031 0.445312 -2.164062 0.625 -2.34375 C 0.8125 -2.53125 1.023438 -2.625 1.265625 -2.625 C 1.515625 -2.625 1.726562 -2.535156 1.90625 -2.359375 C 1.925781 -2.328125 1.984375 -2.273438 2.078125 -2.203125 C 2.171875 -2.128906 2.285156 -2.050781 2.421875 -1.96875 C 2.554688 -1.882812 2.710938 -1.804688 2.890625 -1.734375 C 3.078125 -1.671875 3.265625 -1.640625 3.453125 -1.640625 C 3.835938 -1.640625 4.160156 -1.71875 4.421875 -1.875 C 4.679688 -2.039062 4.890625 -2.238281 5.046875 -2.46875 C 5.210938 -2.695312 5.332031 -2.941406 5.40625 -3.203125 C 5.476562 -3.472656 5.515625 -3.703125 5.515625 -3.890625 C 5.515625 -4.285156 5.445312 -4.679688 5.3125 -5.078125 C 5.1875 -5.472656 5.023438 -5.867188 4.828125 -6.265625 C 4.628906 -6.671875 4.414062 -7.082031 4.1875 -7.5 C 3.957031 -7.925781 3.75 -8.367188 3.5625 -8.828125 Z M 3.5625 -8.828125 "/></g></g></g><g fill="#000000" fill-opacity="1"><g transform="translate(783.269651, 770.283839)"><g><path d="M 6.921875 -2.9375 C 7.191406 -2.332031 7.632812 -1.847656 8.25 -1.484375 C 8.875 -1.128906 9.578125 -0.953125 10.359375 -0.953125 C 10.597656 -0.953125 10.984375 -0.988281 11.515625 -1.0625 C 12.054688 -1.132812 12.679688 -1.375 13.390625 -1.78125 C 14.097656 -2.1875 14.847656 -2.828125 15.640625 -3.703125 C 16.441406 -4.578125 17.21875 -5.804688 17.96875 -7.390625 C 18.039062 -7.566406 18.148438 -7.695312 18.296875 -7.78125 C 18.441406 -7.875 18.601562 -7.921875 18.78125 -7.921875 C 19.050781 -7.921875 19.269531 -7.820312 19.4375 -7.625 C 19.601562 -7.4375 19.6875 -7.234375 19.6875 -7.015625 C 19.6875 -6.921875 19.65625 -6.789062 19.59375 -6.625 C 19.03125 -5.46875 18.40625 -4.429688 17.71875 -3.515625 C 17.039062 -2.597656 16.300781 -1.816406 15.5 -1.171875 C 14.707031 -0.535156 13.878906 -0.046875 13.015625 0.296875 C 12.148438 0.640625 11.265625 0.8125 10.359375 0.8125 C 9.640625 0.8125 8.960938 0.695312 8.328125 0.46875 C 7.703125 0.25 7.160156 -0.046875 6.703125 -0.421875 C 6.253906 -0.796875 5.898438 -1.21875 5.640625 -1.6875 C 5.378906 -2.15625 5.25 -2.632812 5.25 -3.125 C 5.25 -3.1875 5.253906 -3.273438 5.265625 -3.390625 C 5.285156 -3.503906 5.332031 -3.625 5.40625 -3.75 C 5.476562 -3.882812 5.582031 -4.007812 5.71875 -4.125 C 5.851562 -4.25 6.039062 -4.351562 6.28125 -4.4375 C 6.925781 -4.625 7.523438 -4.859375 8.078125 -5.140625 C 8.628906 -5.421875 9.101562 -5.734375 9.5 -6.078125 C 9.894531 -6.429688 10.203125 -6.816406 10.421875 -7.234375 C 10.648438 -7.660156 10.765625 -8.117188 10.765625 -8.609375 C 10.765625 -9.035156 10.617188 -9.382812 10.328125 -9.65625 C 10.046875 -9.925781 9.695312 -10.0625 9.28125 -10.0625 C 8.851562 -10.0625 8.429688 -9.914062 8.015625 -9.625 C 7.597656 -9.332031 7.195312 -8.941406 6.8125 -8.453125 C 6.425781 -7.972656 6.054688 -7.414062 5.703125 -6.78125 C 5.347656 -6.15625 5.023438 -5.5 4.734375 -4.8125 C 4.441406 -4.132812 4.179688 -3.457031 3.953125 -2.78125 C 3.734375 -2.101562 3.550781 -1.476562 3.40625 -0.90625 C 3.363281 -0.726562 3.3125 -0.535156 3.25 -0.328125 C 3.195312 -0.128906 3.113281 0.0625 3 0.25 C 2.894531 0.4375 2.757812 0.585938 2.59375 0.703125 C 2.4375 0.816406 2.234375 0.875 1.984375 0.875 C 1.742188 0.875 1.507812 0.773438 1.28125 0.578125 C 1.0625 0.378906 0.953125 0.046875 0.953125 -0.421875 C 0.953125 -0.523438 0.957031 -0.894531 0.96875 -1.53125 C 0.976562 -2.164062 0.988281 -2.992188 1 -4.015625 C 1.019531 -5.046875 1.039062 -6.222656 1.0625 -7.546875 C 1.082031 -8.878906 1.097656 -10.285156 1.109375 -11.765625 C 1.128906 -13.253906 1.15625 -14.785156 1.1875 -16.359375 C 1.21875 -17.941406 1.238281 -19.476562 1.25 -20.96875 C 1.269531 -22.46875 1.289062 -23.890625 1.3125 -25.234375 C 1.34375 -26.578125 1.363281 -27.769531 1.375 -28.8125 C 1.394531 -29.851562 1.410156 -30.703125 1.421875 -31.359375 C 1.429688 -32.015625 1.4375 -32.410156 1.4375 -32.546875 C 1.4375 -32.796875 1.53125 -33.003906 1.71875 -33.171875 C 1.90625 -33.335938 2.113281 -33.421875 2.34375 -33.421875 C 2.59375 -33.421875 2.804688 -33.335938 2.984375 -33.171875 C 3.160156 -33.003906 3.25 -32.785156 3.25 -32.515625 C 3.25 -32.484375 3.242188 -32.171875 3.234375 -31.578125 C 3.222656 -30.984375 3.207031 -30.179688 3.1875 -29.171875 C 3.175781 -28.171875 3.15625 -27.003906 3.125 -25.671875 C 3.101562 -24.335938 3.082031 -22.914062 3.0625 -21.40625 C 3.039062 -19.90625 3.015625 -18.359375 2.984375 -16.765625 C 2.960938 -15.179688 2.941406 -13.632812 2.921875 -12.125 C 2.898438 -10.613281 2.878906 -9.171875 2.859375 -7.796875 C 2.847656 -6.429688 2.832031 -5.222656 2.8125 -4.171875 C 3.070312 -4.984375 3.398438 -5.835938 3.796875 -6.734375 C 4.191406 -7.640625 4.660156 -8.472656 5.203125 -9.234375 C 5.742188 -9.992188 6.351562 -10.617188 7.03125 -11.109375 C 7.707031 -11.609375 8.457031 -11.859375 9.28125 -11.859375 C 9.738281 -11.859375 10.164062 -11.773438 10.5625 -11.609375 C 10.96875 -11.441406 11.316406 -11.207031 11.609375 -10.90625 C 11.898438 -10.613281 12.128906 -10.269531 12.296875 -9.875 C 12.460938 -9.476562 12.546875 -9.050781 12.546875 -8.59375 C 12.546875 -7.875 12.382812 -7.210938 12.0625 -6.609375 C 11.75 -6.015625 11.328125 -5.484375 10.796875 -5.015625 C 10.273438 -4.546875 9.675781 -4.132812 9 -3.78125 C 8.320312 -3.4375 7.628906 -3.15625 6.921875 -2.9375 Z M 6.921875 -2.9375 "/></g></g></g><g fill="#545454" fill-opacity="1"><g transform="translate(677.46554, 53.8014)"><g><path d="M 6.078125 -14.015625 C 6.816406 -14.015625 7.539062 -13.90625 8.25 -13.6875 C 8.96875 -13.46875 9.5 -13.253906 9.84375 -13.046875 L 10.34375 -12.71875 L 9.078125 -10.21875 C 8.972656 -10.28125 8.832031 -10.363281 8.65625 -10.46875 C 8.476562 -10.570312 8.144531 -10.710938 7.65625 -10.890625 C 7.164062 -11.066406 6.710938 -11.15625 6.296875 -11.15625 C 5.765625 -11.15625 5.359375 -11.046875 5.078125 -10.828125 C 4.796875 -10.609375 4.65625 -10.304688 4.65625 -9.921875 C 4.65625 -9.734375 4.722656 -9.554688 4.859375 -9.390625 C 4.992188 -9.234375 5.222656 -9.0625 5.546875 -8.875 C 5.867188 -8.695312 6.148438 -8.550781 6.390625 -8.4375 C 6.640625 -8.332031 7.019531 -8.164062 7.53125 -7.9375 C 8.414062 -7.5625 9.171875 -7.046875 9.796875 -6.390625 C 10.429688 -5.742188 10.75 -5.007812 10.75 -4.1875 C 10.75 -3.394531 10.601562 -2.703125 10.3125 -2.109375 C 10.03125 -1.523438 9.640625 -1.066406 9.140625 -0.734375 C 8.648438 -0.398438 8.101562 -0.15625 7.5 0 C 6.90625 0.164062 6.257812 0.25 5.5625 0.25 C 4.957031 0.25 4.363281 0.1875 3.78125 0.0625 C 3.207031 -0.0507812 2.722656 -0.203125 2.328125 -0.390625 C 1.941406 -0.578125 1.59375 -0.757812 1.28125 -0.9375 C 0.96875 -1.113281 0.738281 -1.265625 0.59375 -1.390625 L 0.390625 -1.5625 L 1.953125 -4.203125 C 2.085938 -4.085938 2.269531 -3.941406 2.5 -3.765625 C 2.738281 -3.597656 3.15625 -3.367188 3.75 -3.078125 C 4.34375 -2.796875 4.867188 -2.65625 5.328125 -2.65625 C 6.648438 -2.65625 7.3125 -3.101562 7.3125 -4 C 7.3125 -4.1875 7.265625 -4.359375 7.171875 -4.515625 C 7.078125 -4.679688 6.910156 -4.84375 6.671875 -5 C 6.429688 -5.164062 6.21875 -5.296875 6.03125 -5.390625 C 5.84375 -5.492188 5.539062 -5.640625 5.125 -5.828125 C 4.707031 -6.023438 4.398438 -6.175781 4.203125 -6.28125 C 3.367188 -6.6875 2.722656 -7.195312 2.265625 -7.8125 C 1.804688 -8.4375 1.578125 -9.101562 1.578125 -9.8125 C 1.578125 -11.050781 2.035156 -12.0625 2.953125 -12.84375 C 3.867188 -13.625 4.910156 -14.015625 6.078125 -14.015625 Z M 6.078125 -14.015625 "/></g></g></g><g fill="#545454" fill-opacity="1"><g transform="translate(688.672054, 53.8014)"><g><path d="M 6.25 0 L 4.25 0 L -0.328125 -8.5625 L 3.078125 -8.5625 L 5.15625 -3.9375 L 7.203125 -8.5625 L 9.25 -8.5625 L 11.296875 -3.9375 L 13.390625 -8.5625 L 16.78125 -8.5625 L 12.203125 0 L 10.203125 0 L 8.234375 -4.421875 Z M 6.25 0 "/></g></g></g><g fill="#545454" fill-opacity="1"><g transform="translate(705.114943, 53.8014)"><g><path d="M 1.578125 -1.0625 C 0.785156 -1.9375 0.390625 -3.003906 0.390625 -4.265625 C 0.390625 -5.535156 0.785156 -6.609375 1.578125 -7.484375 C 2.378906 -8.367188 3.398438 -8.8125 4.640625 -8.8125 C 5.773438 -8.8125 6.707031 -8.457031 7.4375 -7.75 L 7.4375 -8.5625 L 10.390625 -8.5625 L 10.390625 0 L 7.46875 0 L 7.46875 -0.96875 L 7.4375 -0.96875 C 6.707031 -0.15625 5.773438 0.25 4.640625 0.25 C 3.398438 0.25 2.378906 -0.1875 1.578125 -1.0625 Z M 4.09375 -5.71875 C 3.707031 -5.34375 3.515625 -4.859375 3.515625 -4.265625 C 3.515625 -3.679688 3.695312 -3.203125 4.0625 -2.828125 C 4.4375 -2.453125 4.925781 -2.265625 5.53125 -2.265625 C 6.101562 -2.265625 6.578125 -2.453125 6.953125 -2.828125 C 7.328125 -3.210938 7.515625 -3.691406 7.515625 -4.265625 C 7.515625 -4.859375 7.320312 -5.34375 6.9375 -5.71875 C 6.550781 -6.101562 6.082031 -6.296875 5.53125 -6.296875 C 4.957031 -6.296875 4.476562 -6.101562 4.09375 -5.71875 Z M 4.09375 -5.71875 "/></g></g></g><g fill="#545454" fill-opacity="1"><g transform="translate(716.504896, 53.8014)"><g><path d="M 9.8125 -7.5 C 10.613281 -6.625 11.015625 -5.550781 11.015625 -4.28125 C 11.015625 -3.019531 10.613281 -1.945312 9.8125 -1.0625 C 9.007812 -0.1875 7.992188 0.25 6.765625 0.25 C 5.628906 0.25 4.691406 -0.101562 3.953125 -0.8125 L 3.953125 4.34375 L 1 4.34375 L 1 -8.5625 L 3.921875 -8.5625 L 3.921875 -7.59375 L 3.953125 -7.59375 C 4.691406 -8.40625 5.628906 -8.8125 6.765625 -8.8125 C 7.992188 -8.8125 9.007812 -8.375 9.8125 -7.5 Z M 7.296875 -2.828125 C 7.679688 -3.210938 7.875 -3.695312 7.875 -4.28125 C 7.875 -4.875 7.691406 -5.359375 7.328125 -5.734375 C 6.960938 -6.109375 6.476562 -6.296875 5.875 -6.296875 C 5.289062 -6.296875 4.8125 -6.101562 4.4375 -5.71875 C 4.070312 -5.34375 3.890625 -4.863281 3.890625 -4.28125 C 3.890625 -3.695312 4.082031 -3.210938 4.46875 -2.828125 C 4.851562 -2.453125 5.320312 -2.265625 5.875 -2.265625 C 6.4375 -2.265625 6.910156 -2.453125 7.296875 -2.828125 Z M 7.296875 -2.828125 "/></g></g></g><g fill="#545454" fill-opacity="1"><g transform="translate(727.89485, 53.8014)"><g><path d="M 2.90625 -3.578125 C 3.4375 -3.578125 3.890625 -3.390625 4.265625 -3.015625 C 4.640625 -2.640625 4.828125 -2.1875 4.828125 -1.65625 C 4.828125 -0.0078125 3.890625 1.585938 2.015625 3.140625 L 1.171875 2.4375 C 1.242188 2.375 1.335938 2.273438 1.453125 2.140625 C 1.578125 2.003906 1.75 1.734375 1.96875 1.328125 C 2.195312 0.921875 2.351562 0.507812 2.4375 0.09375 C 2.007812 0 1.660156 -0.203125 1.390625 -0.515625 C 1.128906 -0.835938 1 -1.21875 1 -1.65625 C 1 -2.1875 1.1875 -2.640625 1.5625 -3.015625 C 1.9375 -3.390625 2.382812 -3.578125 2.90625 -3.578125 Z M 2.90625 -3.578125 "/></g></g></g><g fill="#000000" fill-opacity="1"><g transform="translate(677.46554, 73.956636)"><g><path d="M 0.140625 -11.015625 L 0.140625 -13.765625 L 9.8125 -13.765625 L 9.8125 -11.015625 L 6.546875 -11.015625 L 6.546875 0 L 3.40625 0 L 3.40625 -11.015625 Z M 0.140625 -11.015625 "/></g></g></g><g fill="#000000" fill-opacity="1"><g transform="translate(687.404649, 73.956636)"><g><path d="M 1 0 L 1 -8.5625 L 3.953125 -8.5625 L 3.953125 -7.328125 L 3.984375 -7.328125 C 4.003906 -7.367188 4.039062 -7.421875 4.09375 -7.484375 C 4.144531 -7.554688 4.253906 -7.675781 4.421875 -7.84375 C 4.585938 -8.007812 4.765625 -8.160156 4.953125 -8.296875 C 5.140625 -8.429688 5.382812 -8.550781 5.6875 -8.65625 C 5.988281 -8.757812 6.296875 -8.8125 6.609375 -8.8125 C 6.929688 -8.8125 7.25 -8.765625 7.5625 -8.671875 C 7.875 -8.585938 8.101562 -8.5 8.25 -8.40625 L 8.484375 -8.28125 L 7.25 -5.78125 C 6.875 -6.082031 6.359375 -6.234375 5.703125 -6.234375 C 5.347656 -6.234375 5.039062 -6.15625 4.78125 -6 C 4.53125 -5.851562 4.351562 -5.664062 4.25 -5.4375 C 4.144531 -5.21875 4.066406 -5.03125 4.015625 -4.875 C 3.972656 -4.71875 3.953125 -4.59375 3.953125 -4.5 L 3.953125 0 Z M 1 0 "/></g></g></g><g fill="#000000" fill-opacity="1"><g transform="translate(695.709473, 73.956636)"><g><path d="M 1.578125 -1.0625 C 0.785156 -1.9375 0.390625 -3.003906 0.390625 -4.265625 C 0.390625 -5.535156 0.785156 -6.609375 1.578125 -7.484375 C 2.378906 -8.367188 3.398438 -8.8125 4.640625 -8.8125 C 5.773438 -8.8125 6.707031 -8.457031 7.4375 -7.75 L 7.4375 -8.5625 L 10.390625 -8.5625 L 10.390625 0 L 7.46875 0 L 7.46875 -0.96875 L 7.4375 -0.96875 C 6.707031 -0.15625 5.773438 0.25 4.640625 0.25 C 3.398438 0.25 2.378906 -0.1875 1.578125 -1.0625 Z M 4.09375 -5.71875 C 3.707031 -5.34375 3.515625 -4.859375 3.515625 -4.265625 C 3.515625 -3.679688 3.695312 -3.203125 4.0625 -2.828125 C 4.4375 -2.453125 4.925781 -2.265625 5.53125 -2.265625 C 6.101562 -2.265625 6.578125 -2.453125 6.953125 -2.828125 C 7.328125 -3.210938 7.515625 -3.691406 7.515625 -4.265625 C 7.515625 -4.859375 7.320312 -5.34375 6.9375 -5.71875 C 6.550781 -6.101562 6.082031 -6.296875 5.53125 -6.296875 C 4.957031 -6.296875 4.476562 -6.101562 4.09375 -5.71875 Z M 4.09375 -5.71875 "/></g></g></g><g fill="#000000" fill-opacity="1"><g transform="translate(707.099427, 73.956636)"><g><path d="M 1.578125 -1.0625 C 0.785156 -1.9375 0.390625 -3.003906 0.390625 -4.265625 C 0.390625 -5.535156 0.785156 -6.609375 1.578125 -7.484375 C 2.378906 -8.367188 3.398438 -8.8125 4.640625 -8.8125 C 5.773438 -8.8125 6.707031 -8.457031 7.4375 -7.75 L 7.4375 -14.34375 L 10.390625 -14.34375 L 10.390625 0 L 7.46875 0 L 7.46875 -0.96875 L 7.4375 -0.96875 C 6.707031 -0.15625 5.773438 0.25 4.640625 0.25 C 3.398438 0.25 2.378906 -0.1875 1.578125 -1.0625 Z M 4.09375 -5.71875 C 3.707031 -5.34375 3.515625 -4.859375 3.515625 -4.265625 C 3.515625 -3.679688 3.695312 -3.203125 4.0625 -2.828125 C 4.4375 -2.453125 4.925781 -2.265625 5.53125 -2.265625 C 6.101562 -2.265625 6.578125 -2.453125 6.953125 -2.828125 C 7.328125 -3.210938 7.515625 -3.691406 7.515625 -4.265625 C 7.515625 -4.859375 7.320312 -5.34375 6.9375 -5.71875 C 6.550781 -6.101562 6.082031 -6.296875 5.53125 -6.296875 C 4.957031 -6.296875 4.476562 -6.101562 4.09375 -5.71875 Z M 4.09375 -5.71875 "/></g></g></g><g fill="#000000" fill-opacity="1"><g transform="translate(718.48938, 73.956636)"><g><path d="M 9.65625 -3.875 L 3.453125 -3.875 C 3.453125 -3.269531 3.644531 -2.820312 4.03125 -2.53125 C 4.425781 -2.25 4.851562 -2.109375 5.3125 -2.109375 C 5.789062 -2.109375 6.164062 -2.171875 6.4375 -2.296875 C 6.71875 -2.421875 7.035156 -2.671875 7.390625 -3.046875 L 9.53125 -1.984375 C 8.632812 -0.492188 7.15625 0.25 5.09375 0.25 C 3.800781 0.25 2.691406 -0.191406 1.765625 -1.078125 C 0.847656 -1.960938 0.390625 -3.023438 0.390625 -4.265625 C 0.390625 -5.515625 0.847656 -6.582031 1.765625 -7.46875 C 2.691406 -8.363281 3.800781 -8.8125 5.09375 -8.8125 C 6.445312 -8.8125 7.546875 -8.414062 8.390625 -7.625 C 9.242188 -6.84375 9.671875 -5.722656 9.671875 -4.265625 C 9.671875 -4.066406 9.664062 -3.9375 9.65625 -3.875 Z M 3.53125 -5.5 L 6.796875 -5.5 C 6.722656 -5.945312 6.546875 -6.289062 6.265625 -6.53125 C 5.984375 -6.769531 5.617188 -6.890625 5.171875 -6.890625 C 4.679688 -6.890625 4.289062 -6.757812 4 -6.5 C 3.71875 -6.25 3.5625 -5.914062 3.53125 -5.5 Z M 3.53125 -5.5 "/></g></g></g><g fill="#000000" fill-opacity="1"><g transform="translate(728.54522, 73.956636)"><g/></g></g><g fill="#000000" fill-opacity="1"><g transform="translate(733.097866, 73.956636)"><g><path d="M 4.140625 -13.765625 L 4.140625 0 L 1 0 L 1 -13.765625 Z M 4.140625 -13.765625 "/></g></g></g><g fill="#000000" fill-opacity="1"><g transform="translate(738.234181, 73.956636)"><g><path d="M 1 0 L 1 -8.5625 L 3.953125 -8.5625 L 3.953125 -7.65625 L 3.984375 -7.65625 C 4.753906 -8.425781 5.570312 -8.8125 6.4375 -8.8125 C 6.863281 -8.8125 7.285156 -8.753906 7.703125 -8.640625 C 8.117188 -8.535156 8.519531 -8.363281 8.90625 -8.125 C 9.289062 -7.894531 9.601562 -7.5625 9.84375 -7.125 C 10.082031 -6.695312 10.203125 -6.203125 10.203125 -5.640625 L 10.203125 0 L 7.25 0 L 7.25 -4.84375 C 7.25 -5.28125 7.101562 -5.664062 6.8125 -6 C 6.53125 -6.34375 6.160156 -6.515625 5.703125 -6.515625 C 5.265625 -6.515625 4.863281 -6.335938 4.5 -5.984375 C 4.132812 -5.640625 3.953125 -5.257812 3.953125 -4.84375 L 3.953125 0 Z M 1 0 "/></g></g></g><g fill="#000000" fill-opacity="1"><g transform="translate(749.257248, 73.956636)"><g><path d="M 2.90625 -3.578125 C 3.4375 -3.578125 3.890625 -3.390625 4.265625 -3.015625 C 4.640625 -2.640625 4.828125 -2.1875 4.828125 -1.65625 C 4.828125 -0.0078125 3.890625 1.585938 2.015625 3.140625 L 1.171875 2.4375 C 1.242188 2.375 1.335938 2.273438 1.453125 2.140625 C 1.578125 2.003906 1.75 1.734375 1.96875 1.328125 C 2.195312 0.921875 2.351562 0.507812 2.4375 0.09375 C 2.007812 0 1.660156 -0.203125 1.390625 -0.515625 C 1.128906 -0.835938 1 -1.21875 1 -1.65625 C 1 -2.1875 1.1875 -2.640625 1.5625 -3.015625 C 1.9375 -3.390625 2.382812 -3.578125 2.90625 -3.578125 Z M 2.90625 -3.578125 "/></g></g></g><g fill="#18577b" fill-opacity="1"><g transform="translate(677.46554, 94.111873)"><g><path d="M 11.578125 -13.765625 L 11.578125 -4.890625 C 11.578125 -3.203125 11.117188 -1.921875 10.203125 -1.046875 C 9.296875 -0.179688 7.960938 0.25 6.203125 0.25 C 4.453125 0.25 3.117188 -0.179688 2.203125 -1.046875 C 1.285156 -1.921875 0.828125 -3.203125 0.828125 -4.890625 L 0.828125 -13.765625 L 3.96875 -13.765625 L 3.96875 -5.8125 C 3.96875 -4.695312 4.140625 -3.921875 4.484375 -3.484375 C 4.835938 -3.054688 5.410156 -2.84375 6.203125 -2.84375 C 6.992188 -2.84375 7.5625 -3.054688 7.90625 -3.484375 C 8.257812 -3.921875 8.4375 -4.695312 8.4375 -5.8125 L 8.4375 -13.765625 Z M 11.578125 -13.765625 "/></g></g></g><g fill="#18577b" fill-opacity="1"><g transform="translate(689.872751, 94.111873)"><g><path d="M 9.8125 -7.5 C 10.613281 -6.625 11.015625 -5.550781 11.015625 -4.28125 C 11.015625 -3.019531 10.613281 -1.945312 9.8125 -1.0625 C 9.007812 -0.1875 7.992188 0.25 6.765625 0.25 C 5.628906 0.25 4.691406 -0.101562 3.953125 -0.8125 L 3.953125 4.34375 L 1 4.34375 L 1 -8.5625 L 3.921875 -8.5625 L 3.921875 -7.59375 L 3.953125 -7.59375 C 4.691406 -8.40625 5.628906 -8.8125 6.765625 -8.8125 C 7.992188 -8.8125 9.007812 -8.375 9.8125 -7.5 Z M 7.296875 -2.828125 C 7.679688 -3.210938 7.875 -3.695312 7.875 -4.28125 C 7.875 -4.875 7.691406 -5.359375 7.328125 -5.734375 C 6.960938 -6.109375 6.476562 -6.296875 5.875 -6.296875 C 5.289062 -6.296875 4.8125 -6.101562 4.4375 -5.71875 C 4.070312 -5.34375 3.890625 -4.863281 3.890625 -4.28125 C 3.890625 -3.695312 4.082031 -3.210938 4.46875 -2.828125 C 4.851562 -2.453125 5.320312 -2.265625 5.875 -2.265625 C 6.4375 -2.265625 6.910156 -2.453125 7.296875 -2.828125 Z M 7.296875 -2.828125 "/></g></g></g><g fill="#18577b" fill-opacity="1"><g transform="translate(701.262704, 94.111873)"><g><path d="M 0.625 2.109375 L 3.03125 0.921875 C 3.476562 1.648438 4.253906 2.015625 5.359375 2.015625 C 5.867188 2.015625 6.34375 1.847656 6.78125 1.515625 C 7.21875 1.191406 7.4375 0.691406 7.4375 0.015625 L 7.4375 -0.625 C 6.914062 -0.0390625 5.984375 0.25 4.640625 0.25 C 3.398438 0.25 2.378906 -0.1875 1.578125 -1.0625 C 0.785156 -1.9375 0.390625 -3.003906 0.390625 -4.265625 C 0.390625 -5.535156 0.785156 -6.609375 1.578125 -7.484375 C 2.378906 -8.367188 3.398438 -8.8125 4.640625 -8.8125 C 5.742188 -8.8125 6.660156 -8.472656 7.390625 -7.796875 L 7.4375 -7.796875 L 7.4375 -8.5625 L 10.390625 -8.5625 L 10.390625 0.234375 C 10.390625 1.617188 9.925781 2.691406 9 3.453125 C 8.082031 4.210938 6.867188 4.59375 5.359375 4.59375 C 2.910156 4.59375 1.332031 3.765625 0.625 2.109375 Z M 4.09375 -5.71875 C 3.707031 -5.34375 3.515625 -4.859375 3.515625 -4.265625 C 3.515625 -3.679688 3.695312 -3.203125 4.0625 -2.828125 C 4.4375 -2.453125 4.925781 -2.265625 5.53125 -2.265625 C 6.101562 -2.265625 6.578125 -2.453125 6.953125 -2.828125 C 7.328125 -3.210938 7.515625 -3.691406 7.515625 -4.265625 C 7.515625 -4.859375 7.320312 -5.34375 6.9375 -5.71875 C 6.550781 -6.101562 6.082031 -6.296875 5.53125 -6.296875 C 4.957031 -6.296875 4.476562 -6.101562 4.09375 -5.71875 Z M 4.09375 -5.71875 "/></g></g></g><g fill="#18577b" fill-opacity="1"><g transform="translate(712.652658, 94.111873)"><g><path d="M 1 0 L 1 -8.5625 L 3.953125 -8.5625 L 3.953125 -7.328125 L 3.984375 -7.328125 C 4.003906 -7.367188 4.039062 -7.421875 4.09375 -7.484375 C 4.144531 -7.554688 4.253906 -7.675781 4.421875 -7.84375 C 4.585938 -8.007812 4.765625 -8.160156 4.953125 -8.296875 C 5.140625 -8.429688 5.382812 -8.550781 5.6875 -8.65625 C 5.988281 -8.757812 6.296875 -8.8125 6.609375 -8.8125 C 6.929688 -8.8125 7.25 -8.765625 7.5625 -8.671875 C 7.875 -8.585938 8.101562 -8.5 8.25 -8.40625 L 8.484375 -8.28125 L 7.25 -5.78125 C 6.875 -6.082031 6.359375 -6.234375 5.703125 -6.234375 C 5.347656 -6.234375 5.039062 -6.15625 4.78125 -6 C 4.53125 -5.851562 4.351562 -5.664062 4.25 -5.4375 C 4.144531 -5.21875 4.066406 -5.03125 4.015625 -4.875 C 3.972656 -4.71875 3.953125 -4.59375 3.953125 -4.5 L 3.953125 0 Z M 1 0 "/></g></g></g><g fill="#18577b" fill-opacity="1"><g transform="translate(720.957482, 94.111873)"><g><path d="M 1.578125 -1.0625 C 0.785156 -1.9375 0.390625 -3.003906 0.390625 -4.265625 C 0.390625 -5.535156 0.785156 -6.609375 1.578125 -7.484375 C 2.378906 -8.367188 3.398438 -8.8125 4.640625 -8.8125 C 5.773438 -8.8125 6.707031 -8.457031 7.4375 -7.75 L 7.4375 -8.5625 L 10.390625 -8.5625 L 10.390625 0 L 7.46875 0 L 7.46875 -0.96875 L 7.4375 -0.96875 C 6.707031 -0.15625 5.773438 0.25 4.640625 0.25 C 3.398438 0.25 2.378906 -0.1875 1.578125 -1.0625 Z M 4.09375 -5.71875 C 3.707031 -5.34375 3.515625 -4.859375 3.515625 -4.265625 C 3.515625 -3.679688 3.695312 -3.203125 4.0625 -2.828125 C 4.4375 -2.453125 4.925781 -2.265625 5.53125 -2.265625 C 6.101562 -2.265625 6.578125 -2.453125 6.953125 -2.828125 C 7.328125 -3.210938 7.515625 -3.691406 7.515625 -4.265625 C 7.515625 -4.859375 7.320312 -5.34375 6.9375 -5.71875 C 6.550781 -6.101562 6.082031 -6.296875 5.53125 -6.296875 C 4.957031 -6.296875 4.476562 -6.101562 4.09375 -5.71875 Z M 4.09375 -5.71875 "/></g></g></g><g fill="#18577b" fill-opacity="1"><g transform="translate(732.347436, 94.111873)"><g><path d="M 1.578125 -1.0625 C 0.785156 -1.9375 0.390625 -3.003906 0.390625 -4.265625 C 0.390625 -5.535156 0.785156 -6.609375 1.578125 -7.484375 C 2.378906 -8.367188 3.398438 -8.8125 4.640625 -8.8125 C 5.773438 -8.8125 6.707031 -8.457031 7.4375 -7.75 L 7.4375 -14.34375 L 10.390625 -14.34375 L 10.390625 0 L 7.46875 0 L 7.46875 -0.96875 L 7.4375 -0.96875 C 6.707031 -0.15625 5.773438 0.25 4.640625 0.25 C 3.398438 0.25 2.378906 -0.1875 1.578125 -1.0625 Z M 4.09375 -5.71875 C 3.707031 -5.34375 3.515625 -4.859375 3.515625 -4.265625 C 3.515625 -3.679688 3.695312 -3.203125 4.0625 -2.828125 C 4.4375 -2.453125 4.925781 -2.265625 5.53125 -2.265625 C 6.101562 -2.265625 6.578125 -2.453125 6.953125 -2.828125 C 7.328125 -3.210938 7.515625 -3.691406 7.515625 -4.265625 C 7.515625 -4.859375 7.320312 -5.34375 6.9375 -5.71875 C 6.550781 -6.101562 6.082031 -6.296875 5.53125 -6.296875 C 4.957031 -6.296875 4.476562 -6.101562 4.09375 -5.71875 Z M 4.09375 -5.71875 "/></g></g></g><g fill="#18577b" fill-opacity="1"><g transform="translate(743.737389, 94.111873)"><g><path d="M 9.65625 -3.875 L 3.453125 -3.875 C 3.453125 -3.269531 3.644531 -2.820312 4.03125 -2.53125 C 4.425781 -2.25 4.851562 -2.109375 5.3125 -2.109375 C 5.789062 -2.109375 6.164062 -2.171875 6.4375 -2.296875 C 6.71875 -2.421875 7.035156 -2.671875 7.390625 -3.046875 L 9.53125 -1.984375 C 8.632812 -0.492188 7.15625 0.25 5.09375 0.25 C 3.800781 0.25 2.691406 -0.191406 1.765625 -1.078125 C 0.847656 -1.960938 0.390625 -3.023438 0.390625 -4.265625 C 0.390625 -5.515625 0.847656 -6.582031 1.765625 -7.46875 C 2.691406 -8.363281 3.800781 -8.8125 5.09375 -8.8125 C 6.445312 -8.8125 7.546875 -8.414062 8.390625 -7.625 C 9.242188 -6.84375 9.671875 -5.722656 9.671875 -4.265625 C 9.671875 -4.066406 9.664062 -3.9375 9.65625 -3.875 Z M 3.53125 -5.5 L 6.796875 -5.5 C 6.722656 -5.945312 6.546875 -6.289062 6.265625 -6.53125 C 5.984375 -6.769531 5.617188 -6.890625 5.171875 -6.890625 C 4.679688 -6.890625 4.289062 -6.757812 4 -6.5 C 3.71875 -6.25 3.5625 -5.914062 3.53125 -5.5 Z M 3.53125 -5.5 "/></g></g></g><g fill="#81a969" fill-opacity="1"><g transform="translate(753.787386, 94.111873)"><g><path d="M 2.90625 -3.578125 C 3.4375 -3.578125 3.890625 -3.390625 4.265625 -3.015625 C 4.640625 -2.640625 4.828125 -2.1875 4.828125 -1.65625 C 4.828125 -1.132812 4.640625 -0.6875 4.265625 -0.3125 C 3.890625 0.0625 3.4375 0.25 2.90625 0.25 C 2.382812 0.25 1.9375 0.0625 1.5625 -0.3125 C 1.1875 -0.6875 1 -1.132812 1 -1.65625 C 1 -2.1875 1.1875 -2.640625 1.5625 -3.015625 C 1.9375 -3.390625 2.382812 -3.578125 2.90625 -3.578125 Z M 2.90625 -3.578125 "/></g></g></g></svg>