<svg xmlns="http://www.w3.org/2000/svg" xmlns:xlink="http://www.w3.org/1999/xlink" width="640" zoomAndPan="magnify" viewBox="0 0 480 851.999992" height="1136" preserveAspectRatio="xMidYMid meet" version="1.0"><defs><filter x="0%" y="0%" width="100%" height="100%" id="9b75abbe73"><feColorMatrix values="0 0 0 0 1 0 0 0 0 1 0 0 0 0 1 0 0 0 1 0" color-interpolation-filters="sRGB"/></filter><g/><mask id="f13440d29f"><g filter="url(#9b75abbe73)"><rect x="-48" width="576" fill="#000000" y="-85.199999" height="1022.39999" fill-opacity="0.149"/></g></mask><clipPath id="3a5448be53"><path d="M 145 211 L 369 211 L 369 711 L 145 711 Z M 145 211 " clip-rule="nonzero"/></clipPath><clipPath id="3c383bbb43"><path d="M -1.125 491.085938 L 318.554688 -2.34375 L 721.96875 259.015625 L 402.289062 752.445312 Z M -1.125 491.085938 " clip-rule="nonzero"/></clipPath><clipPath id="729dc3e812"><path d="M -1.125 491.085938 L 318.554688 -2.34375 L 721.96875 259.015625 L 402.289062 752.445312 Z M -1.125 491.085938 " clip-rule="nonzero"/></clipPath><clipPath id="1677348c1f"><rect x="0" width="369" y="0" height="711"/></clipPath><mask id="0c14357d65"><g filter="url(#9b75abbe73)"><rect x="-48" width="576" fill="#000000" y="-85.199999" height="1022.39999" fill-opacity="0.149"/></g></mask><clipPath id="c64ac34c83"><path d="M 0 0 L 240 0 L 240 541 L 0 541 Z M 0 0 " clip-rule="nonzero"/></clipPath><clipPath id="0c1029b8e4"><path d="M 397.542969 239.730469 L 53.726562 771.484375 L -381.285156 490.21875 L -37.46875 -41.535156 Z M 397.542969 239.730469 " clip-rule="nonzero"/></clipPath><clipPath id="6063cadf57"><path d="M 397.542969 239.730469 L 53.726562 771.484375 L -381.285156 490.21875 L -37.46875 -41.535156 Z M 397.542969 239.730469 " clip-rule="nonzero"/></clipPath><clipPath id="93767ad5b5"><rect x="0" width="397" y="0" height="768"/></clipPath></defs><rect x="-48" width="576" fill="#ffffff" y="-85.199999" height="1022.39999" fill-opacity="1"/><rect x="-48" width="576" fill="#ffffff" y="-85.199999" height="1022.39999" fill-opacity="1"/><rect x="-48" width="576" fill="#ffffff" y="-85.199999" height="1022.39999" fill-opacity="1"/><g mask="url(#f13440d29f)"><g transform="matrix(1, 0, 0, 1, 111, 141)"><g clip-path="url(#1677348c1f)"><g clip-path="url(#3a5448be53)"><g clip-path="url(#3c383bbb43)"><g clip-path="url(#729dc3e812)"><path fill="#3e4044" d="M 447.007812 683.296875 C 431.535156 707.179688 402.539062 721.890625 374.855469 719.902344 C 349.597656 718.09375 328.648438 702.980469 317.382812 678.4375 L 152.535156 319.570312 C 141.484375 295.511719 143.257812 268.226562 157.28125 246.582031 C 171.316406 224.921875 195.515625 211.996094 222.023438 211.992188 L 619.335938 212.0625 C 646.339844 212.058594 668.71875 224.792969 680.757812 246.964844 C 694.03125 271.410156 692.453125 304.007812 676.855469 328.082031 C 676.855469 328.082031 676.855469 328.082031 676.847656 328.09375 C 663.179688 349.1875 640.386719 361.292969 614.339844 361.285156 L 335.953125 361.253906 L 451.375 612.515625 C 462.316406 636.335938 460.71875 662.132812 447.007812 683.296875 Z M 192.492188 269.394531 C 186.238281 279.042969 185.570312 290.941406 190.664062 302.023438 L 355.507812 660.886719 C 360.402344 671.554688 367.941406 677.324219 377.894531 678.039062 C 390.371094 678.933594 404.628906 671.554688 411.796875 660.488281 C 417.78125 651.246094 418.265625 641.011719 413.25 630.0625 L 270.476562 319.28125 L 614.371094 319.324219 C 626.425781 319.320312 635.601562 314.59375 641.640625 305.269531 C 648.894531 294.078125 649.84375 277.992188 643.878906 267.015625 C 639.207031 258.402344 630.933594 254.035156 619.296875 254.035156 L 221.988281 253.96875 C 209.59375 253.96875 198.84375 259.585938 192.492188 269.394531 Z M 192.492188 269.394531 " fill-opacity="1" fill-rule="nonzero"/></g></g></g></g></g></g><g mask="url(#0c14357d65)"><g transform="matrix(1, 0, 0, 1, 0, 0.000000000000024792)"><g clip-path="url(#93767ad5b5)"><g clip-path="url(#c64ac34c83)"><g clip-path="url(#0c1029b8e4)"><g clip-path="url(#6063cadf57)"><path fill="#18577b" d="M -85.5625 32.980469 C -68.921875 7.242188 -37.699219 -8.621094 -7.871094 -6.5 C 19.351562 -4.570312 41.941406 11.699219 54.113281 38.128906 L 232.199219 424.597656 C 244.132812 450.503906 242.257812 479.898438 227.175781 503.222656 C 212.082031 526.566406 186.023438 540.507812 157.460938 540.53125 L -270.640625 540.730469 C -299.738281 540.753906 -323.867188 527.054688 -336.867188 503.171875 C -351.199219 476.847656 -349.539062 441.734375 -332.765625 415.792969 C -332.765625 415.792969 -332.765625 415.792969 -332.757812 415.777344 C -318.058594 393.042969 -293.515625 379.988281 -265.449219 379.980469 L 34.507812 379.820312 L -90.179688 109.234375 C -102 83.578125 -100.308594 55.789062 -85.5625 32.980469 Z M 189.210938 478.671875 C 195.933594 468.273438 196.636719 455.457031 191.136719 443.523438 L 13.054688 57.058594 C 7.765625 45.570312 -0.363281 39.363281 -11.085938 38.597656 C -24.53125 37.644531 -39.882812 45.601562 -47.59375 57.53125 C -54.035156 67.488281 -54.542969 78.515625 -49.121094 90.304688 L 105.113281 424.988281 L -265.425781 425.183594 C -278.417969 425.195312 -288.300781 430.292969 -294.796875 440.339844 C -302.59375 452.402344 -303.59375 469.730469 -297.15625 481.550781 C -292.113281 490.824219 -283.191406 495.523438 -270.652344 495.515625 L 157.445312 495.3125 C 170.796875 495.304688 182.375 489.242188 189.210938 478.671875 Z M 189.210938 478.671875 " fill-opacity="1" fill-rule="nonzero"/></g></g></g></g></g></g><g fill="#18577b" fill-opacity="1"><g transform="translate(171.962585, 56.950418)"><g><path d="M 9.328125 -17.40625 C 10.296875 -17.40625 11.25 -17.296875 12.1875 -17.078125 C 13.132812 -16.859375 13.84375 -16.640625 14.3125 -16.421875 L 15 -16.09375 L 13.09375 -12.265625 C 11.769531 -12.960938 10.515625 -13.3125 9.328125 -13.3125 C 8.671875 -13.3125 8.203125 -13.238281 7.921875 -13.09375 C 7.648438 -12.957031 7.515625 -12.691406 7.515625 -12.296875 C 7.515625 -12.210938 7.523438 -12.125 7.546875 -12.03125 C 7.566406 -11.945312 7.609375 -11.863281 7.671875 -11.78125 C 7.742188 -11.707031 7.804688 -11.640625 7.859375 -11.578125 C 7.921875 -11.523438 8.015625 -11.46875 8.140625 -11.40625 C 8.273438 -11.34375 8.378906 -11.289062 8.453125 -11.25 C 8.535156 -11.21875 8.660156 -11.171875 8.828125 -11.109375 C 9.003906 -11.046875 9.132812 -10.992188 9.21875 -10.953125 C 9.3125 -10.921875 9.460938 -10.875 9.671875 -10.8125 C 9.878906 -10.75 10.039062 -10.707031 10.15625 -10.6875 C 10.832031 -10.488281 11.421875 -10.265625 11.921875 -10.015625 C 12.429688 -9.773438 12.96875 -9.445312 13.53125 -9.03125 C 14.09375 -8.613281 14.523438 -8.085938 14.828125 -7.453125 C 15.140625 -6.816406 15.296875 -6.09375 15.296875 -5.28125 C 15.296875 -1.425781 12.625 0.5 7.28125 0.5 C 6.070312 0.5 4.921875 0.3125 3.828125 -0.0625 C 2.742188 -0.4375 1.960938 -0.8125 1.484375 -1.1875 L 0.765625 -1.78125 L 3.125 -5.765625 C 3.300781 -5.609375 3.53125 -5.425781 3.8125 -5.21875 C 4.101562 -5.007812 4.625 -4.722656 5.375 -4.359375 C 6.125 -4.003906 6.769531 -3.828125 7.3125 -3.828125 C 8.519531 -3.828125 9.125 -4.234375 9.125 -5.046875 C 9.125 -5.421875 8.96875 -5.710938 8.65625 -5.921875 C 8.351562 -6.128906 7.832031 -6.363281 7.09375 -6.625 C 6.363281 -6.882812 5.789062 -7.128906 5.375 -7.359375 C 4.320312 -7.898438 3.484375 -8.515625 2.859375 -9.203125 C 2.242188 -9.898438 1.9375 -10.820312 1.9375 -11.96875 C 1.9375 -13.6875 2.601562 -15.019531 3.9375 -15.96875 C 5.269531 -16.925781 7.066406 -17.40625 9.328125 -17.40625 Z M 9.328125 -17.40625 "/></g></g></g><g fill="#18577b" fill-opacity="1"><g transform="translate(184.983683, 56.950418)"><g><path d="M 12.359375 0 L 8.40625 0 L -0.65625 -16.90625 L 6.0625 -16.90625 L 10.1875 -7.78125 L 14.25 -16.90625 L 18.265625 -16.90625 L 22.3125 -7.78125 L 26.4375 -16.90625 L 33.171875 -16.90625 L 24.09375 0 L 20.140625 0 L 16.25 -8.734375 Z M 12.359375 0 "/></g></g></g><g fill="#18577b" fill-opacity="1"><g transform="translate(214.289469, 56.950418)"><g><path d="M 3.125 -2.09375 C 1.550781 -3.820312 0.765625 -5.9375 0.765625 -8.4375 C 0.765625 -10.945312 1.550781 -13.066406 3.125 -14.796875 C 4.707031 -16.535156 6.722656 -17.40625 9.171875 -17.40625 C 11.410156 -17.40625 13.253906 -16.703125 14.703125 -15.296875 L 14.703125 -16.90625 L 20.546875 -16.90625 L 20.546875 0 L 14.765625 0 L 14.765625 -1.90625 L 14.703125 -1.90625 C 13.253906 -0.300781 11.410156 0.5 9.171875 0.5 C 6.722656 0.5 4.707031 -0.363281 3.125 -2.09375 Z M 8.09375 -11.296875 C 7.332031 -10.554688 6.953125 -9.601562 6.953125 -8.4375 C 6.953125 -7.269531 7.3125 -6.316406 8.03125 -5.578125 C 8.757812 -4.847656 9.71875 -4.484375 10.90625 -4.484375 C 12.050781 -4.484375 12.992188 -4.851562 13.734375 -5.59375 C 14.472656 -6.34375 14.84375 -7.289062 14.84375 -8.4375 C 14.84375 -9.601562 14.460938 -10.554688 13.703125 -11.296875 C 12.941406 -12.046875 12.007812 -12.421875 10.90625 -12.421875 C 9.789062 -12.421875 8.851562 -12.046875 8.09375 -11.296875 Z M 8.09375 -11.296875 "/></g></g></g><g fill="#18577b" fill-opacity="1"><g transform="translate(233.606873, 56.950418)"><g><path d="M 19.390625 -14.8125 C 20.972656 -13.09375 21.765625 -10.976562 21.765625 -8.46875 C 21.765625 -5.96875 20.972656 -3.847656 19.390625 -2.109375 C 17.804688 -0.367188 15.796875 0.5 13.359375 0.5 C 11.109375 0.5 9.257812 -0.203125 7.8125 -1.609375 L 7.8125 8.578125 L 1.984375 8.578125 L 1.984375 -16.90625 L 7.75 -16.90625 L 7.75 -15 L 7.8125 -15 C 9.257812 -16.601562 11.109375 -17.40625 13.359375 -17.40625 C 15.796875 -17.40625 17.804688 -16.539062 19.390625 -14.8125 Z M 14.421875 -5.59375 C 15.179688 -6.34375 15.5625 -7.300781 15.5625 -8.46875 C 15.5625 -9.632812 15.195312 -10.582031 14.46875 -11.3125 C 13.75 -12.050781 12.796875 -12.421875 11.609375 -12.421875 C 10.460938 -12.421875 9.519531 -12.046875 8.78125 -11.296875 C 8.050781 -10.554688 7.6875 -9.613281 7.6875 -8.46875 C 7.6875 -7.300781 8.0625 -6.34375 8.8125 -5.59375 C 9.570312 -4.851562 10.503906 -4.484375 11.609375 -4.484375 C 12.722656 -4.484375 13.660156 -4.851562 14.421875 -5.59375 Z M 14.421875 -5.59375 "/></g></g></g><g fill="#000000" fill-opacity="1"><g transform="translate(257.403103, 56.302307)"><g><path d="M 8.609375 -5.875 C 9.265625 -2.769531 10.222656 -1.21875 11.484375 -1.21875 C 11.960938 -1.21875 12.425781 -1.394531 12.875 -1.75 C 13.320312 -2.101562 13.734375 -2.539062 14.109375 -3.0625 C 14.492188 -3.582031 14.832031 -4.128906 15.125 -4.703125 C 15.425781 -5.285156 15.671875 -5.789062 15.859375 -6.21875 C 15.992188 -6.539062 16.234375 -6.703125 16.578125 -6.703125 C 16.785156 -6.703125 16.960938 -6.617188 17.109375 -6.453125 C 17.265625 -6.296875 17.34375 -6.125 17.34375 -5.9375 C 17.34375 -5.832031 17.320312 -5.738281 17.28125 -5.65625 C 17.1875 -5.425781 17.046875 -5.117188 16.859375 -4.734375 C 16.679688 -4.347656 16.457031 -3.9375 16.1875 -3.5 C 15.925781 -3.0625 15.632812 -2.613281 15.3125 -2.15625 C 14.988281 -1.695312 14.628906 -1.285156 14.234375 -0.921875 C 13.847656 -0.566406 13.4375 -0.269531 13 -0.03125 C 12.5625 0.207031 12.101562 0.328125 11.625 0.328125 C 10.71875 0.328125 9.941406 0.015625 9.296875 -0.609375 C 8.648438 -1.242188 8.09375 -2.28125 7.625 -3.71875 C 6.976562 -2.34375 6.320312 -1.34375 5.65625 -0.71875 C 5 -0.101562 4.285156 0.203125 3.515625 0.203125 C 3.109375 0.203125 2.71875 0.132812 2.34375 0 C 1.96875 -0.125 1.632812 -0.332031 1.34375 -0.625 C 1.0625 -0.925781 0.832031 -1.304688 0.65625 -1.765625 C 0.488281 -2.234375 0.40625 -2.800781 0.40625 -3.46875 C 0.40625 -4.40625 0.566406 -5.265625 0.890625 -6.046875 C 1.210938 -6.828125 1.628906 -7.492188 2.140625 -8.046875 C 2.648438 -8.609375 3.21875 -9.046875 3.84375 -9.359375 C 4.476562 -9.671875 5.101562 -9.828125 5.71875 -9.828125 C 5.914062 -9.828125 6.085938 -9.753906 6.234375 -9.609375 C 6.390625 -9.460938 6.46875 -9.285156 6.46875 -9.078125 C 6.46875 -8.890625 6.40625 -8.71875 6.28125 -8.5625 C 6.164062 -8.414062 6.003906 -8.332031 5.796875 -8.3125 C 5.390625 -8.25 4.957031 -8.117188 4.5 -7.921875 C 4.039062 -7.722656 3.617188 -7.429688 3.234375 -7.046875 C 2.859375 -6.660156 2.546875 -6.171875 2.296875 -5.578125 C 2.046875 -4.984375 1.921875 -4.273438 1.921875 -3.453125 C 1.921875 -2.785156 2.054688 -2.257812 2.328125 -1.875 C 2.609375 -1.5 3.007812 -1.3125 3.53125 -1.3125 C 3.75 -1.3125 3.976562 -1.367188 4.21875 -1.484375 C 4.46875 -1.597656 4.726562 -1.820312 5 -2.15625 C 5.28125 -2.5 5.582031 -2.976562 5.90625 -3.59375 C 6.238281 -4.21875 6.609375 -5.035156 7.015625 -6.046875 C 6.785156 -7.234375 6.578125 -8.597656 6.390625 -10.140625 C 6.203125 -11.691406 6.109375 -13.425781 6.109375 -15.34375 C 6.109375 -16.175781 6.132812 -17.046875 6.1875 -17.953125 C 6.238281 -18.867188 6.320312 -19.757812 6.4375 -20.625 C 6.5625 -21.488281 6.722656 -22.3125 6.921875 -23.09375 C 7.128906 -23.875 7.378906 -24.5625 7.671875 -25.15625 C 7.960938 -25.75 8.300781 -26.21875 8.6875 -26.5625 C 9.082031 -26.90625 9.53125 -27.078125 10.03125 -27.078125 C 10.46875 -27.078125 10.84375 -26.957031 11.15625 -26.71875 C 11.46875 -26.476562 11.71875 -26.140625 11.90625 -25.703125 C 12.101562 -25.273438 12.25 -24.753906 12.34375 -24.140625 C 12.4375 -23.535156 12.484375 -22.875 12.484375 -22.15625 C 12.484375 -20.59375 12.347656 -19.03125 12.078125 -17.46875 C 11.816406 -15.90625 11.484375 -14.40625 11.078125 -12.96875 C 10.679688 -11.539062 10.257812 -10.21875 9.8125 -9 C 9.375 -7.789062 8.972656 -6.75 8.609375 -5.875 Z M 10.96875 -22.171875 C 10.96875 -22.503906 10.957031 -22.863281 10.9375 -23.25 C 10.914062 -23.644531 10.867188 -24.015625 10.796875 -24.359375 C 10.722656 -24.703125 10.625 -24.988281 10.5 -25.21875 C 10.382812 -25.445312 10.226562 -25.5625 10.03125 -25.5625 C 9.6875 -25.5625 9.367188 -25.265625 9.078125 -24.671875 C 8.796875 -24.078125 8.546875 -23.296875 8.328125 -22.328125 C 8.109375 -21.367188 7.9375 -20.28125 7.8125 -19.0625 C 7.6875 -17.84375 7.625 -16.613281 7.625 -15.375 C 7.625 -14.1875 7.671875 -13 7.765625 -11.8125 C 7.859375 -10.632812 7.960938 -9.582031 8.078125 -8.65625 C 8.472656 -9.6875 8.84375 -10.75 9.1875 -11.84375 C 9.539062 -12.945312 9.847656 -14.070312 10.109375 -15.21875 C 10.378906 -16.363281 10.585938 -17.519531 10.734375 -18.6875 C 10.890625 -19.851562 10.96875 -21.015625 10.96875 -22.171875 Z M 10.96875 -22.171875 "/></g></g></g><g fill="#000000" fill-opacity="1"><g transform="translate(272.516624, 56.302307)"><g><path d="M 3.1875 -2.21875 C 3.476562 -1.832031 3.84375 -1.519531 4.28125 -1.28125 C 4.726562 -1.039062 5.273438 -0.921875 5.921875 -0.921875 C 6.578125 -0.921875 7.175781 -1.078125 7.71875 -1.390625 C 8.257812 -1.710938 8.75 -2.128906 9.1875 -2.640625 C 9.632812 -3.160156 10.03125 -3.734375 10.375 -4.359375 C 10.726562 -4.992188 11.050781 -5.628906 11.34375 -6.265625 C 11.40625 -6.410156 11.492188 -6.519531 11.609375 -6.59375 C 11.734375 -6.664062 11.875 -6.703125 12.03125 -6.703125 C 12.257812 -6.703125 12.441406 -6.617188 12.578125 -6.453125 C 12.722656 -6.296875 12.796875 -6.125 12.796875 -5.9375 C 12.796875 -5.875 12.785156 -5.816406 12.765625 -5.765625 C 12.753906 -5.722656 12.738281 -5.675781 12.71875 -5.625 C 11.78125 -3.570312 10.765625 -2.023438 9.671875 -0.984375 C 8.578125 0.046875 7.332031 0.578125 5.9375 0.609375 C 5.050781 0.609375 4.285156 0.4375 3.640625 0.09375 C 2.992188 -0.25 2.460938 -0.691406 2.046875 -1.234375 C 1.628906 -1.785156 1.316406 -2.40625 1.109375 -3.09375 C 0.910156 -3.78125 0.8125 -4.46875 0.8125 -5.15625 C 0.8125 -5.84375 0.894531 -6.472656 1.0625 -7.046875 C 1.226562 -7.628906 1.46875 -8.132812 1.78125 -8.5625 C 2.101562 -9 2.484375 -9.335938 2.921875 -9.578125 C 3.359375 -9.816406 3.835938 -9.9375 4.359375 -9.9375 C 4.671875 -9.9375 4.976562 -9.875 5.28125 -9.75 C 5.582031 -9.625 5.851562 -9.441406 6.09375 -9.203125 C 6.34375 -8.972656 6.539062 -8.6875 6.6875 -8.34375 C 6.832031 -8.007812 6.90625 -7.625 6.90625 -7.1875 C 6.90625 -6.632812 6.8125 -6.113281 6.625 -5.625 C 6.4375 -5.144531 6.175781 -4.695312 5.84375 -4.28125 C 5.519531 -3.863281 5.128906 -3.476562 4.671875 -3.125 C 4.210938 -2.78125 3.71875 -2.476562 3.1875 -2.21875 Z M 2.59375 -3.53125 C 3.007812 -3.707031 3.390625 -3.929688 3.734375 -4.203125 C 4.078125 -4.472656 4.367188 -4.769531 4.609375 -5.09375 C 4.847656 -5.414062 5.035156 -5.753906 5.171875 -6.109375 C 5.304688 -6.472656 5.375 -6.832031 5.375 -7.1875 C 5.375 -7.59375 5.269531 -7.898438 5.0625 -8.109375 C 4.863281 -8.316406 4.628906 -8.421875 4.359375 -8.421875 C 3.992188 -8.421875 3.679688 -8.320312 3.421875 -8.125 C 3.171875 -7.925781 2.960938 -7.660156 2.796875 -7.328125 C 2.640625 -7.003906 2.523438 -6.644531 2.453125 -6.25 C 2.378906 -5.851562 2.34375 -5.460938 2.34375 -5.078125 C 2.34375 -4.828125 2.363281 -4.566406 2.40625 -4.296875 C 2.457031 -4.035156 2.519531 -3.78125 2.59375 -3.53125 Z M 2.59375 -3.53125 "/></g></g></g><g fill="#000000" fill-opacity="1"><g transform="translate(283.083967, 56.302307)"><g><path d="M 3.015625 -7.484375 C 2.929688 -7.265625 2.832031 -7.019531 2.71875 -6.75 C 2.601562 -6.476562 2.472656 -6.195312 2.328125 -5.90625 C 2.203125 -5.675781 2.078125 -5.492188 1.953125 -5.359375 C 1.828125 -5.234375 1.660156 -5.171875 1.453125 -5.171875 C 1.222656 -5.171875 1.039062 -5.238281 0.90625 -5.375 C 0.769531 -5.519531 0.703125 -5.6875 0.703125 -5.875 C 0.703125 -5.945312 0.707031 -6.003906 0.71875 -6.046875 C 0.738281 -6.097656 0.773438 -6.175781 0.828125 -6.28125 C 1.179688 -6.957031 1.441406 -7.546875 1.609375 -8.046875 C 1.773438 -8.554688 1.910156 -9.085938 2.015625 -9.640625 C 1.921875 -9.953125 1.851562 -10.210938 1.8125 -10.421875 C 1.78125 -10.640625 1.765625 -10.863281 1.765625 -11.09375 C 1.765625 -11.539062 1.859375 -11.898438 2.046875 -12.171875 C 2.234375 -12.453125 2.492188 -12.59375 2.828125 -12.59375 C 3.140625 -12.59375 3.382812 -12.457031 3.5625 -12.1875 C 3.75 -11.914062 3.84375 -11.585938 3.84375 -11.203125 C 3.84375 -10.984375 3.820312 -10.765625 3.78125 -10.546875 C 3.738281 -10.328125 3.6875 -10.054688 3.625 -9.734375 C 3.925781 -8.972656 4.234375 -8.296875 4.546875 -7.703125 C 4.859375 -7.109375 5.132812 -6.5625 5.375 -6.0625 C 5.613281 -5.570312 5.8125 -5.113281 5.96875 -4.6875 C 6.125 -4.257812 6.203125 -3.828125 6.203125 -3.390625 C 6.203125 -2.828125 6.085938 -2.289062 5.859375 -1.78125 C 5.628906 -1.269531 5.253906 -0.835938 4.734375 -0.484375 C 4.796875 -0.472656 4.859375 -0.46875 4.921875 -0.46875 C 4.992188 -0.46875 5.066406 -0.46875 5.140625 -0.46875 C 5.898438 -0.46875 6.601562 -0.640625 7.25 -0.984375 C 7.894531 -1.335938 8.476562 -1.789062 9 -2.34375 C 9.519531 -2.90625 9.984375 -3.523438 10.390625 -4.203125 C 10.796875 -4.890625 11.144531 -5.570312 11.4375 -6.25 C 11.570312 -6.550781 11.757812 -6.703125 12 -6.703125 C 12.226562 -6.703125 12.40625 -6.617188 12.53125 -6.453125 C 12.664062 -6.296875 12.734375 -6.125 12.734375 -5.9375 C 12.734375 -5.832031 12.710938 -5.734375 12.671875 -5.640625 C 12.523438 -5.273438 12.332031 -4.859375 12.09375 -4.390625 C 11.851562 -3.929688 11.566406 -3.453125 11.234375 -2.953125 C 10.910156 -2.460938 10.53125 -1.984375 10.09375 -1.515625 C 9.664062 -1.046875 9.1875 -0.625 8.65625 -0.25 C 8.125 0.113281 7.539062 0.40625 6.90625 0.625 C 6.28125 0.851562 5.585938 0.96875 4.828125 0.96875 C 3.921875 0.96875 3.082031 0.804688 2.3125 0.484375 C 1.539062 0.171875 0.910156 -0.347656 0.421875 -1.078125 C 0.335938 -1.191406 0.296875 -1.316406 0.296875 -1.453125 C 0.296875 -1.660156 0.375 -1.835938 0.53125 -1.984375 C 0.6875 -2.140625 0.867188 -2.21875 1.078125 -2.21875 C 1.285156 -2.21875 1.460938 -2.144531 1.609375 -2 C 1.628906 -1.96875 1.675781 -1.921875 1.75 -1.859375 C 1.832031 -1.804688 1.929688 -1.742188 2.046875 -1.671875 C 2.160156 -1.597656 2.296875 -1.53125 2.453125 -1.46875 C 2.609375 -1.414062 2.769531 -1.390625 2.9375 -1.390625 C 3.257812 -1.390625 3.53125 -1.457031 3.75 -1.59375 C 3.96875 -1.726562 4.144531 -1.894531 4.28125 -2.09375 C 4.414062 -2.289062 4.515625 -2.5 4.578125 -2.71875 C 4.640625 -2.9375 4.671875 -3.128906 4.671875 -3.296875 C 4.671875 -3.628906 4.613281 -3.960938 4.5 -4.296875 C 4.394531 -4.640625 4.257812 -4.976562 4.09375 -5.3125 C 3.925781 -5.65625 3.742188 -6.003906 3.546875 -6.359375 C 3.347656 -6.710938 3.171875 -7.085938 3.015625 -7.484375 Z M 3.015625 -7.484375 "/></g></g></g><g fill="#000000" fill-opacity="1"><g transform="translate(293.590693, 56.302307)"><g><path d="M 5.859375 -2.484375 C 6.085938 -1.972656 6.460938 -1.566406 6.984375 -1.265625 C 7.515625 -0.960938 8.109375 -0.8125 8.765625 -0.8125 C 8.972656 -0.8125 9.304688 -0.835938 9.765625 -0.890625 C 10.222656 -0.953125 10.75 -1.15625 11.34375 -1.5 C 11.945312 -1.84375 12.582031 -2.382812 13.25 -3.125 C 13.925781 -3.875 14.582031 -4.921875 15.21875 -6.265625 C 15.28125 -6.410156 15.375 -6.519531 15.5 -6.59375 C 15.625 -6.664062 15.757812 -6.703125 15.90625 -6.703125 C 16.132812 -6.703125 16.316406 -6.617188 16.453125 -6.453125 C 16.597656 -6.296875 16.671875 -6.125 16.671875 -5.9375 C 16.671875 -5.863281 16.644531 -5.757812 16.59375 -5.625 C 16.125 -4.632812 15.597656 -3.75 15.015625 -2.96875 C 14.429688 -2.195312 13.800781 -1.539062 13.125 -1 C 12.457031 -0.457031 11.753906 -0.0390625 11.015625 0.25 C 10.285156 0.539062 9.535156 0.6875 8.765625 0.6875 C 8.160156 0.6875 7.59375 0.59375 7.0625 0.40625 C 6.53125 0.21875 6.070312 -0.03125 5.6875 -0.34375 C 5.300781 -0.664062 5 -1.023438 4.78125 -1.421875 C 4.5625 -1.816406 4.453125 -2.222656 4.453125 -2.640625 C 4.453125 -2.703125 4.457031 -2.78125 4.46875 -2.875 C 4.476562 -2.96875 4.515625 -3.070312 4.578125 -3.1875 C 4.640625 -3.300781 4.726562 -3.40625 4.84375 -3.5 C 4.957031 -3.601562 5.113281 -3.691406 5.3125 -3.765625 C 5.863281 -3.921875 6.367188 -4.113281 6.828125 -4.34375 C 7.296875 -4.582031 7.695312 -4.847656 8.03125 -5.140625 C 8.375 -5.441406 8.640625 -5.769531 8.828125 -6.125 C 9.015625 -6.488281 9.109375 -6.878906 9.109375 -7.296875 C 9.109375 -7.660156 8.988281 -7.957031 8.75 -8.1875 C 8.507812 -8.414062 8.210938 -8.53125 7.859375 -8.53125 C 7.492188 -8.53125 7.132812 -8.40625 6.78125 -8.15625 C 6.4375 -7.90625 6.097656 -7.570312 5.765625 -7.15625 C 5.441406 -6.75 5.128906 -6.28125 4.828125 -5.75 C 4.535156 -5.21875 4.265625 -4.660156 4.015625 -4.078125 C 3.765625 -3.503906 3.546875 -2.929688 3.359375 -2.359375 C 3.171875 -1.785156 3.015625 -1.253906 2.890625 -0.765625 C 2.847656 -0.617188 2.800781 -0.457031 2.75 -0.28125 C 2.707031 -0.101562 2.640625 0.0546875 2.546875 0.203125 C 2.453125 0.359375 2.335938 0.488281 2.203125 0.59375 C 2.066406 0.695312 1.890625 0.75 1.671875 0.75 C 1.472656 0.75 1.28125 0.664062 1.09375 0.5 C 0.90625 0.332031 0.8125 0.046875 0.8125 -0.359375 C 0.8125 -0.441406 0.8125 -0.753906 0.8125 -1.296875 C 0.820312 -1.835938 0.832031 -2.539062 0.84375 -3.40625 C 0.863281 -4.269531 0.878906 -5.265625 0.890625 -6.390625 C 0.910156 -7.515625 0.925781 -8.707031 0.9375 -9.96875 C 0.957031 -11.226562 0.976562 -12.523438 1 -13.859375 C 1.03125 -15.191406 1.050781 -16.492188 1.0625 -17.765625 C 1.082031 -19.035156 1.101562 -20.238281 1.125 -21.375 C 1.144531 -22.507812 1.160156 -23.519531 1.171875 -24.40625 C 1.179688 -25.289062 1.191406 -26.007812 1.203125 -26.5625 C 1.210938 -27.125 1.21875 -27.457031 1.21875 -27.5625 C 1.21875 -27.78125 1.296875 -27.957031 1.453125 -28.09375 C 1.617188 -28.238281 1.796875 -28.3125 1.984375 -28.3125 C 2.191406 -28.3125 2.367188 -28.238281 2.515625 -28.09375 C 2.671875 -27.957031 2.75 -27.773438 2.75 -27.546875 C 2.75 -27.515625 2.742188 -27.242188 2.734375 -26.734375 C 2.734375 -26.234375 2.722656 -25.554688 2.703125 -24.703125 C 2.691406 -23.859375 2.675781 -22.867188 2.65625 -21.734375 C 2.632812 -20.609375 2.613281 -19.410156 2.59375 -18.140625 C 2.570312 -16.867188 2.550781 -15.554688 2.53125 -14.203125 C 2.507812 -12.859375 2.488281 -11.546875 2.46875 -10.265625 C 2.457031 -8.984375 2.441406 -7.765625 2.421875 -6.609375 C 2.410156 -5.453125 2.398438 -4.425781 2.390625 -3.53125 C 2.597656 -4.21875 2.867188 -4.941406 3.203125 -5.703125 C 3.546875 -6.460938 3.945312 -7.164062 4.40625 -7.8125 C 4.863281 -8.46875 5.378906 -9.003906 5.953125 -9.421875 C 6.523438 -9.835938 7.160156 -10.046875 7.859375 -10.046875 C 8.253906 -10.046875 8.617188 -9.972656 8.953125 -9.828125 C 9.285156 -9.691406 9.578125 -9.5 9.828125 -9.25 C 10.078125 -9 10.269531 -8.703125 10.40625 -8.359375 C 10.550781 -8.023438 10.625 -7.664062 10.625 -7.28125 C 10.625 -6.664062 10.488281 -6.101562 10.21875 -5.59375 C 9.957031 -5.09375 9.601562 -4.644531 9.15625 -4.25 C 8.707031 -3.851562 8.195312 -3.503906 7.625 -3.203125 C 7.050781 -2.910156 6.460938 -2.671875 5.859375 -2.484375 Z M 5.859375 -2.484375 "/></g></g></g><g fill="#545454" fill-opacity="1"><g transform="translate(199.73201, 769.447181)"><g><path d="M 5.75 -13.25 C 6.445312 -13.25 7.132812 -13.144531 7.8125 -12.9375 C 8.488281 -12.738281 8.988281 -12.539062 9.3125 -12.34375 L 9.78125 -12.03125 L 8.578125 -9.65625 C 8.484375 -9.71875 8.351562 -9.796875 8.1875 -9.890625 C 8.019531 -9.992188 7.703125 -10.128906 7.234375 -10.296875 C 6.773438 -10.472656 6.347656 -10.5625 5.953125 -10.5625 C 5.453125 -10.5625 5.066406 -10.453125 4.796875 -10.234375 C 4.535156 -10.023438 4.40625 -9.742188 4.40625 -9.390625 C 4.40625 -9.210938 4.46875 -9.046875 4.59375 -8.890625 C 4.71875 -8.734375 4.929688 -8.566406 5.234375 -8.390625 C 5.546875 -8.222656 5.816406 -8.085938 6.046875 -7.984375 C 6.273438 -7.878906 6.632812 -7.722656 7.125 -7.515625 C 7.957031 -7.148438 8.671875 -6.660156 9.265625 -6.046875 C 9.859375 -5.429688 10.15625 -4.738281 10.15625 -3.96875 C 10.15625 -3.21875 10.019531 -2.5625 9.75 -2 C 9.488281 -1.445312 9.125 -1.007812 8.65625 -0.6875 C 8.1875 -0.375 7.664062 -0.144531 7.09375 0 C 6.53125 0.15625 5.914062 0.234375 5.25 0.234375 C 4.6875 0.234375 4.128906 0.175781 3.578125 0.0625 C 3.035156 -0.0507812 2.578125 -0.191406 2.203125 -0.359375 C 1.835938 -0.535156 1.503906 -0.707031 1.203125 -0.875 C 0.910156 -1.050781 0.695312 -1.195312 0.5625 -1.3125 L 0.359375 -1.484375 L 1.84375 -3.984375 C 1.96875 -3.867188 2.140625 -3.726562 2.359375 -3.5625 C 2.585938 -3.40625 2.984375 -3.191406 3.546875 -2.921875 C 4.109375 -2.648438 4.601562 -2.515625 5.03125 -2.515625 C 6.28125 -2.515625 6.90625 -2.9375 6.90625 -3.78125 C 6.90625 -3.96875 6.859375 -4.132812 6.765625 -4.28125 C 6.679688 -4.4375 6.523438 -4.585938 6.296875 -4.734375 C 6.078125 -4.890625 5.878906 -5.007812 5.703125 -5.09375 C 5.523438 -5.1875 5.238281 -5.328125 4.84375 -5.515625 C 4.457031 -5.703125 4.171875 -5.84375 3.984375 -5.9375 C 3.191406 -6.320312 2.578125 -6.804688 2.140625 -7.390625 C 1.710938 -7.972656 1.5 -8.601562 1.5 -9.28125 C 1.5 -10.445312 1.929688 -11.398438 2.796875 -12.140625 C 3.660156 -12.878906 4.644531 -13.25 5.75 -13.25 Z M 5.75 -13.25 "/></g></g></g><g fill="#545454" fill-opacity="1"><g transform="translate(210.339641, 769.447181)"><g><path d="M 5.921875 0 L 4.03125 0 L -0.3125 -8.09375 L 2.90625 -8.09375 L 4.875 -3.71875 L 6.8125 -8.09375 L 8.75 -8.09375 L 10.6875 -3.71875 L 12.65625 -8.09375 L 15.875 -8.09375 L 11.53125 0 L 9.640625 0 L 7.78125 -4.1875 Z M 5.921875 0 "/></g></g></g><g fill="#545454" fill-opacity="1"><g transform="translate(225.903811, 769.447181)"><g><path d="M 1.5 -1 C 0.738281 -1.820312 0.359375 -2.832031 0.359375 -4.03125 C 0.359375 -5.238281 0.738281 -6.253906 1.5 -7.078125 C 2.257812 -7.910156 3.222656 -8.328125 4.390625 -8.328125 C 5.460938 -8.328125 6.34375 -7.992188 7.03125 -7.328125 L 7.03125 -8.09375 L 9.828125 -8.09375 L 9.828125 0 L 7.0625 0 L 7.0625 -0.921875 L 7.03125 -0.921875 C 6.34375 -0.148438 5.460938 0.234375 4.390625 0.234375 C 3.222656 0.234375 2.257812 -0.175781 1.5 -1 Z M 3.875 -5.40625 C 3.507812 -5.050781 3.328125 -4.59375 3.328125 -4.03125 C 3.328125 -3.476562 3.5 -3.023438 3.84375 -2.671875 C 4.195312 -2.316406 4.65625 -2.140625 5.21875 -2.140625 C 5.769531 -2.140625 6.21875 -2.316406 6.5625 -2.671875 C 6.914062 -3.035156 7.09375 -3.492188 7.09375 -4.046875 C 7.09375 -4.597656 6.910156 -5.050781 6.546875 -5.40625 C 6.191406 -5.769531 5.75 -5.953125 5.21875 -5.953125 C 4.6875 -5.953125 4.238281 -5.769531 3.875 -5.40625 Z M 3.875 -5.40625 "/></g></g></g><g fill="#545454" fill-opacity="1"><g transform="translate(236.685072, 769.447181)"><g><path d="M 9.28125 -7.09375 C 10.039062 -6.269531 10.421875 -5.253906 10.421875 -4.046875 C 10.421875 -2.847656 10.039062 -1.832031 9.28125 -1 C 8.519531 -0.175781 7.554688 0.234375 6.390625 0.234375 C 5.316406 0.234375 4.429688 -0.0976562 3.734375 -0.765625 L 3.734375 4.109375 L 0.953125 4.109375 L 0.953125 -8.09375 L 3.703125 -8.09375 L 3.703125 -7.1875 L 3.734375 -7.1875 C 4.429688 -7.945312 5.316406 -8.328125 6.390625 -8.328125 C 7.554688 -8.328125 8.519531 -7.914062 9.28125 -7.09375 Z M 6.90625 -2.671875 C 7.269531 -3.035156 7.453125 -3.492188 7.453125 -4.046875 C 7.453125 -4.609375 7.273438 -5.066406 6.921875 -5.421875 C 6.578125 -5.773438 6.125 -5.953125 5.5625 -5.953125 C 5.007812 -5.953125 4.554688 -5.769531 4.203125 -5.40625 C 3.847656 -5.050781 3.671875 -4.601562 3.671875 -4.0625 C 3.671875 -3.5 3.851562 -3.035156 4.21875 -2.671875 C 4.582031 -2.316406 5.03125 -2.140625 5.5625 -2.140625 C 6.09375 -2.140625 6.539062 -2.316406 6.90625 -2.671875 Z M 6.90625 -2.671875 "/></g></g></g><g fill="#545454" fill-opacity="1"><g transform="translate(247.466333, 769.447181)"><g><path d="M 2.75 -3.375 C 3.25 -3.375 3.675781 -3.195312 4.03125 -2.84375 C 4.382812 -2.488281 4.5625 -2.0625 4.5625 -1.5625 C 4.5625 -0.0078125 3.675781 1.5 1.90625 2.96875 L 1.109375 2.296875 C 1.179688 2.234375 1.269531 2.140625 1.375 2.015625 C 1.488281 1.890625 1.648438 1.632812 1.859375 1.25 C 2.078125 0.863281 2.222656 0.476562 2.296875 0.09375 C 1.898438 0 1.578125 -0.195312 1.328125 -0.5 C 1.078125 -0.800781 0.953125 -1.15625 0.953125 -1.5625 C 0.953125 -2.0625 1.125 -2.488281 1.46875 -2.84375 C 1.820312 -3.195312 2.25 -3.375 2.75 -3.375 Z M 2.75 -3.375 "/></g></g></g><g fill="#000000" fill-opacity="1"><g transform="translate(199.73201, 788.19718)"><g><path d="M 0.125 -10.421875 L 0.125 -13.015625 L 9.28125 -13.015625 L 9.28125 -10.421875 L 6.1875 -10.421875 L 6.1875 0 L 3.21875 0 L 3.21875 -10.421875 Z M 0.125 -10.421875 "/></g></g></g><g fill="#000000" fill-opacity="1"><g transform="translate(209.139968, 788.19718)"><g><path d="M 0.953125 0 L 0.953125 -8.09375 L 3.734375 -8.09375 L 3.734375 -6.921875 L 3.765625 -6.921875 C 3.785156 -6.960938 3.816406 -7.015625 3.859375 -7.078125 C 3.910156 -7.148438 4.015625 -7.265625 4.171875 -7.421875 C 4.335938 -7.578125 4.507812 -7.71875 4.6875 -7.84375 C 4.863281 -7.96875 5.09375 -8.078125 5.375 -8.171875 C 5.664062 -8.273438 5.957031 -8.328125 6.25 -8.328125 C 6.550781 -8.328125 6.847656 -8.285156 7.140625 -8.203125 C 7.441406 -8.117188 7.660156 -8.035156 7.796875 -7.953125 L 8.015625 -7.828125 L 6.84375 -5.453125 C 6.5 -5.753906 6.015625 -5.90625 5.390625 -5.90625 C 5.054688 -5.90625 4.769531 -5.828125 4.53125 -5.671875 C 4.289062 -5.523438 4.117188 -5.347656 4.015625 -5.140625 C 3.910156 -4.929688 3.835938 -4.753906 3.796875 -4.609375 C 3.753906 -4.460938 3.734375 -4.347656 3.734375 -4.265625 L 3.734375 0 Z M 0.953125 0 "/></g></g></g><g fill="#000000" fill-opacity="1"><g transform="translate(217.000972, 788.19718)"><g><path d="M 1.5 -1 C 0.738281 -1.820312 0.359375 -2.832031 0.359375 -4.03125 C 0.359375 -5.238281 0.738281 -6.253906 1.5 -7.078125 C 2.257812 -7.910156 3.222656 -8.328125 4.390625 -8.328125 C 5.460938 -8.328125 6.34375 -7.992188 7.03125 -7.328125 L 7.03125 -8.09375 L 9.828125 -8.09375 L 9.828125 0 L 7.0625 0 L 7.0625 -0.921875 L 7.03125 -0.921875 C 6.34375 -0.148438 5.460938 0.234375 4.390625 0.234375 C 3.222656 0.234375 2.257812 -0.175781 1.5 -1 Z M 3.875 -5.40625 C 3.507812 -5.050781 3.328125 -4.59375 3.328125 -4.03125 C 3.328125 -3.476562 3.5 -3.023438 3.84375 -2.671875 C 4.195312 -2.316406 4.65625 -2.140625 5.21875 -2.140625 C 5.769531 -2.140625 6.21875 -2.316406 6.5625 -2.671875 C 6.914062 -3.035156 7.09375 -3.492188 7.09375 -4.046875 C 7.09375 -4.597656 6.910156 -5.050781 6.546875 -5.40625 C 6.191406 -5.769531 5.75 -5.953125 5.21875 -5.953125 C 4.6875 -5.953125 4.238281 -5.769531 3.875 -5.40625 Z M 3.875 -5.40625 "/></g></g></g><g fill="#000000" fill-opacity="1"><g transform="translate(227.782233, 788.19718)"><g><path d="M 1.5 -1 C 0.738281 -1.820312 0.359375 -2.832031 0.359375 -4.03125 C 0.359375 -5.238281 0.738281 -6.253906 1.5 -7.078125 C 2.257812 -7.910156 3.222656 -8.328125 4.390625 -8.328125 C 5.460938 -8.328125 6.34375 -7.992188 7.03125 -7.328125 L 7.03125 -13.578125 L 9.828125 -13.578125 L 9.828125 0 L 7.0625 0 L 7.0625 -0.921875 L 7.03125 -0.921875 C 6.34375 -0.148438 5.460938 0.234375 4.390625 0.234375 C 3.222656 0.234375 2.257812 -0.175781 1.5 -1 Z M 3.875 -5.40625 C 3.507812 -5.050781 3.328125 -4.59375 3.328125 -4.03125 C 3.328125 -3.476562 3.5 -3.023438 3.84375 -2.671875 C 4.195312 -2.316406 4.65625 -2.140625 5.21875 -2.140625 C 5.769531 -2.140625 6.21875 -2.316406 6.5625 -2.671875 C 6.914062 -3.035156 7.09375 -3.492188 7.09375 -4.046875 C 7.09375 -4.597656 6.910156 -5.050781 6.546875 -5.40625 C 6.191406 -5.769531 5.75 -5.953125 5.21875 -5.953125 C 4.6875 -5.953125 4.238281 -5.769531 3.875 -5.40625 Z M 3.875 -5.40625 "/></g></g></g><g fill="#000000" fill-opacity="1"><g transform="translate(238.563493, 788.19718)"><g><path d="M 9.140625 -3.65625 L 3.265625 -3.65625 C 3.265625 -3.09375 3.445312 -2.671875 3.8125 -2.390625 C 4.1875 -2.117188 4.585938 -1.984375 5.015625 -1.984375 C 5.472656 -1.984375 5.832031 -2.039062 6.09375 -2.15625 C 6.351562 -2.28125 6.648438 -2.523438 6.984375 -2.890625 L 9.015625 -1.875 C 8.171875 -0.46875 6.769531 0.234375 4.8125 0.234375 C 3.59375 0.234375 2.546875 -0.179688 1.671875 -1.015625 C 0.796875 -1.847656 0.359375 -2.851562 0.359375 -4.03125 C 0.359375 -5.21875 0.796875 -6.226562 1.671875 -7.0625 C 2.546875 -7.90625 3.59375 -8.328125 4.8125 -8.328125 C 6.09375 -8.328125 7.132812 -7.957031 7.9375 -7.21875 C 8.75 -6.476562 9.15625 -5.421875 9.15625 -4.046875 C 9.15625 -3.847656 9.148438 -3.71875 9.140625 -3.65625 Z M 3.34375 -5.203125 L 6.421875 -5.203125 C 6.359375 -5.628906 6.191406 -5.953125 5.921875 -6.171875 C 5.648438 -6.398438 5.304688 -6.515625 4.890625 -6.515625 C 4.429688 -6.515625 4.0625 -6.394531 3.78125 -6.15625 C 3.507812 -5.914062 3.363281 -5.597656 3.34375 -5.203125 Z M 3.34375 -5.203125 "/></g></g></g><g fill="#000000" fill-opacity="1"><g transform="translate(248.081945, 788.19718)"><g/></g></g><g fill="#000000" fill-opacity="1"><g transform="translate(252.391297, 788.19718)"><g><path d="M 3.90625 -13.015625 L 3.90625 0 L 0.953125 0 L 0.953125 -13.015625 Z M 3.90625 -13.015625 "/></g></g></g><g fill="#000000" fill-opacity="1"><g transform="translate(257.253125, 788.19718)"><g><path d="M 0.953125 0 L 0.953125 -8.09375 L 3.734375 -8.09375 L 3.734375 -7.25 L 3.765625 -7.25 C 4.492188 -7.96875 5.269531 -8.328125 6.09375 -8.328125 C 6.488281 -8.328125 6.882812 -8.273438 7.28125 -8.171875 C 7.675781 -8.066406 8.054688 -7.90625 8.421875 -7.6875 C 8.785156 -7.46875 9.078125 -7.15625 9.296875 -6.75 C 9.523438 -6.34375 9.640625 -5.867188 9.640625 -5.328125 L 9.640625 0 L 6.84375 0 L 6.84375 -4.578125 C 6.84375 -4.992188 6.707031 -5.359375 6.4375 -5.671875 C 6.175781 -5.992188 5.828125 -6.15625 5.390625 -6.15625 C 4.972656 -6.15625 4.59375 -5.988281 4.25 -5.65625 C 3.90625 -5.332031 3.734375 -4.972656 3.734375 -4.578125 L 3.734375 0 Z M 0.953125 0 "/></g></g></g><g fill="#000000" fill-opacity="1"><g transform="translate(267.687115, 788.19718)"><g><path d="M 2.75 -3.375 C 3.25 -3.375 3.675781 -3.195312 4.03125 -2.84375 C 4.382812 -2.488281 4.5625 -2.0625 4.5625 -1.5625 C 4.5625 -0.0078125 3.675781 1.5 1.90625 2.96875 L 1.109375 2.296875 C 1.179688 2.234375 1.269531 2.140625 1.375 2.015625 C 1.488281 1.890625 1.648438 1.632812 1.859375 1.25 C 2.078125 0.863281 2.222656 0.476562 2.296875 0.09375 C 1.898438 0 1.578125 -0.195312 1.328125 -0.5 C 1.078125 -0.800781 0.953125 -1.15625 0.953125 -1.5625 C 0.953125 -2.0625 1.125 -2.488281 1.46875 -2.84375 C 1.820312 -3.195312 2.25 -3.375 2.75 -3.375 Z M 2.75 -3.375 "/></g></g></g><g fill="#18577b" fill-opacity="1"><g transform="translate(199.73201, 806.947179)"><g><path d="M 10.953125 -13.015625 L 10.953125 -4.625 C 10.953125 -3.019531 10.519531 -1.804688 9.65625 -0.984375 C 8.789062 -0.171875 7.523438 0.234375 5.859375 0.234375 C 4.203125 0.234375 2.941406 -0.171875 2.078125 -0.984375 C 1.210938 -1.804688 0.78125 -3.019531 0.78125 -4.625 L 0.78125 -13.015625 L 3.75 -13.015625 L 3.75 -5.484375 C 3.75 -4.429688 3.914062 -3.703125 4.25 -3.296875 C 4.582031 -2.890625 5.117188 -2.6875 5.859375 -2.6875 C 6.609375 -2.6875 7.148438 -2.890625 7.484375 -3.296875 C 7.816406 -3.703125 7.984375 -4.429688 7.984375 -5.484375 L 7.984375 -13.015625 Z M 10.953125 -13.015625 "/></g></g></g><g fill="#18577b" fill-opacity="1"><g transform="translate(211.476165, 806.947179)"><g><path d="M 9.28125 -7.09375 C 10.039062 -6.269531 10.421875 -5.253906 10.421875 -4.046875 C 10.421875 -2.847656 10.039062 -1.832031 9.28125 -1 C 8.519531 -0.175781 7.554688 0.234375 6.390625 0.234375 C 5.316406 0.234375 4.429688 -0.0976562 3.734375 -0.765625 L 3.734375 4.109375 L 0.953125 4.109375 L 0.953125 -8.09375 L 3.703125 -8.09375 L 3.703125 -7.1875 L 3.734375 -7.1875 C 4.429688 -7.945312 5.316406 -8.328125 6.390625 -8.328125 C 7.554688 -8.328125 8.519531 -7.914062 9.28125 -7.09375 Z M 6.90625 -2.671875 C 7.269531 -3.035156 7.453125 -3.492188 7.453125 -4.046875 C 7.453125 -4.609375 7.273438 -5.066406 6.921875 -5.421875 C 6.578125 -5.773438 6.125 -5.953125 5.5625 -5.953125 C 5.007812 -5.953125 4.554688 -5.769531 4.203125 -5.40625 C 3.847656 -5.050781 3.671875 -4.601562 3.671875 -4.0625 C 3.671875 -3.5 3.851562 -3.035156 4.21875 -2.671875 C 4.582031 -2.316406 5.03125 -2.140625 5.5625 -2.140625 C 6.09375 -2.140625 6.539062 -2.316406 6.90625 -2.671875 Z M 6.90625 -2.671875 "/></g></g></g><g fill="#18577b" fill-opacity="1"><g transform="translate(222.257426, 806.947179)"><g><path d="M 0.578125 1.984375 L 2.875 0.875 C 3.289062 1.5625 4.019531 1.90625 5.0625 1.90625 C 5.550781 1.90625 6 1.75 6.40625 1.4375 C 6.820312 1.132812 7.03125 0.660156 7.03125 0.015625 L 7.03125 -0.578125 C 6.539062 -0.0351562 5.660156 0.234375 4.390625 0.234375 C 3.222656 0.234375 2.257812 -0.175781 1.5 -1 C 0.738281 -1.820312 0.359375 -2.832031 0.359375 -4.03125 C 0.359375 -5.238281 0.738281 -6.253906 1.5 -7.078125 C 2.257812 -7.910156 3.222656 -8.328125 4.390625 -8.328125 C 5.429688 -8.328125 6.296875 -8.007812 6.984375 -7.375 L 7.03125 -7.375 L 7.03125 -8.09375 L 9.828125 -8.09375 L 9.828125 0.21875 C 9.828125 1.53125 9.390625 2.546875 8.515625 3.265625 C 7.648438 3.984375 6.5 4.34375 5.0625 4.34375 C 2.75 4.34375 1.253906 3.554688 0.578125 1.984375 Z M 3.875 -5.40625 C 3.507812 -5.050781 3.328125 -4.59375 3.328125 -4.03125 C 3.328125 -3.476562 3.5 -3.023438 3.84375 -2.671875 C 4.195312 -2.316406 4.65625 -2.140625 5.21875 -2.140625 C 5.769531 -2.140625 6.21875 -2.316406 6.5625 -2.671875 C 6.914062 -3.035156 7.09375 -3.492188 7.09375 -4.046875 C 7.09375 -4.597656 6.910156 -5.050781 6.546875 -5.40625 C 6.191406 -5.769531 5.75 -5.953125 5.21875 -5.953125 C 4.6875 -5.953125 4.238281 -5.769531 3.875 -5.40625 Z M 3.875 -5.40625 "/></g></g></g><g fill="#18577b" fill-opacity="1"><g transform="translate(233.038687, 806.947179)"><g><path d="M 0.953125 0 L 0.953125 -8.09375 L 3.734375 -8.09375 L 3.734375 -6.921875 L 3.765625 -6.921875 C 3.785156 -6.960938 3.816406 -7.015625 3.859375 -7.078125 C 3.910156 -7.148438 4.015625 -7.265625 4.171875 -7.421875 C 4.335938 -7.578125 4.507812 -7.71875 4.6875 -7.84375 C 4.863281 -7.96875 5.09375 -8.078125 5.375 -8.171875 C 5.664062 -8.273438 5.957031 -8.328125 6.25 -8.328125 C 6.550781 -8.328125 6.847656 -8.285156 7.140625 -8.203125 C 7.441406 -8.117188 7.660156 -8.035156 7.796875 -7.953125 L 8.015625 -7.828125 L 6.84375 -5.453125 C 6.5 -5.753906 6.015625 -5.90625 5.390625 -5.90625 C 5.054688 -5.90625 4.769531 -5.828125 4.53125 -5.671875 C 4.289062 -5.523438 4.117188 -5.347656 4.015625 -5.140625 C 3.910156 -4.929688 3.835938 -4.753906 3.796875 -4.609375 C 3.753906 -4.460938 3.734375 -4.347656 3.734375 -4.265625 L 3.734375 0 Z M 0.953125 0 "/></g></g></g><g fill="#18577b" fill-opacity="1"><g transform="translate(240.89969, 806.947179)"><g><path d="M 1.5 -1 C 0.738281 -1.820312 0.359375 -2.832031 0.359375 -4.03125 C 0.359375 -5.238281 0.738281 -6.253906 1.5 -7.078125 C 2.257812 -7.910156 3.222656 -8.328125 4.390625 -8.328125 C 5.460938 -8.328125 6.34375 -7.992188 7.03125 -7.328125 L 7.03125 -8.09375 L 9.828125 -8.09375 L 9.828125 0 L 7.0625 0 L 7.0625 -0.921875 L 7.03125 -0.921875 C 6.34375 -0.148438 5.460938 0.234375 4.390625 0.234375 C 3.222656 0.234375 2.257812 -0.175781 1.5 -1 Z M 3.875 -5.40625 C 3.507812 -5.050781 3.328125 -4.59375 3.328125 -4.03125 C 3.328125 -3.476562 3.5 -3.023438 3.84375 -2.671875 C 4.195312 -2.316406 4.65625 -2.140625 5.21875 -2.140625 C 5.769531 -2.140625 6.21875 -2.316406 6.5625 -2.671875 C 6.914062 -3.035156 7.09375 -3.492188 7.09375 -4.046875 C 7.09375 -4.597656 6.910156 -5.050781 6.546875 -5.40625 C 6.191406 -5.769531 5.75 -5.953125 5.21875 -5.953125 C 4.6875 -5.953125 4.238281 -5.769531 3.875 -5.40625 Z M 3.875 -5.40625 "/></g></g></g><g fill="#18577b" fill-opacity="1"><g transform="translate(251.680951, 806.947179)"><g><path d="M 1.5 -1 C 0.738281 -1.820312 0.359375 -2.832031 0.359375 -4.03125 C 0.359375 -5.238281 0.738281 -6.253906 1.5 -7.078125 C 2.257812 -7.910156 3.222656 -8.328125 4.390625 -8.328125 C 5.460938 -8.328125 6.34375 -7.992188 7.03125 -7.328125 L 7.03125 -13.578125 L 9.828125 -13.578125 L 9.828125 0 L 7.0625 0 L 7.0625 -0.921875 L 7.03125 -0.921875 C 6.34375 -0.148438 5.460938 0.234375 4.390625 0.234375 C 3.222656 0.234375 2.257812 -0.175781 1.5 -1 Z M 3.875 -5.40625 C 3.507812 -5.050781 3.328125 -4.59375 3.328125 -4.03125 C 3.328125 -3.476562 3.5 -3.023438 3.84375 -2.671875 C 4.195312 -2.316406 4.65625 -2.140625 5.21875 -2.140625 C 5.769531 -2.140625 6.21875 -2.316406 6.5625 -2.671875 C 6.914062 -3.035156 7.09375 -3.492188 7.09375 -4.046875 C 7.09375 -4.597656 6.910156 -5.050781 6.546875 -5.40625 C 6.191406 -5.769531 5.75 -5.953125 5.21875 -5.953125 C 4.6875 -5.953125 4.238281 -5.769531 3.875 -5.40625 Z M 3.875 -5.40625 "/></g></g></g><g fill="#18577b" fill-opacity="1"><g transform="translate(262.462212, 806.947179)"><g><path d="M 9.140625 -3.65625 L 3.265625 -3.65625 C 3.265625 -3.09375 3.445312 -2.671875 3.8125 -2.390625 C 4.1875 -2.117188 4.585938 -1.984375 5.015625 -1.984375 C 5.472656 -1.984375 5.832031 -2.039062 6.09375 -2.15625 C 6.351562 -2.28125 6.648438 -2.523438 6.984375 -2.890625 L 9.015625 -1.875 C 8.171875 -0.46875 6.769531 0.234375 4.8125 0.234375 C 3.59375 0.234375 2.546875 -0.179688 1.671875 -1.015625 C 0.796875 -1.847656 0.359375 -2.851562 0.359375 -4.03125 C 0.359375 -5.21875 0.796875 -6.226562 1.671875 -7.0625 C 2.546875 -7.90625 3.59375 -8.328125 4.8125 -8.328125 C 6.09375 -8.328125 7.132812 -7.957031 7.9375 -7.21875 C 8.75 -6.476562 9.15625 -5.421875 9.15625 -4.046875 C 9.15625 -3.847656 9.148438 -3.71875 9.140625 -3.65625 Z M 3.34375 -5.203125 L 6.421875 -5.203125 C 6.359375 -5.628906 6.191406 -5.953125 5.921875 -6.171875 C 5.648438 -6.398438 5.304688 -6.515625 4.890625 -6.515625 C 4.429688 -6.515625 4.0625 -6.394531 3.78125 -6.15625 C 3.507812 -5.914062 3.363281 -5.597656 3.34375 -5.203125 Z M 3.34375 -5.203125 "/></g></g></g><g fill="#18577b" fill-opacity="1"><g transform="translate(271.980663, 806.947179)"><g><path d="M 2.75 -3.375 C 3.25 -3.375 3.675781 -3.195312 4.03125 -2.84375 C 4.382812 -2.488281 4.5625 -2.0625 4.5625 -1.5625 C 4.5625 -1.070312 4.382812 -0.648438 4.03125 -0.296875 C 3.675781 0.0546875 3.25 0.234375 2.75 0.234375 C 2.25 0.234375 1.820312 0.0546875 1.46875 -0.296875 C 1.125 -0.648438 0.953125 -1.070312 0.953125 -1.5625 C 0.953125 -2.0625 1.125 -2.488281 1.46875 -2.84375 C 1.820312 -3.195312 2.25 -3.375 2.75 -3.375 Z M 2.75 -3.375 "/></g></g></g></svg>