<svg xmlns="http://www.w3.org/2000/svg" xmlns:xlink="http://www.w3.org/1999/xlink" width="640" zoomAndPan="magnify" viewBox="0 0 480 851.999992" height="1136" preserveAspectRatio="xMidYMid meet" version="1.0"><defs><filter x="0%" y="0%" width="100%" height="100%" id="6683e20ff1"><feColorMatrix values="0 0 0 0 1 0 0 0 0 1 0 0 0 0 1 0 0 0 1 0" color-interpolation-filters="sRGB"/></filter><g/><mask id="e1e253a04a"><g filter="url(#6683e20ff1)"><rect x="-48" width="576" fill="#000000" y="-85.199999" height="1022.39999" fill-opacity="0.149"/></g></mask><clipPath id="0d01e0270c"><path d="M 145 211 L 370 211 L 370 711 L 145 711 Z M 145 211 " clip-rule="nonzero"/></clipPath><clipPath id="02d1eb376b"><path d="M -1.253906 491.085938 L 318.425781 -2.34375 L 721.839844 259.015625 L 402.160156 752.445312 Z M -1.253906 491.085938 " clip-rule="nonzero"/></clipPath><clipPath id="cf63bb1f2e"><path d="M -1.253906 491.085938 L 318.425781 -2.34375 L 721.839844 259.015625 L 402.160156 752.445312 Z M -1.253906 491.085938 " clip-rule="nonzero"/></clipPath><clipPath id="d47dcf0230"><rect x="0" width="370" y="0" height="711"/></clipPath><mask id="98f6b19c97"><g filter="url(#6683e20ff1)"><rect x="-48" width="576" fill="#000000" y="-85.199999" height="1022.39999" fill-opacity="0.1765"/></g></mask><clipPath id="32ecec7f79"><path d="M 0 0 L 239 0 L 239 541 L 0 541 Z M 0 0 " clip-rule="nonzero"/></clipPath><clipPath id="3a9d691fdc"><path d="M 396.414062 239.730469 L 52.597656 771.484375 L -382.410156 490.21875 L -38.597656 -41.535156 Z M 396.414062 239.730469 " clip-rule="nonzero"/></clipPath><clipPath id="5bf74b7ede"><path d="M 396.414062 239.730469 L 52.597656 771.484375 L -382.410156 490.21875 L -38.597656 -41.535156 Z M 396.414062 239.730469 " clip-rule="nonzero"/></clipPath><clipPath id="126cbda2c3"><rect x="0" width="396" y="0" height="768"/></clipPath></defs><rect x="-48" width="576" fill="#ffffff" y="-85.199999" height="1022.39999" fill-opacity="1"/><rect x="-48" width="576" fill="#ffffff" y="-85.199999" height="1022.39999" fill-opacity="1"/><rect x="-48" width="576" fill="#ffffff" y="-85.199999" height="1022.39999" fill-opacity="1"/><g mask="url(#e1e253a04a)"><g transform="matrix(1, 0, 0, 1, 110, 141)"><g clip-path="url(#d47dcf0230)"><g clip-path="url(#0d01e0270c)"><g clip-path="url(#02d1eb376b)"><g clip-path="url(#cf63bb1f2e)"><path fill="#3e4044" d="M 446.878906 683.296875 C 431.40625 707.179688 402.414062 721.890625 374.730469 719.902344 C 349.46875 718.09375 328.519531 702.980469 317.253906 678.4375 L 152.40625 319.570312 C 141.355469 295.511719 143.128906 268.226562 157.152344 246.582031 C 171.1875 224.921875 195.390625 211.996094 221.894531 211.992188 L 619.207031 212.0625 C 646.210938 212.058594 668.59375 224.792969 680.628906 246.964844 C 693.902344 271.410156 692.324219 304.007812 676.726562 328.082031 C 676.726562 328.082031 676.726562 328.082031 676.71875 328.09375 C 663.050781 349.1875 640.261719 361.292969 614.210938 361.285156 L 335.824219 361.253906 L 451.246094 612.515625 C 462.1875 636.335938 460.589844 662.132812 446.878906 683.296875 Z M 192.363281 269.394531 C 186.109375 279.042969 185.441406 290.941406 190.535156 302.023438 L 355.378906 660.886719 C 360.273438 671.554688 367.8125 677.324219 377.765625 678.039062 C 390.242188 678.933594 404.5 671.554688 411.667969 660.488281 C 417.65625 651.246094 418.136719 641.011719 413.121094 630.0625 L 270.347656 319.28125 L 614.242188 319.324219 C 626.296875 319.320312 635.472656 314.59375 641.511719 305.269531 C 648.765625 294.078125 649.714844 277.992188 643.753906 267.015625 C 639.082031 258.402344 630.804688 254.035156 619.167969 254.035156 L 221.859375 253.96875 C 209.46875 253.96875 198.714844 259.585938 192.363281 269.394531 Z M 192.363281 269.394531 " fill-opacity="1" fill-rule="nonzero"/></g></g></g></g></g></g><g mask="url(#98f6b19c97)"><g transform="matrix(1, 0, 0, 1, 0, 0.000000000000024792)"><g clip-path="url(#126cbda2c3)"><g clip-path="url(#32ecec7f79)"><g clip-path="url(#3a9d691fdc)"><g clip-path="url(#5bf74b7ede)"><path fill="#6da640" d="M -86.691406 32.980469 C -70.050781 7.242188 -38.828125 -8.621094 -8.996094 -6.5 C 18.222656 -4.570312 40.8125 11.699219 52.984375 38.128906 L 231.070312 424.597656 C 243.003906 450.503906 241.128906 479.898438 226.046875 503.222656 C 210.953125 526.566406 184.894531 540.507812 156.332031 540.53125 L -271.769531 540.730469 C -300.867188 540.753906 -324.996094 527.054688 -337.996094 503.171875 C -352.328125 476.847656 -350.667969 441.734375 -333.894531 415.792969 C -333.894531 415.792969 -333.894531 415.792969 -333.886719 415.777344 C -319.1875 393.042969 -294.644531 379.988281 -266.578125 379.980469 L 33.382812 379.820312 L -91.304688 109.234375 C -103.128906 83.578125 -101.4375 55.789062 -86.691406 32.980469 Z M 188.082031 478.671875 C 194.804688 468.273438 195.507812 455.457031 190.007812 443.523438 L 11.925781 57.058594 C 6.636719 45.570312 -1.492188 39.363281 -12.214844 38.597656 C -25.660156 37.644531 -41.011719 45.601562 -48.722656 57.53125 C -55.160156 67.488281 -55.667969 78.515625 -50.25 90.304688 L 103.984375 424.988281 L -266.554688 425.183594 C -279.542969 425.195312 -289.425781 430.292969 -295.921875 440.339844 C -303.722656 452.402344 -304.722656 469.730469 -298.285156 481.550781 C -293.242188 490.824219 -284.320312 495.523438 -271.777344 495.515625 L 156.316406 495.3125 C 169.671875 495.304688 181.246094 489.242188 188.082031 478.671875 Z M 188.082031 478.671875 " fill-opacity="1" fill-rule="nonzero"/></g></g></g></g></g></g><g fill="#545454" fill-opacity="1"><g transform="translate(200.311794, 760.222721)"><g><path d="M 5.75 -13.265625 C 6.457031 -13.265625 7.144531 -13.160156 7.8125 -12.953125 C 8.488281 -12.753906 8.988281 -12.554688 9.3125 -12.359375 L 9.796875 -12.03125 L 8.59375 -9.671875 C 8.5 -9.734375 8.367188 -9.8125 8.203125 -9.90625 C 8.035156 -10.007812 7.71875 -10.144531 7.25 -10.3125 C 6.789062 -10.476562 6.359375 -10.5625 5.953125 -10.5625 C 5.460938 -10.5625 5.082031 -10.457031 4.8125 -10.25 C 4.539062 -10.039062 4.40625 -9.757812 4.40625 -9.40625 C 4.40625 -9.21875 4.46875 -9.046875 4.59375 -8.890625 C 4.71875 -8.742188 4.929688 -8.582031 5.234375 -8.40625 C 5.546875 -8.238281 5.816406 -8.097656 6.046875 -7.984375 C 6.273438 -7.878906 6.632812 -7.722656 7.125 -7.515625 C 7.96875 -7.160156 8.6875 -6.675781 9.28125 -6.0625 C 9.875 -5.445312 10.171875 -4.75 10.171875 -3.96875 C 10.171875 -3.21875 10.035156 -2.5625 9.765625 -2 C 9.503906 -1.445312 9.140625 -1.007812 8.671875 -0.6875 C 8.203125 -0.375 7.679688 -0.144531 7.109375 0 C 6.535156 0.15625 5.921875 0.234375 5.265625 0.234375 C 4.691406 0.234375 4.128906 0.175781 3.578125 0.0625 C 3.035156 -0.0507812 2.578125 -0.191406 2.203125 -0.359375 C 1.835938 -0.535156 1.507812 -0.707031 1.21875 -0.875 C 0.925781 -1.050781 0.707031 -1.195312 0.5625 -1.3125 L 0.359375 -1.484375 L 1.84375 -3.984375 C 1.96875 -3.878906 2.140625 -3.742188 2.359375 -3.578125 C 2.585938 -3.410156 2.984375 -3.191406 3.546875 -2.921875 C 4.109375 -2.648438 4.609375 -2.515625 5.046875 -2.515625 C 6.296875 -2.515625 6.921875 -2.941406 6.921875 -3.796875 C 6.921875 -3.972656 6.875 -4.132812 6.78125 -4.28125 C 6.695312 -4.4375 6.539062 -4.585938 6.3125 -4.734375 C 6.082031 -4.890625 5.878906 -5.015625 5.703125 -5.109375 C 5.535156 -5.203125 5.253906 -5.335938 4.859375 -5.515625 C 4.460938 -5.703125 4.171875 -5.84375 3.984375 -5.9375 C 3.191406 -6.332031 2.578125 -6.820312 2.140625 -7.40625 C 1.710938 -7.988281 1.5 -8.613281 1.5 -9.28125 C 1.5 -10.457031 1.929688 -11.414062 2.796875 -12.15625 C 3.660156 -12.894531 4.644531 -13.265625 5.75 -13.265625 Z M 5.75 -13.265625 "/></g></g></g><g fill="#545454" fill-opacity="1"><g transform="translate(210.92116, 760.222721)"><g><path d="M 5.921875 0 L 4.03125 0 L -0.3125 -8.109375 L 2.90625 -8.109375 L 4.875 -3.734375 L 6.828125 -8.109375 L 8.75 -8.109375 L 10.6875 -3.734375 L 12.671875 -8.109375 L 15.890625 -8.109375 L 11.546875 0 L 9.65625 0 L 7.78125 -4.1875 Z M 5.921875 0 "/></g></g></g><g fill="#545454" fill-opacity="1"><g transform="translate(226.487876, 760.222721)"><g><path d="M 1.5 -1 C 0.738281 -1.832031 0.359375 -2.847656 0.359375 -4.046875 C 0.359375 -5.242188 0.738281 -6.257812 1.5 -7.09375 C 2.257812 -7.925781 3.222656 -8.34375 4.390625 -8.34375 C 5.460938 -8.34375 6.347656 -8.003906 7.046875 -7.328125 L 7.046875 -8.109375 L 9.84375 -8.109375 L 9.84375 0 L 7.078125 0 L 7.078125 -0.921875 L 7.046875 -0.921875 C 6.347656 -0.148438 5.460938 0.234375 4.390625 0.234375 C 3.222656 0.234375 2.257812 -0.175781 1.5 -1 Z M 3.875 -5.40625 C 3.507812 -5.050781 3.328125 -4.59375 3.328125 -4.03125 C 3.328125 -3.476562 3.5 -3.023438 3.84375 -2.671875 C 4.195312 -2.316406 4.660156 -2.140625 5.234375 -2.140625 C 5.773438 -2.140625 6.222656 -2.316406 6.578125 -2.671875 C 6.929688 -3.035156 7.109375 -3.492188 7.109375 -4.046875 C 7.109375 -4.597656 6.925781 -5.050781 6.5625 -5.40625 C 6.195312 -5.769531 5.753906 -5.953125 5.234375 -5.953125 C 4.691406 -5.953125 4.238281 -5.769531 3.875 -5.40625 Z M 3.875 -5.40625 "/></g></g></g><g fill="#545454" fill-opacity="1"><g transform="translate(237.270907, 760.222721)"><g><path d="M 9.28125 -7.09375 C 10.039062 -6.269531 10.421875 -5.257812 10.421875 -4.0625 C 10.421875 -2.863281 10.039062 -1.847656 9.28125 -1.015625 C 8.53125 -0.179688 7.566406 0.234375 6.390625 0.234375 C 5.316406 0.234375 4.4375 -0.101562 3.75 -0.78125 L 3.75 4.109375 L 0.953125 4.109375 L 0.953125 -8.109375 L 3.71875 -8.109375 L 3.71875 -7.1875 L 3.75 -7.1875 C 4.4375 -7.957031 5.316406 -8.34375 6.390625 -8.34375 C 7.566406 -8.34375 8.53125 -7.925781 9.28125 -7.09375 Z M 6.90625 -2.671875 C 7.269531 -3.035156 7.453125 -3.492188 7.453125 -4.046875 C 7.453125 -4.609375 7.273438 -5.066406 6.921875 -5.421875 C 6.578125 -5.773438 6.125 -5.953125 5.5625 -5.953125 C 5.007812 -5.953125 4.554688 -5.769531 4.203125 -5.40625 C 3.859375 -5.050781 3.6875 -4.601562 3.6875 -4.0625 C 3.6875 -3.5 3.863281 -3.035156 4.21875 -2.671875 C 4.582031 -2.316406 5.03125 -2.140625 5.5625 -2.140625 C 6.09375 -2.140625 6.539062 -2.316406 6.90625 -2.671875 Z M 6.90625 -2.671875 "/></g></g></g><g fill="#545454" fill-opacity="1"><g transform="translate(248.053938, 760.222721)"><g><path d="M 2.75 -3.375 C 3.25 -3.375 3.675781 -3.195312 4.03125 -2.84375 C 4.382812 -2.5 4.5625 -2.070312 4.5625 -1.5625 C 4.5625 0 3.675781 1.507812 1.90625 2.96875 L 1.109375 2.3125 C 1.179688 2.25 1.269531 2.148438 1.375 2.015625 C 1.488281 1.890625 1.65625 1.632812 1.875 1.25 C 2.09375 0.863281 2.238281 0.476562 2.3125 0.09375 C 1.90625 0 1.578125 -0.195312 1.328125 -0.5 C 1.078125 -0.800781 0.953125 -1.15625 0.953125 -1.5625 C 0.953125 -2.070312 1.125 -2.5 1.46875 -2.84375 C 1.820312 -3.195312 2.25 -3.375 2.75 -3.375 Z M 2.75 -3.375 "/></g></g></g><g fill="#000000" fill-opacity="1"><g transform="translate(200.311794, 779.30397)"><g><path d="M 0.125 -10.421875 L 0.125 -13.03125 L 9.28125 -13.03125 L 9.28125 -10.421875 L 6.1875 -10.421875 L 6.1875 0 L 3.21875 0 L 3.21875 -10.421875 Z M 0.125 -10.421875 "/></g></g></g><g fill="#000000" fill-opacity="1"><g transform="translate(209.72129, 779.30397)"><g><path d="M 0.953125 0 L 0.953125 -8.109375 L 3.75 -8.109375 L 3.75 -6.9375 L 3.78125 -6.9375 C 3.800781 -6.976562 3.832031 -7.03125 3.875 -7.09375 C 3.925781 -7.15625 4.03125 -7.265625 4.1875 -7.421875 C 4.34375 -7.578125 4.507812 -7.71875 4.6875 -7.84375 C 4.863281 -7.976562 5.09375 -8.09375 5.375 -8.1875 C 5.664062 -8.289062 5.957031 -8.34375 6.25 -8.34375 C 6.5625 -8.34375 6.863281 -8.300781 7.15625 -8.21875 C 7.445312 -8.132812 7.660156 -8.050781 7.796875 -7.96875 L 8.03125 -7.828125 L 6.859375 -5.46875 C 6.503906 -5.757812 6.019531 -5.90625 5.40625 -5.90625 C 5.0625 -5.90625 4.769531 -5.832031 4.53125 -5.6875 C 4.289062 -5.539062 4.117188 -5.359375 4.015625 -5.140625 C 3.921875 -4.929688 3.851562 -4.753906 3.8125 -4.609375 C 3.769531 -4.460938 3.75 -4.347656 3.75 -4.265625 L 3.75 0 Z M 0.953125 0 "/></g></g></g><g fill="#000000" fill-opacity="1"><g transform="translate(217.583585, 779.30397)"><g><path d="M 1.5 -1 C 0.738281 -1.832031 0.359375 -2.847656 0.359375 -4.046875 C 0.359375 -5.242188 0.738281 -6.257812 1.5 -7.09375 C 2.257812 -7.925781 3.222656 -8.34375 4.390625 -8.34375 C 5.460938 -8.34375 6.347656 -8.003906 7.046875 -7.328125 L 7.046875 -8.109375 L 9.84375 -8.109375 L 9.84375 0 L 7.078125 0 L 7.078125 -0.921875 L 7.046875 -0.921875 C 6.347656 -0.148438 5.460938 0.234375 4.390625 0.234375 C 3.222656 0.234375 2.257812 -0.175781 1.5 -1 Z M 3.875 -5.40625 C 3.507812 -5.050781 3.328125 -4.59375 3.328125 -4.03125 C 3.328125 -3.476562 3.5 -3.023438 3.84375 -2.671875 C 4.195312 -2.316406 4.660156 -2.140625 5.234375 -2.140625 C 5.773438 -2.140625 6.222656 -2.316406 6.578125 -2.671875 C 6.929688 -3.035156 7.109375 -3.492188 7.109375 -4.046875 C 7.109375 -4.597656 6.925781 -5.050781 6.5625 -5.40625 C 6.195312 -5.769531 5.753906 -5.953125 5.234375 -5.953125 C 4.691406 -5.953125 4.238281 -5.769531 3.875 -5.40625 Z M 3.875 -5.40625 "/></g></g></g><g fill="#000000" fill-opacity="1"><g transform="translate(228.366616, 779.30397)"><g><path d="M 1.5 -1 C 0.738281 -1.832031 0.359375 -2.847656 0.359375 -4.046875 C 0.359375 -5.242188 0.738281 -6.257812 1.5 -7.09375 C 2.257812 -7.925781 3.222656 -8.34375 4.390625 -8.34375 C 5.460938 -8.34375 6.347656 -8.003906 7.046875 -7.328125 L 7.046875 -13.578125 L 9.84375 -13.578125 L 9.84375 0 L 7.078125 0 L 7.078125 -0.921875 L 7.046875 -0.921875 C 6.347656 -0.148438 5.460938 0.234375 4.390625 0.234375 C 3.222656 0.234375 2.257812 -0.175781 1.5 -1 Z M 3.875 -5.40625 C 3.507812 -5.050781 3.328125 -4.59375 3.328125 -4.03125 C 3.328125 -3.476562 3.5 -3.023438 3.84375 -2.671875 C 4.195312 -2.316406 4.660156 -2.140625 5.234375 -2.140625 C 5.773438 -2.140625 6.222656 -2.316406 6.578125 -2.671875 C 6.929688 -3.035156 7.109375 -3.492188 7.109375 -4.046875 C 7.109375 -4.597656 6.925781 -5.050781 6.5625 -5.40625 C 6.195312 -5.769531 5.753906 -5.953125 5.234375 -5.953125 C 4.691406 -5.953125 4.238281 -5.769531 3.875 -5.40625 Z M 3.875 -5.40625 "/></g></g></g><g fill="#000000" fill-opacity="1"><g transform="translate(239.149646, 779.30397)"><g><path d="M 9.140625 -3.671875 L 3.265625 -3.671875 C 3.265625 -3.097656 3.445312 -2.671875 3.8125 -2.390625 C 4.1875 -2.117188 4.585938 -1.984375 5.015625 -1.984375 C 5.472656 -1.984375 5.832031 -2.046875 6.09375 -2.171875 C 6.363281 -2.296875 6.664062 -2.535156 7 -2.890625 L 9.015625 -1.875 C 8.171875 -0.46875 6.769531 0.234375 4.8125 0.234375 C 3.59375 0.234375 2.546875 -0.179688 1.671875 -1.015625 C 0.796875 -1.859375 0.359375 -2.867188 0.359375 -4.046875 C 0.359375 -5.222656 0.796875 -6.234375 1.671875 -7.078125 C 2.546875 -7.921875 3.59375 -8.34375 4.8125 -8.34375 C 6.101562 -8.34375 7.148438 -7.96875 7.953125 -7.21875 C 8.753906 -6.476562 9.15625 -5.421875 9.15625 -4.046875 C 9.15625 -3.859375 9.148438 -3.734375 9.140625 -3.671875 Z M 3.34375 -5.21875 L 6.421875 -5.21875 C 6.359375 -5.632812 6.191406 -5.957031 5.921875 -6.1875 C 5.660156 -6.414062 5.316406 -6.53125 4.890625 -6.53125 C 4.429688 -6.53125 4.0625 -6.40625 3.78125 -6.15625 C 3.507812 -5.914062 3.363281 -5.601562 3.34375 -5.21875 Z M 3.34375 -5.21875 "/></g></g></g><g fill="#000000" fill-opacity="1"><g transform="translate(248.669653, 779.30397)"><g/></g></g><g fill="#000000" fill-opacity="1"><g transform="translate(252.979707, 779.30397)"><g><path d="M 3.921875 -13.03125 L 3.921875 0 L 0.953125 0 L 0.953125 -13.03125 Z M 3.921875 -13.03125 "/></g></g></g><g fill="#000000" fill-opacity="1"><g transform="translate(257.84233, 779.30397)"><g><path d="M 0.953125 0 L 0.953125 -8.109375 L 3.75 -8.109375 L 3.75 -7.25 L 3.78125 -7.25 C 4.5 -7.976562 5.269531 -8.34375 6.09375 -8.34375 C 6.5 -8.34375 6.894531 -8.289062 7.28125 -8.1875 C 7.675781 -8.082031 8.054688 -7.914062 8.421875 -7.6875 C 8.785156 -7.46875 9.082031 -7.15625 9.3125 -6.75 C 9.539062 -6.34375 9.65625 -5.875 9.65625 -5.34375 L 9.65625 0 L 6.859375 0 L 6.859375 -4.578125 C 6.859375 -5.003906 6.722656 -5.375 6.453125 -5.6875 C 6.179688 -6 5.832031 -6.15625 5.40625 -6.15625 C 4.976562 -6.15625 4.59375 -5.992188 4.25 -5.671875 C 3.914062 -5.347656 3.75 -4.984375 3.75 -4.578125 L 3.75 0 Z M 0.953125 0 "/></g></g></g><g fill="#000000" fill-opacity="1"><g transform="translate(268.278024, 779.30397)"><g><path d="M 2.75 -3.375 C 3.25 -3.375 3.675781 -3.195312 4.03125 -2.84375 C 4.382812 -2.5 4.5625 -2.070312 4.5625 -1.5625 C 4.5625 0 3.675781 1.507812 1.90625 2.96875 L 1.109375 2.3125 C 1.179688 2.25 1.269531 2.148438 1.375 2.015625 C 1.488281 1.890625 1.65625 1.632812 1.875 1.25 C 2.09375 0.863281 2.238281 0.476562 2.3125 0.09375 C 1.90625 0 1.578125 -0.195312 1.328125 -0.5 C 1.078125 -0.800781 0.953125 -1.15625 0.953125 -1.5625 C 0.953125 -2.070312 1.125 -2.5 1.46875 -2.84375 C 1.820312 -3.195312 2.25 -3.375 2.75 -3.375 Z M 2.75 -3.375 "/></g></g></g><g fill="#6da640" fill-opacity="1"><g transform="translate(200.311794, 798.385218)"><g><path d="M 10.96875 -13.03125 L 10.96875 -4.625 C 10.96875 -3.03125 10.535156 -1.820312 9.671875 -1 C 8.804688 -0.175781 7.539062 0.234375 5.875 0.234375 C 4.207031 0.234375 2.941406 -0.175781 2.078125 -1 C 1.222656 -1.820312 0.796875 -3.03125 0.796875 -4.625 L 0.796875 -13.03125 L 3.765625 -13.03125 L 3.765625 -5.5 C 3.765625 -4.445312 3.925781 -3.710938 4.25 -3.296875 C 4.582031 -2.890625 5.125 -2.6875 5.875 -2.6875 C 6.625 -2.6875 7.164062 -2.890625 7.5 -3.296875 C 7.832031 -3.710938 8 -4.445312 8 -5.5 L 8 -13.03125 Z M 10.96875 -13.03125 "/></g></g></g><g fill="#6da640" fill-opacity="1"><g transform="translate(212.057877, 798.385218)"><g><path d="M 9.28125 -7.09375 C 10.039062 -6.269531 10.421875 -5.257812 10.421875 -4.0625 C 10.421875 -2.863281 10.039062 -1.847656 9.28125 -1.015625 C 8.53125 -0.179688 7.566406 0.234375 6.390625 0.234375 C 5.316406 0.234375 4.4375 -0.101562 3.75 -0.78125 L 3.75 4.109375 L 0.953125 4.109375 L 0.953125 -8.109375 L 3.71875 -8.109375 L 3.71875 -7.1875 L 3.75 -7.1875 C 4.4375 -7.957031 5.316406 -8.34375 6.390625 -8.34375 C 7.566406 -8.34375 8.53125 -7.925781 9.28125 -7.09375 Z M 6.90625 -2.671875 C 7.269531 -3.035156 7.453125 -3.492188 7.453125 -4.046875 C 7.453125 -4.609375 7.273438 -5.066406 6.921875 -5.421875 C 6.578125 -5.773438 6.125 -5.953125 5.5625 -5.953125 C 5.007812 -5.953125 4.554688 -5.769531 4.203125 -5.40625 C 3.859375 -5.050781 3.6875 -4.601562 3.6875 -4.0625 C 3.6875 -3.5 3.863281 -3.035156 4.21875 -2.671875 C 4.582031 -2.316406 5.03125 -2.140625 5.5625 -2.140625 C 6.09375 -2.140625 6.539062 -2.316406 6.90625 -2.671875 Z M 6.90625 -2.671875 "/></g></g></g><g fill="#6da640" fill-opacity="1"><g transform="translate(222.840908, 798.385218)"><g><path d="M 0.578125 1.984375 L 2.875 0.875 C 3.289062 1.5625 4.023438 1.90625 5.078125 1.90625 C 5.554688 1.90625 6.003906 1.75 6.421875 1.4375 C 6.835938 1.132812 7.046875 0.660156 7.046875 0.015625 L 7.046875 -0.578125 C 6.546875 -0.0351562 5.660156 0.234375 4.390625 0.234375 C 3.222656 0.234375 2.257812 -0.175781 1.5 -1 C 0.738281 -1.832031 0.359375 -2.847656 0.359375 -4.046875 C 0.359375 -5.242188 0.738281 -6.257812 1.5 -7.09375 C 2.257812 -7.925781 3.222656 -8.34375 4.390625 -8.34375 C 5.429688 -8.34375 6.300781 -8.019531 7 -7.375 L 7.046875 -7.375 L 7.046875 -8.109375 L 9.84375 -8.109375 L 9.84375 0.21875 C 9.84375 1.539062 9.40625 2.554688 8.53125 3.265625 C 7.65625 3.984375 6.503906 4.34375 5.078125 4.34375 C 2.753906 4.34375 1.253906 3.554688 0.578125 1.984375 Z M 3.875 -5.40625 C 3.507812 -5.050781 3.328125 -4.59375 3.328125 -4.03125 C 3.328125 -3.476562 3.5 -3.023438 3.84375 -2.671875 C 4.195312 -2.316406 4.660156 -2.140625 5.234375 -2.140625 C 5.773438 -2.140625 6.222656 -2.316406 6.578125 -2.671875 C 6.929688 -3.035156 7.109375 -3.492188 7.109375 -4.046875 C 7.109375 -4.597656 6.925781 -5.050781 6.5625 -5.40625 C 6.195312 -5.769531 5.753906 -5.953125 5.234375 -5.953125 C 4.691406 -5.953125 4.238281 -5.769531 3.875 -5.40625 Z M 3.875 -5.40625 "/></g></g></g><g fill="#6da640" fill-opacity="1"><g transform="translate(233.623938, 798.385218)"><g><path d="M 0.953125 0 L 0.953125 -8.109375 L 3.75 -8.109375 L 3.75 -6.9375 L 3.78125 -6.9375 C 3.800781 -6.976562 3.832031 -7.03125 3.875 -7.09375 C 3.925781 -7.15625 4.03125 -7.265625 4.1875 -7.421875 C 4.34375 -7.578125 4.507812 -7.71875 4.6875 -7.84375 C 4.863281 -7.976562 5.09375 -8.09375 5.375 -8.1875 C 5.664062 -8.289062 5.957031 -8.34375 6.25 -8.34375 C 6.5625 -8.34375 6.863281 -8.300781 7.15625 -8.21875 C 7.445312 -8.132812 7.660156 -8.050781 7.796875 -7.96875 L 8.03125 -7.828125 L 6.859375 -5.46875 C 6.503906 -5.757812 6.019531 -5.90625 5.40625 -5.90625 C 5.0625 -5.90625 4.769531 -5.832031 4.53125 -5.6875 C 4.289062 -5.539062 4.117188 -5.359375 4.015625 -5.140625 C 3.921875 -4.929688 3.851562 -4.753906 3.8125 -4.609375 C 3.769531 -4.460938 3.75 -4.347656 3.75 -4.265625 L 3.75 0 Z M 0.953125 0 "/></g></g></g><g fill="#6da640" fill-opacity="1"><g transform="translate(241.486234, 798.385218)"><g><path d="M 1.5 -1 C 0.738281 -1.832031 0.359375 -2.847656 0.359375 -4.046875 C 0.359375 -5.242188 0.738281 -6.257812 1.5 -7.09375 C 2.257812 -7.925781 3.222656 -8.34375 4.390625 -8.34375 C 5.460938 -8.34375 6.347656 -8.003906 7.046875 -7.328125 L 7.046875 -8.109375 L 9.84375 -8.109375 L 9.84375 0 L 7.078125 0 L 7.078125 -0.921875 L 7.046875 -0.921875 C 6.347656 -0.148438 5.460938 0.234375 4.390625 0.234375 C 3.222656 0.234375 2.257812 -0.175781 1.5 -1 Z M 3.875 -5.40625 C 3.507812 -5.050781 3.328125 -4.59375 3.328125 -4.03125 C 3.328125 -3.476562 3.5 -3.023438 3.84375 -2.671875 C 4.195312 -2.316406 4.660156 -2.140625 5.234375 -2.140625 C 5.773438 -2.140625 6.222656 -2.316406 6.578125 -2.671875 C 6.929688 -3.035156 7.109375 -3.492188 7.109375 -4.046875 C 7.109375 -4.597656 6.925781 -5.050781 6.5625 -5.40625 C 6.195312 -5.769531 5.753906 -5.953125 5.234375 -5.953125 C 4.691406 -5.953125 4.238281 -5.769531 3.875 -5.40625 Z M 3.875 -5.40625 "/></g></g></g><g fill="#6da640" fill-opacity="1"><g transform="translate(252.269264, 798.385218)"><g><path d="M 1.5 -1 C 0.738281 -1.832031 0.359375 -2.847656 0.359375 -4.046875 C 0.359375 -5.242188 0.738281 -6.257812 1.5 -7.09375 C 2.257812 -7.925781 3.222656 -8.34375 4.390625 -8.34375 C 5.460938 -8.34375 6.347656 -8.003906 7.046875 -7.328125 L 7.046875 -13.578125 L 9.84375 -13.578125 L 9.84375 0 L 7.078125 0 L 7.078125 -0.921875 L 7.046875 -0.921875 C 6.347656 -0.148438 5.460938 0.234375 4.390625 0.234375 C 3.222656 0.234375 2.257812 -0.175781 1.5 -1 Z M 3.875 -5.40625 C 3.507812 -5.050781 3.328125 -4.59375 3.328125 -4.03125 C 3.328125 -3.476562 3.5 -3.023438 3.84375 -2.671875 C 4.195312 -2.316406 4.660156 -2.140625 5.234375 -2.140625 C 5.773438 -2.140625 6.222656 -2.316406 6.578125 -2.671875 C 6.929688 -3.035156 7.109375 -3.492188 7.109375 -4.046875 C 7.109375 -4.597656 6.925781 -5.050781 6.5625 -5.40625 C 6.195312 -5.769531 5.753906 -5.953125 5.234375 -5.953125 C 4.691406 -5.953125 4.238281 -5.769531 3.875 -5.40625 Z M 3.875 -5.40625 "/></g></g></g><g fill="#6da640" fill-opacity="1"><g transform="translate(263.052295, 798.385218)"><g><path d="M 9.140625 -3.671875 L 3.265625 -3.671875 C 3.265625 -3.097656 3.445312 -2.671875 3.8125 -2.390625 C 4.1875 -2.117188 4.585938 -1.984375 5.015625 -1.984375 C 5.472656 -1.984375 5.832031 -2.046875 6.09375 -2.171875 C 6.363281 -2.296875 6.664062 -2.535156 7 -2.890625 L 9.015625 -1.875 C 8.171875 -0.46875 6.769531 0.234375 4.8125 0.234375 C 3.59375 0.234375 2.546875 -0.179688 1.671875 -1.015625 C 0.796875 -1.859375 0.359375 -2.867188 0.359375 -4.046875 C 0.359375 -5.222656 0.796875 -6.234375 1.671875 -7.078125 C 2.546875 -7.921875 3.59375 -8.34375 4.8125 -8.34375 C 6.101562 -8.34375 7.148438 -7.96875 7.953125 -7.21875 C 8.753906 -6.476562 9.15625 -5.421875 9.15625 -4.046875 C 9.15625 -3.859375 9.148438 -3.734375 9.140625 -3.671875 Z M 3.34375 -5.21875 L 6.421875 -5.21875 C 6.359375 -5.632812 6.191406 -5.957031 5.921875 -6.1875 C 5.660156 -6.414062 5.316406 -6.53125 4.890625 -6.53125 C 4.429688 -6.53125 4.0625 -6.40625 3.78125 -6.15625 C 3.507812 -5.914062 3.363281 -5.601562 3.34375 -5.21875 Z M 3.34375 -5.21875 "/></g></g></g><g fill="#81a969" fill-opacity="1"><g transform="translate(272.56677, 798.385218)"><g><path d="M 2.75 -3.375 C 3.25 -3.375 3.675781 -3.195312 4.03125 -2.84375 C 4.382812 -2.5 4.5625 -2.070312 4.5625 -1.5625 C 4.5625 -1.070312 4.382812 -0.648438 4.03125 -0.296875 C 3.675781 0.0546875 3.25 0.234375 2.75 0.234375 C 2.25 0.234375 1.820312 0.0546875 1.46875 -0.296875 C 1.125 -0.648438 0.953125 -1.070312 0.953125 -1.5625 C 0.953125 -2.070312 1.125 -2.5 1.46875 -2.84375 C 1.820312 -3.195312 2.25 -3.375 2.75 -3.375 Z M 2.75 -3.375 "/></g></g></g><g fill="#6da64a" fill-opacity="1"><g transform="translate(182.75418, 60.557638)"><g><path d="M 18.734375 -22.28125 L 18.734375 -7.90625 C 18.734375 -5.175781 17.992188 -3.109375 16.515625 -1.703125 C 15.046875 -0.296875 12.890625 0.40625 10.046875 0.40625 C 7.203125 0.40625 5.039062 -0.296875 3.5625 -1.703125 C 2.082031 -3.109375 1.34375 -5.175781 1.34375 -7.90625 L 1.34375 -22.28125 L 6.421875 -22.28125 L 6.421875 -9.390625 C 6.421875 -7.597656 6.703125 -6.347656 7.265625 -5.640625 C 7.835938 -4.941406 8.765625 -4.59375 10.046875 -4.59375 C 11.328125 -4.59375 12.25 -4.941406 12.8125 -5.640625 C 13.375 -6.347656 13.65625 -7.597656 13.65625 -9.390625 L 13.65625 -22.28125 Z M 18.734375 -22.28125 "/></g></g></g><g fill="#6da64a" fill-opacity="1"><g transform="translate(201.520647, 60.557638)"><g><path d="M 15.875 -12.125 C 17.164062 -10.71875 17.8125 -8.988281 17.8125 -6.9375 C 17.8125 -4.882812 17.164062 -3.144531 15.875 -1.71875 C 14.582031 -0.300781 12.9375 0.40625 10.9375 0.40625 C 9.101562 0.40625 7.59375 -0.171875 6.40625 -1.328125 L 6.40625 7.015625 L 1.625 7.015625 L 1.625 -13.84375 L 6.34375 -13.84375 L 6.34375 -12.28125 L 6.40625 -12.28125 C 7.59375 -13.59375 9.101562 -14.25 10.9375 -14.25 C 12.9375 -14.25 14.582031 -13.539062 15.875 -12.125 Z M 11.8125 -4.59375 C 12.4375 -5.207031 12.75 -5.988281 12.75 -6.9375 C 12.75 -7.894531 12.453125 -8.671875 11.859375 -9.265625 C 11.265625 -9.867188 10.476562 -10.171875 9.5 -10.171875 C 8.5625 -10.171875 7.789062 -9.863281 7.1875 -9.25 C 6.59375 -8.644531 6.296875 -7.875 6.296875 -6.9375 C 6.296875 -5.988281 6.601562 -5.207031 7.21875 -4.59375 C 7.84375 -3.976562 8.601562 -3.671875 9.5 -3.671875 C 10.414062 -3.671875 11.1875 -3.976562 11.8125 -4.59375 Z M 11.8125 -4.59375 "/></g></g></g><g fill="#6da64a" fill-opacity="1"><g transform="translate(218.639976, 60.557638)"><g><path d="M 1 3.40625 L 4.90625 1.484375 C 5.632812 2.671875 6.890625 3.265625 8.671875 3.265625 C 9.492188 3.265625 10.257812 3 10.96875 2.46875 C 11.6875 1.9375 12.046875 1.125 12.046875 0.03125 L 12.046875 -1 C 11.191406 -0.0625 9.675781 0.40625 7.5 0.40625 C 5.507812 0.40625 3.863281 -0.296875 2.5625 -1.703125 C 1.269531 -3.117188 0.625 -4.851562 0.625 -6.90625 C 0.625 -8.957031 1.269531 -10.691406 2.5625 -12.109375 C 3.863281 -13.535156 5.507812 -14.25 7.5 -14.25 C 9.28125 -14.25 10.769531 -13.703125 11.96875 -12.609375 L 12.046875 -12.609375 L 12.046875 -13.84375 L 16.828125 -13.84375 L 16.828125 0.375 C 16.828125 2.625 16.078125 4.359375 14.578125 5.578125 C 13.085938 6.804688 11.117188 7.421875 8.671875 7.421875 C 4.710938 7.421875 2.15625 6.082031 1 3.40625 Z M 6.625 -9.25 C 6.007812 -8.644531 5.703125 -7.863281 5.703125 -6.90625 C 5.703125 -5.957031 6 -5.179688 6.59375 -4.578125 C 7.1875 -3.972656 7.96875 -3.671875 8.9375 -3.671875 C 9.875 -3.671875 10.644531 -3.976562 11.25 -4.59375 C 11.851562 -5.207031 12.15625 -5.976562 12.15625 -6.90625 C 12.15625 -7.863281 11.84375 -8.644531 11.21875 -9.25 C 10.59375 -9.863281 9.832031 -10.171875 8.9375 -10.171875 C 8.019531 -10.171875 7.25 -9.863281 6.625 -9.25 Z M 6.625 -9.25 "/></g></g></g><g fill="#6da64a" fill-opacity="1"><g transform="translate(235.759307, 60.557638)"><g><path d="M 1.625 0 L 1.625 -13.84375 L 6.40625 -13.84375 L 6.40625 -11.859375 L 6.453125 -11.859375 C 6.484375 -11.929688 6.539062 -12.019531 6.625 -12.125 C 6.707031 -12.226562 6.882812 -12.414062 7.15625 -12.6875 C 7.425781 -12.957031 7.710938 -13.203125 8.015625 -13.421875 C 8.328125 -13.640625 8.722656 -13.832031 9.203125 -14 C 9.691406 -14.164062 10.1875 -14.25 10.6875 -14.25 C 11.207031 -14.25 11.71875 -14.175781 12.21875 -14.03125 C 12.726562 -13.894531 13.101562 -13.753906 13.34375 -13.609375 L 13.71875 -13.390625 L 11.71875 -9.34375 C 11.125 -9.84375 10.296875 -10.09375 9.234375 -10.09375 C 8.660156 -10.09375 8.164062 -9.96875 7.75 -9.71875 C 7.332031 -9.46875 7.035156 -9.160156 6.859375 -8.796875 C 6.691406 -8.441406 6.570312 -8.132812 6.5 -7.875 C 6.4375 -7.625 6.40625 -7.429688 6.40625 -7.296875 L 6.40625 0 Z M 1.625 0 "/></g></g></g><g fill="#6da64a" fill-opacity="1"><g transform="translate(247.883226, 60.557638)"><g><path d="M 2.5625 -1.703125 C 1.269531 -3.117188 0.625 -4.851562 0.625 -6.90625 C 0.625 -8.957031 1.269531 -10.691406 2.5625 -12.109375 C 3.863281 -13.535156 5.507812 -14.25 7.5 -14.25 C 9.34375 -14.25 10.859375 -13.675781 12.046875 -12.53125 L 12.046875 -13.84375 L 16.828125 -13.84375 L 16.828125 0 L 12.09375 0 L 12.09375 -1.5625 L 12.046875 -1.5625 C 10.859375 -0.25 9.34375 0.40625 7.5 0.40625 C 5.507812 0.40625 3.863281 -0.296875 2.5625 -1.703125 Z M 6.625 -9.25 C 6.007812 -8.644531 5.703125 -7.863281 5.703125 -6.90625 C 5.703125 -5.957031 6 -5.179688 6.59375 -4.578125 C 7.1875 -3.972656 7.96875 -3.671875 8.9375 -3.671875 C 9.875 -3.671875 10.644531 -3.976562 11.25 -4.59375 C 11.851562 -5.207031 12.15625 -5.976562 12.15625 -6.90625 C 12.15625 -7.863281 11.84375 -8.644531 11.21875 -9.25 C 10.59375 -9.863281 9.832031 -10.171875 8.9375 -10.171875 C 8.019531 -10.171875 7.25 -9.863281 6.625 -9.25 Z M 6.625 -9.25 "/></g></g></g><g fill="#6da64a" fill-opacity="1"><g transform="translate(265.002553, 60.557638)"><g><path d="M 2.5625 -1.703125 C 1.269531 -3.117188 0.625 -4.851562 0.625 -6.90625 C 0.625 -8.957031 1.269531 -10.691406 2.5625 -12.109375 C 3.863281 -13.535156 5.507812 -14.25 7.5 -14.25 C 9.34375 -14.25 10.859375 -13.675781 12.046875 -12.53125 L 12.046875 -23.21875 L 16.828125 -23.21875 L 16.828125 0 L 12.09375 0 L 12.09375 -1.5625 L 12.046875 -1.5625 C 10.859375 -0.25 9.34375 0.40625 7.5 0.40625 C 5.507812 0.40625 3.863281 -0.296875 2.5625 -1.703125 Z M 6.625 -9.25 C 6.007812 -8.644531 5.703125 -7.863281 5.703125 -6.90625 C 5.703125 -5.957031 6 -5.179688 6.59375 -4.578125 C 7.1875 -3.972656 7.96875 -3.671875 8.9375 -3.671875 C 9.875 -3.671875 10.644531 -3.976562 11.25 -4.59375 C 11.851562 -5.207031 12.15625 -5.976562 12.15625 -6.90625 C 12.15625 -7.863281 11.84375 -8.644531 11.21875 -9.25 C 10.59375 -9.863281 9.832031 -10.171875 8.9375 -10.171875 C 8.019531 -10.171875 7.25 -9.863281 6.625 -9.25 Z M 6.625 -9.25 "/></g></g></g><g fill="#6da64a" fill-opacity="1"><g transform="translate(282.121881, 60.557638)"><g><path d="M 15.640625 -6.265625 L 5.59375 -6.265625 C 5.59375 -5.296875 5.90625 -4.578125 6.53125 -4.109375 C 7.164062 -3.640625 7.851562 -3.40625 8.59375 -3.40625 C 9.363281 -3.40625 9.972656 -3.503906 10.421875 -3.703125 C 10.867188 -3.910156 11.382812 -4.320312 11.96875 -4.9375 L 15.421875 -3.21875 C 13.972656 -0.800781 11.578125 0.40625 8.234375 0.40625 C 6.148438 0.40625 4.359375 -0.304688 2.859375 -1.734375 C 1.367188 -3.171875 0.625 -4.894531 0.625 -6.90625 C 0.625 -8.925781 1.367188 -10.65625 2.859375 -12.09375 C 4.359375 -13.53125 6.148438 -14.25 8.234375 -14.25 C 10.429688 -14.25 12.21875 -13.613281 13.59375 -12.34375 C 14.96875 -11.082031 15.65625 -9.269531 15.65625 -6.90625 C 15.65625 -6.582031 15.648438 -6.367188 15.640625 -6.265625 Z M 5.71875 -8.90625 L 10.984375 -8.90625 C 10.878906 -9.625 10.597656 -10.175781 10.140625 -10.5625 C 9.679688 -10.957031 9.09375 -11.15625 8.375 -11.15625 C 7.582031 -11.15625 6.953125 -10.945312 6.484375 -10.53125 C 6.015625 -10.113281 5.757812 -9.570312 5.71875 -8.90625 Z M 5.71875 -8.90625 "/></g></g></g><g fill="#000000" fill-opacity="1"><g transform="translate(203.139183, 43.652111)"><g><path d="M 19.046875 -11.015625 C 19.023438 -10.921875 18.976562 -10.84375 18.90625 -10.78125 C 18.832031 -10.726562 18.753906 -10.703125 18.671875 -10.703125 C 18.546875 -10.703125 18.441406 -10.742188 18.359375 -10.828125 C 18.285156 -10.910156 18.25 -11.003906 18.25 -11.109375 C 18.25 -11.210938 18.257812 -11.3125 18.28125 -11.40625 C 18.300781 -11.507812 18.3125 -11.613281 18.3125 -11.71875 C 18.3125 -12.226562 18.15625 -12.6875 17.84375 -13.09375 C 17.53125 -13.5 17.082031 -13.835938 16.5 -14.109375 C 15.925781 -14.390625 15.226562 -14.601562 14.40625 -14.75 C 13.582031 -14.894531 12.660156 -14.96875 11.640625 -14.96875 C 10.867188 -14.96875 10.085938 -14.914062 9.296875 -14.8125 C 8.503906 -14.71875 7.742188 -14.570312 7.015625 -14.375 C 6.296875 -14.1875 5.617188 -13.945312 4.984375 -13.65625 C 4.359375 -13.363281 3.8125 -13.023438 3.34375 -12.640625 C 2.882812 -12.265625 2.519531 -11.84375 2.25 -11.375 C 1.988281 -10.90625 1.859375 -10.394531 1.859375 -9.84375 C 1.859375 -9.414062 1.953125 -9.039062 2.140625 -8.71875 C 2.328125 -8.394531 2.578125 -8.109375 2.890625 -7.859375 C 3.210938 -7.617188 3.59375 -7.410156 4.03125 -7.234375 C 4.46875 -7.066406 4.941406 -6.925781 5.453125 -6.8125 C 5.960938 -6.695312 6.492188 -6.601562 7.046875 -6.53125 C 7.609375 -6.457031 8.164062 -6.394531 8.71875 -6.34375 L 10.34375 -6.21875 C 11.144531 -6.144531 11.863281 -6.066406 12.5 -5.984375 C 13.132812 -5.910156 13.695312 -5.816406 14.1875 -5.703125 C 14.988281 -5.492188 15.582031 -5.203125 15.96875 -4.828125 C 16.351562 -4.453125 16.546875 -3.945312 16.546875 -3.3125 C 16.546875 -2.707031 16.375 -2.171875 16.03125 -1.703125 C 15.695312 -1.242188 15.238281 -0.859375 14.65625 -0.546875 C 14.082031 -0.234375 13.40625 0 12.625 0.15625 C 11.851562 0.320312 11.019531 0.40625 10.125 0.40625 C 9.164062 0.40625 8.316406 0.335938 7.578125 0.203125 C 6.847656 0.078125 6.234375 -0.0625 5.734375 -0.21875 C 5.242188 -0.375 4.867188 -0.515625 4.609375 -0.640625 C 4.359375 -0.773438 4.222656 -0.851562 4.203125 -0.875 C 4.078125 -0.9375 4.015625 -1.046875 4.015625 -1.203125 C 4.015625 -1.328125 4.054688 -1.425781 4.140625 -1.5 C 4.222656 -1.570312 4.3125 -1.609375 4.40625 -1.609375 C 4.488281 -1.609375 4.5625 -1.585938 4.625 -1.546875 C 4.625 -1.546875 4.738281 -1.484375 4.96875 -1.359375 C 5.207031 -1.234375 5.5625 -1.097656 6.03125 -0.953125 C 6.5 -0.804688 7.070312 -0.671875 7.75 -0.546875 C 8.4375 -0.429688 9.238281 -0.375 10.15625 -0.375 C 11.050781 -0.375 11.84375 -0.445312 12.53125 -0.59375 C 13.226562 -0.738281 13.8125 -0.941406 14.28125 -1.203125 C 14.757812 -1.472656 15.117188 -1.785156 15.359375 -2.140625 C 15.597656 -2.492188 15.71875 -2.875 15.71875 -3.28125 C 15.71875 -3.53125 15.675781 -3.742188 15.59375 -3.921875 C 15.507812 -4.097656 15.390625 -4.25 15.234375 -4.375 C 15.078125 -4.507812 14.890625 -4.617188 14.671875 -4.703125 C 14.460938 -4.796875 14.234375 -4.875 13.984375 -4.9375 C 13.710938 -5.007812 13.425781 -5.070312 13.125 -5.125 C 12.820312 -5.175781 12.507812 -5.21875 12.1875 -5.25 C 11.863281 -5.28125 11.539062 -5.3125 11.21875 -5.34375 C 10.894531 -5.375 10.570312 -5.398438 10.25 -5.421875 L 8.640625 -5.5625 C 7.367188 -5.664062 6.257812 -5.828125 5.3125 -6.046875 C 4.363281 -6.273438 3.570312 -6.5625 2.9375 -6.90625 C 2.3125 -7.25 1.835938 -7.660156 1.515625 -8.140625 C 1.203125 -8.628906 1.046875 -9.195312 1.046875 -9.84375 C 1.046875 -10.5 1.191406 -11.097656 1.484375 -11.640625 C 1.785156 -12.191406 2.191406 -12.6875 2.703125 -13.125 C 3.222656 -13.570312 3.828125 -13.957031 4.515625 -14.28125 C 5.203125 -14.601562 5.9375 -14.875 6.71875 -15.09375 C 7.507812 -15.3125 8.320312 -15.472656 9.15625 -15.578125 C 10 -15.691406 10.828125 -15.75 11.640625 -15.75 C 12.660156 -15.75 13.546875 -15.6875 14.296875 -15.5625 C 15.046875 -15.4375 15.6875 -15.273438 16.21875 -15.078125 C 16.757812 -14.890625 17.203125 -14.671875 17.546875 -14.421875 C 17.890625 -14.179688 18.164062 -13.941406 18.375 -13.703125 C 18.863281 -13.128906 19.109375 -12.46875 19.109375 -11.71875 C 19.109375 -11.476562 19.085938 -11.242188 19.046875 -11.015625 Z M 19.046875 -11.015625 "/></g></g></g><g fill="#000000" fill-opacity="1"><g transform="translate(220.779442, 43.652111)"><g><path d="M 1.234375 -0.890625 C 1.335938 -1.128906 1.460938 -1.382812 1.609375 -1.65625 C 1.765625 -1.9375 1.925781 -2.222656 2.09375 -2.515625 C 2.257812 -2.804688 2.4375 -3.09375 2.625 -3.375 C 2.8125 -3.664062 3.007812 -3.9375 3.21875 -4.1875 C 3.414062 -4.4375 3.617188 -4.613281 3.828125 -4.71875 C 4.035156 -4.820312 4.226562 -4.875 4.40625 -4.875 C 4.59375 -4.875 4.753906 -4.835938 4.890625 -4.765625 C 5.023438 -4.691406 5.132812 -4.59375 5.21875 -4.46875 C 5.3125 -4.34375 5.378906 -4.195312 5.421875 -4.03125 C 5.460938 -3.863281 5.484375 -3.679688 5.484375 -3.484375 C 5.484375 -3.328125 5.46875 -3.113281 5.4375 -2.84375 C 5.40625 -2.570312 5.390625 -2.289062 5.390625 -2 C 5.390625 -1.832031 5.398438 -1.664062 5.421875 -1.5 C 5.441406 -1.332031 5.472656 -1.179688 5.515625 -1.046875 C 5.554688 -0.921875 5.625 -0.816406 5.71875 -0.734375 C 5.8125 -0.660156 5.929688 -0.625 6.078125 -0.625 C 6.242188 -0.625 6.410156 -0.671875 6.578125 -0.765625 C 6.742188 -0.859375 6.90625 -0.984375 7.0625 -1.140625 C 7.226562 -1.296875 7.382812 -1.46875 7.53125 -1.65625 C 7.6875 -1.851562 7.820312 -2.046875 7.9375 -2.234375 C 8.050781 -2.429688 8.15625 -2.617188 8.25 -2.796875 C 8.34375 -2.972656 8.414062 -3.125 8.46875 -3.25 C 8.539062 -3.40625 8.664062 -3.484375 8.84375 -3.484375 C 8.957031 -3.484375 9.050781 -3.441406 9.125 -3.359375 C 9.195312 -3.273438 9.234375 -3.1875 9.234375 -3.09375 C 9.234375 -3.03125 9.222656 -2.972656 9.203125 -2.921875 C 9.171875 -2.867188 9.113281 -2.753906 9.03125 -2.578125 C 8.945312 -2.398438 8.835938 -2.195312 8.703125 -1.96875 C 8.566406 -1.738281 8.40625 -1.5 8.21875 -1.25 C 8.039062 -1 7.84375 -0.765625 7.625 -0.546875 C 7.40625 -0.335938 7.164062 -0.164062 6.90625 -0.03125 C 6.65625 0.101562 6.390625 0.171875 6.109375 0.171875 C 5.785156 0.171875 5.523438 0.101562 5.328125 -0.03125 C 5.140625 -0.164062 4.988281 -0.335938 4.875 -0.546875 C 4.769531 -0.753906 4.695312 -0.988281 4.65625 -1.25 C 4.613281 -1.507812 4.59375 -1.757812 4.59375 -2 C 4.59375 -2.125 4.597656 -2.257812 4.609375 -2.40625 C 4.617188 -2.550781 4.628906 -2.691406 4.640625 -2.828125 C 4.660156 -2.972656 4.675781 -3.101562 4.6875 -3.21875 C 4.695312 -3.34375 4.703125 -3.445312 4.703125 -3.53125 C 4.703125 -3.75 4.671875 -3.894531 4.609375 -3.96875 C 4.554688 -4.050781 4.488281 -4.09375 4.40625 -4.09375 C 4.289062 -4.09375 4.160156 -4.023438 4.015625 -3.890625 C 3.878906 -3.765625 3.734375 -3.597656 3.578125 -3.390625 C 3.421875 -3.179688 3.257812 -2.941406 3.09375 -2.671875 C 2.9375 -2.410156 2.785156 -2.148438 2.640625 -1.890625 C 2.492188 -1.640625 2.359375 -1.394531 2.234375 -1.15625 C 2.117188 -0.925781 2.023438 -0.734375 1.953125 -0.578125 C 1.804688 -0.285156 1.65625 -0.0859375 1.5 0.015625 C 1.351562 0.117188 1.222656 0.171875 1.109375 0.171875 C 0.890625 0.171875 0.722656 0.0859375 0.609375 -0.078125 C 0.492188 -0.253906 0.4375 -0.46875 0.4375 -0.71875 L 0.4375 -1.375 C 0.4375 -2.695312 0.4375 -3.957031 0.4375 -5.15625 C 0.4375 -6.351562 0.453125 -7.46875 0.484375 -8.5 C 0.515625 -9.539062 0.566406 -10.476562 0.640625 -11.3125 C 0.710938 -12.144531 0.820312 -12.859375 0.96875 -13.453125 C 1.125 -14.046875 1.3125 -14.503906 1.53125 -14.828125 C 1.757812 -15.148438 2.046875 -15.3125 2.390625 -15.3125 C 2.679688 -15.3125 2.925781 -15.226562 3.125 -15.0625 C 3.332031 -14.90625 3.5 -14.6875 3.625 -14.40625 C 3.757812 -14.132812 3.851562 -13.8125 3.90625 -13.4375 C 3.957031 -13.070312 3.984375 -12.6875 3.984375 -12.28125 C 3.984375 -11.457031 3.90625 -10.644531 3.75 -9.84375 C 3.601562 -9.050781 3.40625 -8.273438 3.15625 -7.515625 C 2.90625 -6.765625 2.613281 -6.03125 2.28125 -5.3125 C 1.945312 -4.59375 1.59375 -3.894531 1.21875 -3.21875 C 1.21875 -3.09375 1.21875 -2.941406 1.21875 -2.765625 C 1.21875 -2.597656 1.21875 -2.425781 1.21875 -2.25 C 1.21875 -2.070312 1.21875 -1.90625 1.21875 -1.75 C 1.21875 -1.59375 1.21875 -1.472656 1.21875 -1.390625 Z M 1.234375 -4.765625 C 1.523438 -5.410156 1.789062 -6.035156 2.03125 -6.640625 C 2.269531 -7.253906 2.472656 -7.863281 2.640625 -8.46875 C 2.816406 -9.082031 2.953125 -9.703125 3.046875 -10.328125 C 3.148438 -10.960938 3.203125 -11.617188 3.203125 -12.296875 C 3.203125 -12.410156 3.195312 -12.585938 3.1875 -12.828125 C 3.175781 -13.078125 3.144531 -13.328125 3.09375 -13.578125 C 3.039062 -13.828125 2.957031 -14.046875 2.84375 -14.234375 C 2.738281 -14.421875 2.585938 -14.515625 2.390625 -14.515625 C 2.234375 -14.515625 2.097656 -14.410156 1.984375 -14.203125 C 1.878906 -14.003906 1.785156 -13.726562 1.703125 -13.375 C 1.617188 -13.019531 1.546875 -12.609375 1.484375 -12.140625 C 1.429688 -11.671875 1.382812 -11.171875 1.34375 -10.640625 C 1.3125 -10.117188 1.285156 -9.582031 1.265625 -9.03125 C 1.253906 -8.476562 1.242188 -7.941406 1.234375 -7.421875 C 1.234375 -6.898438 1.234375 -6.410156 1.234375 -5.953125 C 1.234375 -5.492188 1.234375 -5.097656 1.234375 -4.765625 Z M 1.234375 -4.765625 "/></g></g></g><g fill="#000000" fill-opacity="1"><g transform="translate(228.849256, 43.652111)"><g><path d="M 5.234375 -1.15625 C 5.054688 -1.15625 4.90625 -1.171875 4.78125 -1.203125 C 4.675781 -0.984375 4.546875 -0.785156 4.390625 -0.609375 C 4.242188 -0.429688 4.070312 -0.273438 3.875 -0.140625 C 3.6875 -0.015625 3.472656 0.0820312 3.234375 0.15625 C 3.003906 0.238281 2.75 0.28125 2.46875 0.28125 C 2.132812 0.28125 1.832031 0.222656 1.5625 0.109375 C 1.289062 -0.00390625 1.050781 -0.164062 0.84375 -0.375 C 0.644531 -0.582031 0.488281 -0.828125 0.375 -1.109375 C 0.257812 -1.398438 0.203125 -1.722656 0.203125 -2.078125 C 0.203125 -2.523438 0.28125 -2.914062 0.4375 -3.25 C 0.601562 -3.582031 0.789062 -3.859375 1 -4.078125 C 1.21875 -4.296875 1.429688 -4.457031 1.640625 -4.5625 C 1.847656 -4.675781 2.003906 -4.734375 2.109375 -4.734375 C 2.222656 -4.734375 2.3125 -4.703125 2.375 -4.640625 C 2.4375 -4.578125 2.46875 -4.492188 2.46875 -4.390625 C 2.46875 -4.265625 2.429688 -4.171875 2.359375 -4.109375 C 2.285156 -4.054688 2.191406 -4.003906 2.078125 -3.953125 C 1.960938 -3.890625 1.84375 -3.804688 1.71875 -3.703125 C 1.59375 -3.609375 1.472656 -3.484375 1.359375 -3.328125 C 1.253906 -3.171875 1.164062 -2.988281 1.09375 -2.78125 C 1.03125 -2.570312 1 -2.335938 1 -2.078125 C 1 -1.847656 1.03125 -1.632812 1.09375 -1.4375 C 1.164062 -1.238281 1.269531 -1.066406 1.40625 -0.921875 C 1.539062 -0.773438 1.695312 -0.660156 1.875 -0.578125 C 2.0625 -0.503906 2.265625 -0.46875 2.484375 -0.46875 C 2.890625 -0.46875 3.222656 -0.554688 3.484375 -0.734375 C 3.742188 -0.921875 3.941406 -1.160156 4.078125 -1.453125 C 3.671875 -1.671875 3.332031 -1.976562 3.0625 -2.375 C 2.800781 -2.769531 2.671875 -3.21875 2.671875 -3.71875 C 2.671875 -4.113281 2.765625 -4.4375 2.953125 -4.6875 C 3.148438 -4.945312 3.40625 -5.078125 3.71875 -5.078125 C 3.90625 -5.078125 4.082031 -5.03125 4.25 -4.9375 C 4.414062 -4.84375 4.5625 -4.695312 4.6875 -4.5 C 4.820312 -4.300781 4.925781 -4.046875 5 -3.734375 C 5.082031 -3.429688 5.125 -3.066406 5.125 -2.640625 C 5.125 -2.421875 5.097656 -2.1875 5.046875 -1.9375 C 5.085938 -1.9375 5.128906 -1.9375 5.171875 -1.9375 C 5.210938 -1.9375 5.253906 -1.9375 5.296875 -1.9375 C 5.535156 -1.9375 5.75 -1.960938 5.9375 -2.015625 C 6.125 -2.066406 6.296875 -2.148438 6.453125 -2.265625 C 6.609375 -2.378906 6.75 -2.519531 6.875 -2.6875 C 7 -2.863281 7.113281 -3.070312 7.21875 -3.3125 C 7.238281 -3.351562 7.285156 -3.390625 7.359375 -3.421875 C 7.429688 -3.460938 7.5 -3.484375 7.5625 -3.484375 C 7.65625 -3.484375 7.742188 -3.445312 7.828125 -3.375 C 7.910156 -3.300781 7.953125 -3.207031 7.953125 -3.09375 C 7.953125 -3.03125 7.9375 -2.960938 7.90625 -2.890625 C 7.875 -2.828125 7.847656 -2.769531 7.828125 -2.71875 C 7.703125 -2.507812 7.5625 -2.304688 7.40625 -2.109375 C 7.25 -1.921875 7.0625 -1.753906 6.84375 -1.609375 C 6.632812 -1.460938 6.394531 -1.347656 6.125 -1.265625 C 5.863281 -1.179688 5.566406 -1.144531 5.234375 -1.15625 Z M 3.4375 -3.796875 C 3.4375 -3.660156 3.453125 -3.519531 3.484375 -3.375 C 3.523438 -3.226562 3.582031 -3.082031 3.65625 -2.9375 C 3.726562 -2.800781 3.816406 -2.664062 3.921875 -2.53125 C 4.035156 -2.40625 4.164062 -2.296875 4.3125 -2.203125 C 4.332031 -2.347656 4.34375 -2.492188 4.34375 -2.640625 C 4.34375 -2.828125 4.328125 -3.015625 4.296875 -3.203125 C 4.273438 -3.398438 4.238281 -3.582031 4.1875 -3.75 C 4.132812 -3.914062 4.066406 -4.046875 3.984375 -4.140625 C 3.910156 -4.242188 3.820312 -4.296875 3.71875 -4.296875 C 3.675781 -4.296875 3.617188 -4.265625 3.546875 -4.203125 C 3.472656 -4.140625 3.4375 -4.003906 3.4375 -3.796875 Z M 3.4375 -3.796875 "/></g></g></g><g fill="#000000" fill-opacity="1"><g transform="translate(235.638815, 43.652111)"><g><path d="M 5.78125 -2.921875 C 5.78125 -2.285156 5.664062 -1.738281 5.4375 -1.28125 C 5.207031 -0.820312 4.925781 -0.472656 4.59375 -0.234375 L 4.625 -0.234375 C 5.039062 -0.234375 5.414062 -0.328125 5.75 -0.515625 C 6.09375 -0.703125 6.398438 -0.941406 6.671875 -1.234375 C 6.953125 -1.523438 7.195312 -1.847656 7.40625 -2.203125 C 7.625 -2.554688 7.816406 -2.90625 7.984375 -3.25 C 8.023438 -3.320312 8.078125 -3.378906 8.140625 -3.421875 C 8.203125 -3.460938 8.273438 -3.484375 8.359375 -3.484375 C 8.472656 -3.484375 8.566406 -3.441406 8.640625 -3.359375 C 8.710938 -3.273438 8.75 -3.1875 8.75 -3.09375 C 8.75 -3.03125 8.738281 -2.972656 8.71875 -2.921875 C 8.53125 -2.515625 8.3125 -2.109375 8.0625 -1.703125 C 7.8125 -1.296875 7.515625 -0.925781 7.171875 -0.59375 C 6.835938 -0.269531 6.460938 -0.00390625 6.046875 0.203125 C 5.628906 0.410156 5.164062 0.515625 4.65625 0.515625 C 4.28125 0.515625 3.914062 0.457031 3.5625 0.34375 C 3.21875 0.226562 2.910156 0.046875 2.640625 -0.203125 C 2.546875 -0.273438 2.460938 -0.351562 2.390625 -0.4375 C 2.316406 -0.53125 2.257812 -0.613281 2.21875 -0.6875 C 2.207031 -0.707031 2.203125 -0.722656 2.203125 -0.734375 C 2.160156 -0.796875 2.140625 -0.863281 2.140625 -0.9375 C 2.140625 -1.03125 2.171875 -1.113281 2.234375 -1.1875 C 2.242188 -1.195312 2.25 -1.203125 2.25 -1.203125 C 2.257812 -1.210938 2.269531 -1.222656 2.28125 -1.234375 C 2.351562 -1.296875 2.429688 -1.328125 2.515625 -1.328125 L 2.546875 -1.328125 C 2.578125 -1.328125 2.597656 -1.328125 2.609375 -1.328125 C 2.617188 -1.328125 2.625 -1.320312 2.625 -1.3125 C 2.632812 -1.3125 2.640625 -1.3125 2.640625 -1.3125 C 2.660156 -1.3125 2.6875 -1.304688 2.71875 -1.296875 C 2.726562 -1.285156 2.734375 -1.28125 2.734375 -1.28125 C 2.796875 -1.238281 2.847656 -1.1875 2.890625 -1.125 C 2.941406 -1.039062 3 -0.960938 3.0625 -0.890625 C 3.125 -0.835938 3.191406 -0.785156 3.265625 -0.734375 C 3.335938 -0.691406 3.425781 -0.671875 3.53125 -0.671875 C 3.707031 -0.671875 3.878906 -0.722656 4.046875 -0.828125 C 4.222656 -0.929688 4.378906 -1.082031 4.515625 -1.28125 C 4.660156 -1.476562 4.773438 -1.71875 4.859375 -2 C 4.953125 -2.28125 5 -2.585938 5 -2.921875 C 5 -3.179688 4.972656 -3.398438 4.921875 -3.578125 C 4.867188 -3.753906 4.800781 -3.894531 4.71875 -4 C 4.632812 -4.113281 4.546875 -4.195312 4.453125 -4.25 C 4.367188 -4.300781 4.285156 -4.328125 4.203125 -4.328125 C 4.015625 -4.328125 3.820312 -4.226562 3.625 -4.03125 C 3.4375 -3.84375 3.242188 -3.597656 3.046875 -3.296875 C 2.859375 -2.992188 2.671875 -2.660156 2.484375 -2.296875 C 2.304688 -1.929688 2.125 -1.578125 1.9375 -1.234375 C 1.914062 -0.0976562 1.894531 0.976562 1.875 2 C 1.851562 3.03125 1.8125 3.984375 1.75 4.859375 C 1.6875 5.742188 1.601562 6.539062 1.5 7.25 C 1.394531 7.96875 1.25 8.582031 1.0625 9.09375 C 0.882812 9.601562 0.660156 9.992188 0.390625 10.265625 C 0.128906 10.535156 -0.191406 10.671875 -0.578125 10.671875 C -0.691406 10.671875 -0.828125 10.644531 -0.984375 10.59375 C -1.140625 10.550781 -1.28125 10.453125 -1.40625 10.296875 C -1.539062 10.148438 -1.65625 9.9375 -1.75 9.65625 C -1.84375 9.375 -1.890625 9 -1.890625 8.53125 C -1.890625 7.9375 -1.816406 7.25 -1.671875 6.46875 C -1.523438 5.6875 -1.316406 4.851562 -1.046875 3.96875 C -0.773438 3.09375 -0.453125 2.191406 -0.078125 1.265625 C 0.285156 0.347656 0.691406 -0.546875 1.140625 -1.421875 C 1.140625 -1.671875 1.140625 -1.914062 1.140625 -2.15625 C 1.148438 -2.394531 1.15625 -2.625 1.15625 -2.84375 C 1.0625 -2.738281 0.953125 -2.6875 0.828125 -2.6875 C 0.710938 -2.6875 0.617188 -2.726562 0.546875 -2.8125 C 0.472656 -2.894531 0.4375 -2.988281 0.4375 -3.09375 C 0.4375 -3.132812 0.445312 -3.1875 0.46875 -3.25 C 0.632812 -3.632812 0.765625 -4 0.859375 -4.34375 C 0.953125 -4.6875 1.019531 -4.988281 1.0625 -5.25 C 1.113281 -5.507812 1.140625 -5.71875 1.140625 -5.875 C 1.148438 -6.03125 1.15625 -6.113281 1.15625 -6.125 C 1.15625 -6.226562 1.191406 -6.316406 1.265625 -6.390625 C 1.347656 -6.472656 1.441406 -6.515625 1.546875 -6.515625 C 1.660156 -6.515625 1.753906 -6.472656 1.828125 -6.390625 C 1.898438 -6.316406 1.9375 -6.226562 1.9375 -6.125 L 1.9375 -2.890625 C 2.101562 -3.171875 2.265625 -3.441406 2.421875 -3.703125 C 2.585938 -3.972656 2.757812 -4.210938 2.9375 -4.421875 C 3.113281 -4.628906 3.304688 -4.796875 3.515625 -4.921875 C 3.722656 -5.054688 3.953125 -5.125 4.203125 -5.125 C 4.441406 -5.125 4.65625 -5.066406 4.84375 -4.953125 C 5.039062 -4.835938 5.207031 -4.679688 5.34375 -4.484375 C 5.488281 -4.296875 5.597656 -4.066406 5.671875 -3.796875 C 5.742188 -3.523438 5.78125 -3.234375 5.78125 -2.921875 Z M 1.125 0.4375 C 0.78125 1.207031 0.46875 1.976562 0.1875 2.75 C -0.0820312 3.53125 -0.3125 4.28125 -0.5 5 C -0.695312 5.726562 -0.847656 6.40625 -0.953125 7.03125 C -1.054688 7.664062 -1.109375 8.21875 -1.109375 8.6875 C -1.109375 8.8125 -1.101562 8.941406 -1.09375 9.078125 C -1.082031 9.222656 -1.050781 9.351562 -1 9.46875 C -0.957031 9.582031 -0.898438 9.679688 -0.828125 9.765625 C -0.753906 9.847656 -0.65625 9.890625 -0.53125 9.890625 C -0.289062 9.890625 -0.0859375 9.742188 0.078125 9.453125 C 0.242188 9.160156 0.382812 8.765625 0.5 8.265625 C 0.613281 7.773438 0.707031 7.207031 0.78125 6.5625 C 0.863281 5.925781 0.925781 5.257812 0.96875 4.5625 C 1.019531 3.863281 1.054688 3.160156 1.078125 2.453125 C 1.097656 1.742188 1.113281 1.070312 1.125 0.4375 Z M 1.125 0.4375 "/></g></g></g></svg>