<svg xmlns="http://www.w3.org/2000/svg" xmlns:xlink="http://www.w3.org/1999/xlink" width="1920" zoomAndPan="magnify" viewBox="0 0 1440 809.999993" height="1080" preserveAspectRatio="xMidYMid meet" version="1.0"><defs><filter x="0%" y="0%" width="100%" height="100%" id="bb1402b6a3"><feColorMatrix values="0 0 0 0 1 0 0 0 0 1 0 0 0 0 1 0 0 0 1 0" color-interpolation-filters="sRGB"/></filter><g/><mask id="312c150b44"><g filter="url(#bb1402b6a3)"><rect x="-144" width="1728" fill="#000000" y="-80.999999" height="971.999992" fill-opacity="0.149"/></g></mask><clipPath id="78fb49bb7f"><path d="M 250 255 L 952 255 L 952 810 L 250 810 Z M 250 255 " clip-rule="nonzero"/></clipPath><clipPath id="9af31ddae3"><path d="M -1.414062 736.554688 L 549.117188 -113.195312 L 1244.652344 337.421875 L 694.121094 1187.171875 Z M -1.414062 736.554688 " clip-rule="nonzero"/></clipPath><clipPath id="a17f74fc22"><path d="M -1.414062 736.554688 L 549.117188 -113.195312 L 1244.652344 337.421875 L 694.121094 1187.171875 Z M -1.414062 736.554688 " clip-rule="nonzero"/></clipPath><clipPath id="17101374dc"><rect x="0" width="952" y="0" height="810"/></clipPath><mask id="fcc320c683"><g filter="url(#bb1402b6a3)"><rect x="-144" width="1728" fill="#000000" y="-80.999999" height="971.999992" fill-opacity="0.1765"/></g></mask><clipPath id="c61f4876ea"><path d="M 0 0 L 711 0 L 711 579 L 0 579 Z M 0 0 " clip-rule="nonzero"/></clipPath><clipPath id="afe4b904af"><path d="M 982.503906 60.167969 L 390 976.554688 L -359.488281 491.964844 L 233.019531 -424.421875 Z M 982.503906 60.167969 " clip-rule="nonzero"/></clipPath><clipPath id="bcdf556746"><path d="M 982.503906 60.167969 L 390 976.554688 L -359.488281 491.964844 L 233.019531 -424.421875 Z M 982.503906 60.167969 " clip-rule="nonzero"/></clipPath><clipPath id="2922e34050"><rect x="0" width="980" y="0" height="810"/></clipPath></defs><rect x="-144" width="1728" fill="#ffffff" y="-80.999999" height="971.999992" fill-opacity="1"/><rect x="-144" width="1728" fill="#ffffff" y="-80.999999" height="971.999992" fill-opacity="1"/><rect x="-144" width="1728" fill="#ffffff" y="-80.999999" height="971.999992" fill-opacity="1"/><g mask="url(#312c150b44)"><g transform="matrix(1, 0, 0, 1, 488, 0.000000000000039746)"><g clip-path="url(#17101374dc)"><g clip-path="url(#78fb49bb7f)"><g clip-path="url(#9af31ddae3)"><g clip-path="url(#a17f74fc22)"><path fill="#3e4044" d="M 771.132812 1068.09375 C 744.484375 1109.222656 694.527344 1134.539062 646.8125 1131.085938 C 603.273438 1127.949219 567.15625 1101.890625 547.714844 1059.601562 L 263.265625 441.222656 C 244.199219 399.765625 247.234375 352.765625 271.382812 315.492188 C 295.550781 278.1875 337.25 255.9375 382.9375 255.957031 L 1067.722656 256.4375 C 1114.265625 256.460938 1152.847656 278.414062 1173.617188 316.625 C 1196.511719 358.75 1193.820312 414.902344 1166.964844 456.363281 C 1166.964844 456.363281 1166.964844 456.363281 1166.949219 456.382812 C 1143.414062 492.710938 1104.140625 513.546875 1059.246094 513.507812 L 579.4375 513.199219 L 778.597656 946.160156 C 797.476562 987.207031 794.746094 1031.644531 771.132812 1068.09375 Z M 332.085938 354.820312 C 321.320312 371.4375 320.183594 391.933594 328.96875 411.03125 L 613.410156 1029.402344 C 621.859375 1047.785156 634.855469 1057.730469 652.007812 1058.972656 C 673.515625 1060.523438 698.078125 1047.824219 710.425781 1028.765625 C 720.734375 1012.851562 721.558594 995.21875 712.898438 976.355469 L 466.546875 440.828125 L 1059.257812 441.21875 C 1080.035156 441.222656 1095.847656 433.089844 1106.25 417.035156 C 1118.738281 397.757812 1120.359375 370.046875 1110.074219 351.128906 C 1102.015625 336.292969 1087.75 328.757812 1067.6875 328.746094 L 382.914062 328.269531 C 361.554688 328.257812 343.027344 337.929688 332.085938 354.820312 Z M 332.085938 354.820312 " fill-opacity="1" fill-rule="nonzero"/></g></g></g></g></g></g><g mask="url(#fcc320c683)"><g transform="matrix(1, 0, 0, 1, 0, 0.000000000000039746)"><g clip-path="url(#2922e34050)"><g clip-path="url(#c61f4876ea)"><g clip-path="url(#afe4b904af)"><g clip-path="url(#bcdf556746)"><path fill="#6da640" d="M 150.136719 -296.003906 C 178.8125 -340.359375 232.609375 -367.707031 284.007812 -364.050781 C 330.910156 -360.730469 369.832031 -332.703125 390.796875 -287.160156 L 697.574219 378.761719 C 718.136719 423.40625 714.898438 474.054688 688.910156 514.25 C 662.898438 554.480469 617.992188 578.511719 568.78125 578.554688 L -168.851562 578.976562 C -218.984375 579.019531 -260.5625 555.417969 -282.957031 514.269531 C -307.644531 468.910156 -304.78125 408.402344 -275.871094 363.695312 C -275.871094 363.695312 -275.871094 363.695312 -275.859375 363.671875 C -250.527344 324.492188 -208.238281 301.992188 -159.875 301.96875 L 356.960938 301.640625 L 142.167969 -164.609375 C 121.804688 -208.8125 124.71875 -256.699219 150.136719 -296.003906 Z M 623.496094 471.957031 C 635.082031 454.035156 636.296875 431.949219 626.820312 411.386719 L 320.050781 -254.53125 C 310.941406 -274.328125 296.9375 -285.023438 278.457031 -286.339844 C 255.289062 -287.984375 228.835938 -274.261719 215.550781 -253.710938 C 204.453125 -236.550781 203.578125 -217.546875 212.917969 -197.234375 L 478.605469 379.464844 L -159.847656 379.863281 C -182.226562 379.886719 -199.257812 388.671875 -210.453125 405.988281 C -223.890625 426.773438 -225.621094 456.636719 -214.53125 477.003906 C -205.839844 492.980469 -190.46875 501.078125 -168.859375 501.0625 L 568.757812 500.636719 C 591.769531 500.617188 611.71875 490.171875 623.496094 471.957031 Z M 623.496094 471.957031 " fill-opacity="1" fill-rule="nonzero"/></g></g></g></g></g></g><g fill="#6da64a" fill-opacity="1"><g transform="translate(643.320462, 774.117435)"><g><path d="M 24.859375 -29.546875 L 24.859375 -10.5 C 24.859375 -6.863281 23.878906 -4.113281 21.921875 -2.25 C 19.960938 -0.394531 17.09375 0.53125 13.3125 0.53125 C 9.539062 0.53125 6.675781 -0.394531 4.71875 -2.25 C 2.769531 -4.113281 1.796875 -6.863281 1.796875 -10.5 L 1.796875 -29.546875 L 8.515625 -29.546875 L 8.515625 -12.46875 C 8.515625 -10.070312 8.890625 -8.410156 9.640625 -7.484375 C 10.398438 -6.554688 11.625 -6.09375 13.3125 -6.09375 C 15.007812 -6.09375 16.234375 -6.554688 16.984375 -7.484375 C 17.742188 -8.410156 18.125 -10.070312 18.125 -12.46875 L 18.125 -29.546875 Z M 24.859375 -29.546875 "/></g></g></g><g fill="#6da64a" fill-opacity="1"><g transform="translate(668.205694, 774.117435)"><g><path d="M 21.0625 -16.09375 C 22.78125 -14.21875 23.640625 -11.921875 23.640625 -9.203125 C 23.640625 -6.484375 22.78125 -4.179688 21.0625 -2.296875 C 19.34375 -0.410156 17.15625 0.53125 14.5 0.53125 C 12.0625 0.53125 10.054688 -0.226562 8.484375 -1.75 L 8.484375 9.3125 L 2.15625 9.3125 L 2.15625 -18.375 L 8.421875 -18.375 L 8.421875 -16.296875 L 8.484375 -16.296875 C 10.054688 -18.035156 12.0625 -18.90625 14.5 -18.90625 C 17.15625 -18.90625 19.34375 -17.96875 21.0625 -16.09375 Z M 15.671875 -6.09375 C 16.492188 -6.90625 16.90625 -7.941406 16.90625 -9.203125 C 16.90625 -10.472656 16.507812 -11.503906 15.71875 -12.296875 C 14.9375 -13.097656 13.898438 -13.5 12.609375 -13.5 C 11.367188 -13.5 10.347656 -13.09375 9.546875 -12.28125 C 8.742188 -11.46875 8.34375 -10.441406 8.34375 -9.203125 C 8.34375 -7.941406 8.753906 -6.90625 9.578125 -6.09375 C 10.398438 -5.28125 11.410156 -4.875 12.609375 -4.875 C 13.828125 -4.875 14.847656 -5.28125 15.671875 -6.09375 Z M 15.671875 -6.09375 "/></g></g></g><g fill="#6da64a" fill-opacity="1"><g transform="translate(690.906743, 774.117435)"><g><path d="M 1.328125 4.515625 L 6.515625 1.96875 C 7.472656 3.539062 9.132812 4.328125 11.5 4.328125 C 12.59375 4.328125 13.609375 3.972656 14.546875 3.265625 C 15.492188 2.566406 15.96875 1.488281 15.96875 0.03125 L 15.96875 -1.328125 C 14.851562 -0.0859375 12.847656 0.53125 9.953125 0.53125 C 7.304688 0.53125 5.125 -0.398438 3.40625 -2.265625 C 1.6875 -4.140625 0.828125 -6.4375 0.828125 -9.15625 C 0.828125 -11.882812 1.6875 -14.191406 3.40625 -16.078125 C 5.125 -17.960938 7.304688 -18.90625 9.953125 -18.90625 C 12.316406 -18.90625 14.285156 -18.175781 15.859375 -16.71875 L 15.96875 -16.71875 L 15.96875 -18.375 L 22.3125 -18.375 L 22.3125 0.5 C 22.3125 3.488281 21.316406 5.789062 19.328125 7.40625 C 17.347656 9.03125 14.738281 9.84375 11.5 9.84375 C 6.238281 9.84375 2.847656 8.066406 1.328125 4.515625 Z M 8.796875 -12.28125 C 7.972656 -11.46875 7.5625 -10.425781 7.5625 -9.15625 C 7.5625 -7.894531 7.953125 -6.863281 8.734375 -6.0625 C 9.523438 -5.269531 10.566406 -4.875 11.859375 -4.875 C 13.097656 -4.875 14.113281 -5.28125 14.90625 -6.09375 C 15.707031 -6.90625 16.109375 -7.929688 16.109375 -9.171875 C 16.109375 -10.429688 15.695312 -11.46875 14.875 -12.28125 C 14.050781 -13.09375 13.046875 -13.5 11.859375 -13.5 C 10.640625 -13.5 9.617188 -13.09375 8.796875 -12.28125 Z M 8.796875 -12.28125 "/></g></g></g><g fill="#6da64a" fill-opacity="1"><g transform="translate(713.607794, 774.117435)"><g><path d="M 2.15625 0 L 2.15625 -18.375 L 8.484375 -18.375 L 8.484375 -15.71875 L 8.5625 -15.71875 C 8.601562 -15.8125 8.675781 -15.929688 8.78125 -16.078125 C 8.894531 -16.222656 9.128906 -16.472656 9.484375 -16.828125 C 9.847656 -17.191406 10.234375 -17.515625 10.640625 -17.796875 C 11.046875 -18.085938 11.566406 -18.34375 12.203125 -18.5625 C 12.847656 -18.789062 13.507812 -18.90625 14.1875 -18.90625 C 14.875 -18.90625 15.550781 -18.8125 16.21875 -18.625 C 16.882812 -18.4375 17.375 -18.242188 17.6875 -18.046875 L 18.1875 -17.765625 L 15.546875 -12.390625 C 14.753906 -13.054688 13.65625 -13.390625 12.25 -13.390625 C 11.488281 -13.390625 10.832031 -13.222656 10.28125 -12.890625 C 9.726562 -12.554688 9.335938 -12.148438 9.109375 -11.671875 C 8.890625 -11.191406 8.726562 -10.785156 8.625 -10.453125 C 8.53125 -10.117188 8.484375 -9.859375 8.484375 -9.671875 L 8.484375 0 Z M 2.15625 0 "/></g></g></g><g fill="#6da64a" fill-opacity="1"><g transform="translate(729.68469, 774.117435)"><g><path d="M 3.40625 -2.265625 C 1.6875 -4.140625 0.828125 -6.4375 0.828125 -9.15625 C 0.828125 -11.882812 1.6875 -14.191406 3.40625 -16.078125 C 5.125 -17.960938 7.304688 -18.90625 9.953125 -18.90625 C 12.390625 -18.90625 14.394531 -18.140625 15.96875 -16.609375 L 15.96875 -18.375 L 22.3125 -18.375 L 22.3125 0 L 16.046875 0 L 16.046875 -2.078125 L 15.96875 -2.078125 C 14.394531 -0.335938 12.390625 0.53125 9.953125 0.53125 C 7.304688 0.53125 5.125 -0.398438 3.40625 -2.265625 Z M 8.796875 -12.28125 C 7.972656 -11.46875 7.5625 -10.425781 7.5625 -9.15625 C 7.5625 -7.894531 7.953125 -6.863281 8.734375 -6.0625 C 9.523438 -5.269531 10.566406 -4.875 11.859375 -4.875 C 13.097656 -4.875 14.113281 -5.28125 14.90625 -6.09375 C 15.707031 -6.90625 16.109375 -7.929688 16.109375 -9.171875 C 16.109375 -10.429688 15.695312 -11.46875 14.875 -12.28125 C 14.050781 -13.09375 13.046875 -13.5 11.859375 -13.5 C 10.640625 -13.5 9.617188 -13.09375 8.796875 -12.28125 Z M 8.796875 -12.28125 "/></g></g></g><g fill="#6da64a" fill-opacity="1"><g transform="translate(752.385736, 774.117435)"><g><path d="M 3.40625 -2.265625 C 1.6875 -4.140625 0.828125 -6.4375 0.828125 -9.15625 C 0.828125 -11.882812 1.6875 -14.191406 3.40625 -16.078125 C 5.125 -17.960938 7.304688 -18.90625 9.953125 -18.90625 C 12.390625 -18.90625 14.394531 -18.140625 15.96875 -16.609375 L 15.96875 -30.796875 L 22.3125 -30.796875 L 22.3125 0 L 16.046875 0 L 16.046875 -2.078125 L 15.96875 -2.078125 C 14.394531 -0.335938 12.390625 0.53125 9.953125 0.53125 C 7.304688 0.53125 5.125 -0.398438 3.40625 -2.265625 Z M 8.796875 -12.28125 C 7.972656 -11.46875 7.5625 -10.425781 7.5625 -9.15625 C 7.5625 -7.894531 7.953125 -6.863281 8.734375 -6.0625 C 9.523438 -5.269531 10.566406 -4.875 11.859375 -4.875 C 13.097656 -4.875 14.113281 -5.28125 14.90625 -6.09375 C 15.707031 -6.90625 16.109375 -7.929688 16.109375 -9.171875 C 16.109375 -10.429688 15.695312 -11.46875 14.875 -12.28125 C 14.050781 -13.09375 13.046875 -13.5 11.859375 -13.5 C 10.640625 -13.5 9.617188 -13.09375 8.796875 -12.28125 Z M 8.796875 -12.28125 "/></g></g></g><g fill="#6da64a" fill-opacity="1"><g transform="translate(775.086783, 774.117435)"><g><path d="M 20.734375 -8.3125 L 7.40625 -8.3125 C 7.40625 -7.019531 7.820312 -6.0625 8.65625 -5.4375 C 9.5 -4.820312 10.410156 -4.515625 11.390625 -4.515625 C 12.410156 -4.515625 13.21875 -4.648438 13.8125 -4.921875 C 14.414062 -5.203125 15.097656 -5.742188 15.859375 -6.546875 L 20.453125 -4.265625 C 18.535156 -1.066406 15.359375 0.53125 10.921875 0.53125 C 8.148438 0.53125 5.773438 -0.414062 3.796875 -2.3125 C 1.816406 -4.207031 0.828125 -6.488281 0.828125 -9.15625 C 0.828125 -11.832031 1.816406 -14.125 3.796875 -16.03125 C 5.773438 -17.945312 8.148438 -18.90625 10.921875 -18.90625 C 13.835938 -18.90625 16.207031 -18.0625 18.03125 -16.375 C 19.851562 -14.695312 20.765625 -12.296875 20.765625 -9.171875 C 20.765625 -8.734375 20.753906 -8.445312 20.734375 -8.3125 Z M 7.59375 -11.8125 L 14.578125 -11.8125 C 14.429688 -12.769531 14.050781 -13.503906 13.4375 -14.015625 C 12.832031 -14.535156 12.054688 -14.796875 11.109375 -14.796875 C 10.054688 -14.796875 9.21875 -14.519531 8.59375 -13.96875 C 7.96875 -13.414062 7.632812 -12.695312 7.59375 -11.8125 Z M 7.59375 -11.8125 "/></g></g></g><g fill="#000000" fill-opacity="1"><g transform="translate(670.35193, 751.699892)"><g><path d="M 25.25 -14.609375 C 25.21875 -14.484375 25.15625 -14.378906 25.0625 -14.296875 C 24.96875 -14.222656 24.863281 -14.1875 24.75 -14.1875 C 24.582031 -14.1875 24.445312 -14.238281 24.34375 -14.34375 C 24.25 -14.457031 24.203125 -14.582031 24.203125 -14.71875 C 24.203125 -14.863281 24.210938 -15 24.234375 -15.125 C 24.265625 -15.257812 24.28125 -15.394531 24.28125 -15.53125 C 24.28125 -16.207031 24.070312 -16.8125 23.65625 -17.34375 C 23.238281 -17.882812 22.644531 -18.335938 21.875 -18.703125 C 21.113281 -19.078125 20.1875 -19.359375 19.09375 -19.546875 C 18 -19.742188 16.78125 -19.84375 15.4375 -19.84375 C 14.40625 -19.84375 13.363281 -19.773438 12.3125 -19.640625 C 11.269531 -19.503906 10.269531 -19.304688 9.3125 -19.046875 C 8.351562 -18.796875 7.457031 -18.476562 6.625 -18.09375 C 5.789062 -17.707031 5.0625 -17.257812 4.4375 -16.75 C 3.820312 -16.25 3.335938 -15.691406 2.984375 -15.078125 C 2.640625 -14.460938 2.46875 -13.785156 2.46875 -13.046875 C 2.46875 -12.484375 2.585938 -11.984375 2.828125 -11.546875 C 3.078125 -11.117188 3.414062 -10.742188 3.84375 -10.421875 C 4.269531 -10.109375 4.769531 -9.835938 5.34375 -9.609375 C 5.925781 -9.378906 6.554688 -9.1875 7.234375 -9.03125 C 7.910156 -8.882812 8.613281 -8.757812 9.34375 -8.65625 C 10.082031 -8.5625 10.820312 -8.484375 11.5625 -8.421875 L 13.703125 -8.234375 C 14.773438 -8.140625 15.734375 -8.039062 16.578125 -7.9375 C 17.421875 -7.84375 18.160156 -7.71875 18.796875 -7.5625 C 19.867188 -7.289062 20.660156 -6.90625 21.171875 -6.40625 C 21.679688 -5.90625 21.9375 -5.234375 21.9375 -4.390625 C 21.9375 -3.585938 21.710938 -2.878906 21.265625 -2.265625 C 20.816406 -1.648438 20.207031 -1.132812 19.4375 -0.71875 C 18.664062 -0.300781 17.765625 0.0078125 16.734375 0.21875 C 15.710938 0.4375 14.609375 0.546875 13.421875 0.546875 C 12.148438 0.546875 11.023438 0.457031 10.046875 0.28125 C 9.078125 0.113281 8.265625 -0.0703125 7.609375 -0.28125 C 6.960938 -0.488281 6.46875 -0.679688 6.125 -0.859375 C 5.78125 -1.035156 5.59375 -1.132812 5.5625 -1.15625 C 5.394531 -1.25 5.3125 -1.394531 5.3125 -1.59375 C 5.3125 -1.757812 5.367188 -1.890625 5.484375 -1.984375 C 5.597656 -2.078125 5.71875 -2.125 5.84375 -2.125 C 5.945312 -2.125 6.039062 -2.097656 6.125 -2.046875 C 6.132812 -2.046875 6.289062 -1.960938 6.59375 -1.796875 C 6.90625 -1.640625 7.367188 -1.460938 7.984375 -1.265625 C 8.609375 -1.066406 9.375 -0.890625 10.28125 -0.734375 C 11.1875 -0.578125 12.242188 -0.5 13.453125 -0.5 C 14.648438 -0.5 15.707031 -0.59375 16.625 -0.78125 C 17.539062 -0.976562 18.3125 -1.25 18.9375 -1.59375 C 19.570312 -1.945312 20.046875 -2.359375 20.359375 -2.828125 C 20.679688 -3.296875 20.84375 -3.804688 20.84375 -4.359375 C 20.84375 -4.679688 20.785156 -4.957031 20.671875 -5.1875 C 20.554688 -5.425781 20.394531 -5.628906 20.1875 -5.796875 C 19.988281 -5.972656 19.742188 -6.117188 19.453125 -6.234375 C 19.171875 -6.359375 18.863281 -6.460938 18.53125 -6.546875 C 18.175781 -6.640625 17.796875 -6.71875 17.390625 -6.78125 C 16.992188 -6.851562 16.582031 -6.910156 16.15625 -6.953125 C 15.726562 -7.003906 15.296875 -7.046875 14.859375 -7.078125 C 14.429688 -7.117188 14.007812 -7.15625 13.59375 -7.1875 L 11.453125 -7.375 C 9.765625 -7.507812 8.289062 -7.722656 7.03125 -8.015625 C 5.78125 -8.316406 4.734375 -8.695312 3.890625 -9.15625 C 3.054688 -9.613281 2.429688 -10.160156 2.015625 -10.796875 C 1.597656 -11.441406 1.390625 -12.191406 1.390625 -13.046875 C 1.390625 -13.910156 1.585938 -14.707031 1.984375 -15.4375 C 2.378906 -16.164062 2.914062 -16.820312 3.59375 -17.40625 C 4.28125 -17.988281 5.078125 -18.492188 5.984375 -18.921875 C 6.898438 -19.359375 7.878906 -19.71875 8.921875 -20 C 9.960938 -20.289062 11.035156 -20.507812 12.140625 -20.65625 C 13.253906 -20.800781 14.351562 -20.875 15.4375 -20.875 C 16.78125 -20.875 17.945312 -20.789062 18.9375 -20.625 C 19.9375 -20.46875 20.789062 -20.257812 21.5 -20 C 22.21875 -19.75 22.800781 -19.457031 23.25 -19.125 C 23.707031 -18.800781 24.078125 -18.484375 24.359375 -18.171875 C 25.015625 -17.398438 25.34375 -16.523438 25.34375 -15.546875 C 25.34375 -15.222656 25.3125 -14.910156 25.25 -14.609375 Z M 25.25 -14.609375 "/></g></g></g><g fill="#000000" fill-opacity="1"><g transform="translate(693.743756, 751.699892)"><g><path d="M 1.625 -1.1875 C 1.769531 -1.5 1.941406 -1.835938 2.140625 -2.203125 C 2.335938 -2.566406 2.546875 -2.941406 2.765625 -3.328125 C 2.992188 -3.710938 3.234375 -4.09375 3.484375 -4.46875 C 3.734375 -4.851562 3.992188 -5.210938 4.265625 -5.546875 C 4.523438 -5.878906 4.789062 -6.113281 5.0625 -6.25 C 5.34375 -6.394531 5.601562 -6.46875 5.84375 -6.46875 C 6.082031 -6.46875 6.289062 -6.414062 6.46875 -6.3125 C 6.65625 -6.21875 6.804688 -6.085938 6.921875 -5.921875 C 7.035156 -5.753906 7.125 -5.5625 7.1875 -5.34375 C 7.25 -5.125 7.28125 -4.882812 7.28125 -4.625 C 7.28125 -4.40625 7.257812 -4.117188 7.21875 -3.765625 C 7.175781 -3.410156 7.15625 -3.035156 7.15625 -2.640625 C 7.15625 -2.421875 7.164062 -2.203125 7.1875 -1.984375 C 7.207031 -1.765625 7.25 -1.566406 7.3125 -1.390625 C 7.375 -1.222656 7.460938 -1.085938 7.578125 -0.984375 C 7.703125 -0.878906 7.863281 -0.828125 8.0625 -0.828125 C 8.28125 -0.828125 8.5 -0.890625 8.71875 -1.015625 C 8.945312 -1.140625 9.164062 -1.304688 9.375 -1.515625 C 9.59375 -1.722656 9.796875 -1.953125 9.984375 -2.203125 C 10.179688 -2.460938 10.359375 -2.71875 10.515625 -2.96875 C 10.671875 -3.226562 10.8125 -3.472656 10.9375 -3.703125 C 11.0625 -3.941406 11.160156 -4.140625 11.234375 -4.296875 C 11.328125 -4.515625 11.488281 -4.625 11.71875 -4.625 C 11.875 -4.625 12 -4.566406 12.09375 -4.453125 C 12.1875 -4.335938 12.234375 -4.21875 12.234375 -4.09375 C 12.234375 -4.019531 12.21875 -3.945312 12.1875 -3.875 C 12.15625 -3.800781 12.082031 -3.648438 11.96875 -3.421875 C 11.863281 -3.191406 11.71875 -2.921875 11.53125 -2.609375 C 11.351562 -2.304688 11.144531 -1.988281 10.90625 -1.65625 C 10.664062 -1.320312 10.398438 -1.015625 10.109375 -0.734375 C 9.816406 -0.453125 9.5 -0.21875 9.15625 -0.03125 C 8.820312 0.144531 8.46875 0.234375 8.09375 0.234375 C 7.664062 0.234375 7.320312 0.144531 7.0625 -0.03125 C 6.8125 -0.21875 6.613281 -0.445312 6.46875 -0.71875 C 6.320312 -1 6.222656 -1.3125 6.171875 -1.65625 C 6.117188 -2 6.09375 -2.332031 6.09375 -2.65625 C 6.09375 -2.820312 6.097656 -3 6.109375 -3.1875 C 6.128906 -3.382812 6.144531 -3.570312 6.15625 -3.75 C 6.175781 -3.9375 6.191406 -4.109375 6.203125 -4.265625 C 6.222656 -4.429688 6.234375 -4.570312 6.234375 -4.6875 C 6.234375 -4.976562 6.191406 -5.171875 6.109375 -5.265625 C 6.035156 -5.367188 5.945312 -5.421875 5.84375 -5.421875 C 5.695312 -5.421875 5.523438 -5.332031 5.328125 -5.15625 C 5.140625 -4.988281 4.941406 -4.765625 4.734375 -4.484375 C 4.523438 -4.210938 4.316406 -3.898438 4.109375 -3.546875 C 3.898438 -3.203125 3.695312 -2.859375 3.5 -2.515625 C 3.3125 -2.171875 3.132812 -1.84375 2.96875 -1.53125 C 2.8125 -1.226562 2.6875 -0.972656 2.59375 -0.765625 C 2.394531 -0.378906 2.195312 -0.117188 2 0.015625 C 1.800781 0.148438 1.625 0.21875 1.46875 0.21875 C 1.175781 0.21875 0.953125 0.109375 0.796875 -0.109375 C 0.648438 -0.335938 0.578125 -0.617188 0.578125 -0.953125 L 0.578125 -1.828125 C 0.578125 -3.578125 0.578125 -5.242188 0.578125 -6.828125 C 0.578125 -8.421875 0.597656 -9.898438 0.640625 -11.265625 C 0.679688 -12.640625 0.75 -13.878906 0.84375 -14.984375 C 0.945312 -16.097656 1.097656 -17.046875 1.296875 -17.828125 C 1.492188 -18.617188 1.738281 -19.226562 2.03125 -19.65625 C 2.332031 -20.082031 2.710938 -20.296875 3.171875 -20.296875 C 3.554688 -20.296875 3.882812 -20.1875 4.15625 -19.96875 C 4.425781 -19.757812 4.644531 -19.46875 4.8125 -19.09375 C 4.976562 -18.726562 5.097656 -18.300781 5.171875 -17.8125 C 5.242188 -17.332031 5.28125 -16.820312 5.28125 -16.28125 C 5.28125 -15.1875 5.179688 -14.113281 4.984375 -13.0625 C 4.785156 -12.007812 4.519531 -10.976562 4.1875 -9.96875 C 3.851562 -8.96875 3.460938 -7.992188 3.015625 -7.046875 C 2.578125 -6.097656 2.109375 -5.171875 1.609375 -4.265625 C 1.609375 -4.097656 1.609375 -3.898438 1.609375 -3.671875 C 1.609375 -3.441406 1.609375 -3.207031 1.609375 -2.96875 C 1.609375 -2.738281 1.609375 -2.519531 1.609375 -2.3125 C 1.609375 -2.113281 1.609375 -1.957031 1.609375 -1.84375 Z M 1.625 -6.3125 C 2.019531 -7.164062 2.375 -8 2.6875 -8.8125 C 3.007812 -9.625 3.285156 -10.429688 3.515625 -11.234375 C 3.742188 -12.046875 3.921875 -12.867188 4.046875 -13.703125 C 4.179688 -14.535156 4.25 -15.398438 4.25 -16.296875 C 4.25 -16.441406 4.238281 -16.675781 4.21875 -17 C 4.207031 -17.332031 4.164062 -17.664062 4.09375 -18 C 4.03125 -18.332031 3.925781 -18.625 3.78125 -18.875 C 3.632812 -19.125 3.429688 -19.25 3.171875 -19.25 C 2.960938 -19.25 2.785156 -19.109375 2.640625 -18.828125 C 2.492188 -18.554688 2.363281 -18.1875 2.25 -17.71875 C 2.144531 -17.25 2.050781 -16.703125 1.96875 -16.078125 C 1.894531 -15.460938 1.832031 -14.804688 1.78125 -14.109375 C 1.738281 -13.410156 1.707031 -12.695312 1.6875 -11.96875 C 1.664062 -11.238281 1.648438 -10.523438 1.640625 -9.828125 C 1.628906 -9.140625 1.625 -8.492188 1.625 -7.890625 C 1.625 -7.285156 1.625 -6.757812 1.625 -6.3125 Z M 1.625 -6.3125 "/></g></g></g><g fill="#000000" fill-opacity="1"><g transform="translate(704.444717, 751.699892)"><g><path d="M 6.9375 -1.53125 C 6.707031 -1.53125 6.503906 -1.550781 6.328125 -1.59375 C 6.191406 -1.3125 6.023438 -1.050781 5.828125 -0.8125 C 5.628906 -0.570312 5.398438 -0.363281 5.140625 -0.1875 C 4.890625 -0.0195312 4.609375 0.113281 4.296875 0.21875 C 3.984375 0.320312 3.640625 0.375 3.265625 0.375 C 2.828125 0.375 2.425781 0.296875 2.0625 0.140625 C 1.707031 -0.00390625 1.394531 -0.210938 1.125 -0.484375 C 0.851562 -0.765625 0.644531 -1.097656 0.5 -1.484375 C 0.351562 -1.867188 0.28125 -2.289062 0.28125 -2.75 C 0.28125 -3.34375 0.382812 -3.859375 0.59375 -4.296875 C 0.8125 -4.742188 1.054688 -5.113281 1.328125 -5.40625 C 1.609375 -5.695312 1.890625 -5.914062 2.171875 -6.0625 C 2.453125 -6.207031 2.660156 -6.28125 2.796875 -6.28125 C 2.953125 -6.28125 3.066406 -6.238281 3.140625 -6.15625 C 3.222656 -6.070312 3.265625 -5.957031 3.265625 -5.8125 C 3.265625 -5.65625 3.21875 -5.535156 3.125 -5.453125 C 3.03125 -5.378906 2.90625 -5.304688 2.75 -5.234375 C 2.601562 -5.160156 2.445312 -5.054688 2.28125 -4.921875 C 2.113281 -4.785156 1.957031 -4.613281 1.8125 -4.40625 C 1.664062 -4.207031 1.546875 -3.96875 1.453125 -3.6875 C 1.367188 -3.40625 1.328125 -3.09375 1.328125 -2.75 C 1.328125 -2.445312 1.367188 -2.160156 1.453125 -1.890625 C 1.546875 -1.628906 1.679688 -1.40625 1.859375 -1.21875 C 2.035156 -1.03125 2.242188 -0.878906 2.484375 -0.765625 C 2.734375 -0.660156 3.003906 -0.609375 3.296875 -0.609375 C 3.828125 -0.609375 4.265625 -0.726562 4.609375 -0.96875 C 4.960938 -1.21875 5.226562 -1.535156 5.40625 -1.921875 C 4.863281 -2.210938 4.414062 -2.617188 4.0625 -3.140625 C 3.707031 -3.671875 3.53125 -4.265625 3.53125 -4.921875 C 3.53125 -5.453125 3.65625 -5.882812 3.90625 -6.21875 C 4.164062 -6.550781 4.503906 -6.71875 4.921875 -6.71875 C 5.171875 -6.71875 5.40625 -6.65625 5.625 -6.53125 C 5.851562 -6.414062 6.050781 -6.226562 6.21875 -5.96875 C 6.394531 -5.707031 6.535156 -5.375 6.640625 -4.96875 C 6.742188 -4.5625 6.796875 -4.070312 6.796875 -3.5 C 6.796875 -3.207031 6.757812 -2.898438 6.6875 -2.578125 C 6.738281 -2.566406 6.789062 -2.5625 6.84375 -2.5625 C 6.90625 -2.5625 6.96875 -2.5625 7.03125 -2.5625 C 7.34375 -2.5625 7.625 -2.597656 7.875 -2.671875 C 8.125 -2.742188 8.347656 -2.851562 8.546875 -3 C 8.753906 -3.15625 8.941406 -3.347656 9.109375 -3.578125 C 9.273438 -3.804688 9.429688 -4.078125 9.578125 -4.390625 C 9.597656 -4.441406 9.65625 -4.492188 9.75 -4.546875 C 9.84375 -4.597656 9.9375 -4.625 10.03125 -4.625 C 10.15625 -4.625 10.269531 -4.570312 10.375 -4.46875 C 10.476562 -4.375 10.53125 -4.25 10.53125 -4.09375 C 10.53125 -4.019531 10.507812 -3.9375 10.46875 -3.84375 C 10.4375 -3.757812 10.40625 -3.679688 10.375 -3.609375 C 10.207031 -3.328125 10.019531 -3.054688 9.8125 -2.796875 C 9.601562 -2.546875 9.359375 -2.320312 9.078125 -2.125 C 8.796875 -1.9375 8.476562 -1.785156 8.125 -1.671875 C 7.769531 -1.566406 7.375 -1.519531 6.9375 -1.53125 Z M 4.5625 -5.03125 C 4.5625 -4.851562 4.582031 -4.664062 4.625 -4.46875 C 4.675781 -4.28125 4.75 -4.09375 4.84375 -3.90625 C 4.945312 -3.71875 5.066406 -3.535156 5.203125 -3.359375 C 5.347656 -3.191406 5.519531 -3.046875 5.71875 -2.921875 C 5.75 -3.117188 5.765625 -3.3125 5.765625 -3.5 C 5.765625 -3.75 5.742188 -4 5.703125 -4.25 C 5.671875 -4.507812 5.617188 -4.75 5.546875 -4.96875 C 5.472656 -5.1875 5.382812 -5.363281 5.28125 -5.5 C 5.1875 -5.632812 5.066406 -5.703125 4.921875 -5.703125 C 4.867188 -5.703125 4.796875 -5.660156 4.703125 -5.578125 C 4.609375 -5.492188 4.5625 -5.3125 4.5625 -5.03125 Z M 4.5625 -5.03125 "/></g></g></g><g fill="#000000" fill-opacity="1"><g transform="translate(713.447996, 751.699892)"><g><path d="M 7.671875 -3.875 C 7.671875 -3.03125 7.515625 -2.304688 7.203125 -1.703125 C 6.898438 -1.097656 6.523438 -0.632812 6.078125 -0.3125 L 6.140625 -0.3125 C 6.679688 -0.3125 7.175781 -0.4375 7.625 -0.6875 C 8.082031 -0.9375 8.488281 -1.253906 8.84375 -1.640625 C 9.207031 -2.023438 9.53125 -2.453125 9.8125 -2.921875 C 10.101562 -3.390625 10.363281 -3.847656 10.59375 -4.296875 C 10.632812 -4.398438 10.695312 -4.476562 10.78125 -4.53125 C 10.875 -4.59375 10.972656 -4.625 11.078125 -4.625 C 11.234375 -4.625 11.359375 -4.566406 11.453125 -4.453125 C 11.546875 -4.335938 11.59375 -4.21875 11.59375 -4.09375 C 11.59375 -4.019531 11.578125 -3.945312 11.546875 -3.875 C 11.304688 -3.34375 11.019531 -2.804688 10.6875 -2.265625 C 10.351562 -1.722656 9.960938 -1.234375 9.515625 -0.796875 C 9.066406 -0.359375 8.566406 -0.00390625 8.015625 0.265625 C 7.460938 0.546875 6.847656 0.6875 6.171875 0.6875 C 5.671875 0.6875 5.1875 0.609375 4.71875 0.453125 C 4.257812 0.296875 3.851562 0.0546875 3.5 -0.265625 C 3.375 -0.367188 3.265625 -0.476562 3.171875 -0.59375 C 3.078125 -0.707031 3.003906 -0.816406 2.953125 -0.921875 C 2.929688 -0.941406 2.921875 -0.957031 2.921875 -0.96875 C 2.867188 -1.050781 2.84375 -1.140625 2.84375 -1.234375 C 2.84375 -1.359375 2.882812 -1.472656 2.96875 -1.578125 C 2.976562 -1.585938 2.984375 -1.59375 2.984375 -1.59375 C 2.992188 -1.601562 3.003906 -1.613281 3.015625 -1.625 C 3.109375 -1.707031 3.210938 -1.753906 3.328125 -1.765625 L 3.375 -1.765625 C 3.414062 -1.765625 3.445312 -1.757812 3.46875 -1.75 C 3.476562 -1.75 3.484375 -1.742188 3.484375 -1.734375 C 3.492188 -1.734375 3.5 -1.734375 3.5 -1.734375 C 3.53125 -1.734375 3.566406 -1.726562 3.609375 -1.71875 C 3.617188 -1.707031 3.625 -1.703125 3.625 -1.703125 C 3.707031 -1.640625 3.78125 -1.566406 3.84375 -1.484375 C 3.90625 -1.378906 3.976562 -1.28125 4.0625 -1.1875 C 4.132812 -1.113281 4.222656 -1.046875 4.328125 -0.984375 C 4.429688 -0.921875 4.546875 -0.890625 4.671875 -0.890625 C 4.910156 -0.890625 5.144531 -0.957031 5.375 -1.09375 C 5.601562 -1.238281 5.8125 -1.441406 6 -1.703125 C 6.1875 -1.960938 6.335938 -2.273438 6.453125 -2.640625 C 6.566406 -3.015625 6.625 -3.425781 6.625 -3.875 C 6.625 -4.21875 6.585938 -4.503906 6.515625 -4.734375 C 6.453125 -4.972656 6.363281 -5.164062 6.25 -5.3125 C 6.144531 -5.457031 6.03125 -5.566406 5.90625 -5.640625 C 5.789062 -5.710938 5.675781 -5.75 5.5625 -5.75 C 5.3125 -5.75 5.054688 -5.617188 4.796875 -5.359375 C 4.546875 -5.097656 4.296875 -4.765625 4.046875 -4.359375 C 3.796875 -3.960938 3.546875 -3.523438 3.296875 -3.046875 C 3.054688 -2.566406 2.8125 -2.097656 2.5625 -1.640625 C 2.539062 -0.140625 2.515625 1.289062 2.484375 2.65625 C 2.453125 4.019531 2.394531 5.285156 2.3125 6.453125 C 2.238281 7.617188 2.128906 8.675781 1.984375 9.625 C 1.847656 10.570312 1.660156 11.378906 1.421875 12.046875 C 1.179688 12.722656 0.882812 13.242188 0.53125 13.609375 C 0.175781 13.972656 -0.253906 14.15625 -0.765625 14.15625 C -0.921875 14.15625 -1.097656 14.117188 -1.296875 14.046875 C -1.503906 13.984375 -1.695312 13.851562 -1.875 13.65625 C -2.050781 13.457031 -2.195312 13.171875 -2.3125 12.796875 C -2.4375 12.429688 -2.5 11.9375 -2.5 11.3125 C -2.5 10.519531 -2.398438 9.601562 -2.203125 8.5625 C -2.015625 7.53125 -1.738281 6.429688 -1.375 5.265625 C -1.019531 4.097656 -0.597656 2.898438 -0.109375 1.671875 C 0.378906 0.453125 0.921875 -0.734375 1.515625 -1.890625 C 1.515625 -2.210938 1.515625 -2.53125 1.515625 -2.84375 C 1.523438 -3.164062 1.53125 -3.472656 1.53125 -3.765625 C 1.40625 -3.628906 1.257812 -3.5625 1.09375 -3.5625 C 0.9375 -3.5625 0.8125 -3.613281 0.71875 -3.71875 C 0.625 -3.832031 0.578125 -3.957031 0.578125 -4.09375 C 0.578125 -4.15625 0.59375 -4.222656 0.625 -4.296875 C 0.84375 -4.804688 1.015625 -5.289062 1.140625 -5.75 C 1.265625 -6.207031 1.351562 -6.609375 1.40625 -6.953125 C 1.46875 -7.304688 1.503906 -7.582031 1.515625 -7.78125 C 1.523438 -7.988281 1.53125 -8.097656 1.53125 -8.109375 C 1.53125 -8.253906 1.582031 -8.375 1.6875 -8.46875 C 1.789062 -8.570312 1.914062 -8.625 2.0625 -8.625 C 2.195312 -8.625 2.316406 -8.570312 2.421875 -8.46875 C 2.523438 -8.375 2.578125 -8.253906 2.578125 -8.109375 L 2.578125 -3.84375 C 2.785156 -4.207031 2.992188 -4.5625 3.203125 -4.90625 C 3.421875 -5.257812 3.648438 -5.578125 3.890625 -5.859375 C 4.128906 -6.140625 4.382812 -6.363281 4.65625 -6.53125 C 4.925781 -6.707031 5.226562 -6.796875 5.5625 -6.796875 C 5.882812 -6.796875 6.171875 -6.71875 6.421875 -6.5625 C 6.679688 -6.414062 6.90625 -6.210938 7.09375 -5.953125 C 7.28125 -5.691406 7.421875 -5.382812 7.515625 -5.03125 C 7.617188 -4.675781 7.671875 -4.289062 7.671875 -3.875 Z M 1.484375 0.578125 C 1.035156 1.597656 0.625 2.625 0.25 3.65625 C -0.113281 4.6875 -0.421875 5.679688 -0.671875 6.640625 C -0.929688 7.597656 -1.128906 8.492188 -1.265625 9.328125 C -1.398438 10.160156 -1.46875 10.890625 -1.46875 11.515625 C -1.46875 11.679688 -1.457031 11.851562 -1.4375 12.03125 C -1.425781 12.21875 -1.390625 12.390625 -1.328125 12.546875 C -1.273438 12.703125 -1.195312 12.832031 -1.09375 12.9375 C -1 13.050781 -0.867188 13.109375 -0.703125 13.109375 C -0.390625 13.109375 -0.125 12.914062 0.09375 12.53125 C 0.320312 12.144531 0.507812 11.625 0.65625 10.96875 C 0.8125 10.3125 0.941406 9.554688 1.046875 8.703125 C 1.148438 7.859375 1.226562 6.972656 1.28125 6.046875 C 1.34375 5.117188 1.390625 4.1875 1.421875 3.25 C 1.453125 2.3125 1.472656 1.421875 1.484375 0.578125 Z M 1.484375 0.578125 "/></g></g></g><g fill="#747574" fill-opacity="1"><g transform="translate(684.448676, 57.017563)"><g><path d="M 5.078125 -11.703125 C 5.691406 -11.703125 6.296875 -11.609375 6.890625 -11.421875 C 7.492188 -11.242188 7.9375 -11.070312 8.21875 -10.90625 L 8.640625 -10.625 L 7.578125 -8.53125 C 7.492188 -8.582031 7.378906 -8.648438 7.234375 -8.734375 C 7.085938 -8.828125 6.804688 -8.945312 6.390625 -9.09375 C 5.984375 -9.25 5.601562 -9.328125 5.25 -9.328125 C 4.8125 -9.328125 4.472656 -9.234375 4.234375 -9.046875 C 4.003906 -8.859375 3.890625 -8.609375 3.890625 -8.296875 C 3.890625 -8.140625 3.941406 -7.992188 4.046875 -7.859375 C 4.160156 -7.722656 4.351562 -7.578125 4.625 -7.421875 C 4.894531 -7.265625 5.128906 -7.140625 5.328125 -7.046875 C 5.535156 -6.953125 5.851562 -6.816406 6.28125 -6.640625 C 7.03125 -6.316406 7.664062 -5.882812 8.1875 -5.34375 C 8.707031 -4.800781 8.96875 -4.1875 8.96875 -3.5 C 8.96875 -2.84375 8.847656 -2.265625 8.609375 -1.765625 C 8.378906 -1.273438 8.054688 -0.890625 7.640625 -0.609375 C 7.234375 -0.328125 6.773438 -0.125 6.265625 0 C 5.765625 0.132812 5.222656 0.203125 4.640625 0.203125 C 4.140625 0.203125 3.644531 0.148438 3.15625 0.046875 C 2.675781 -0.046875 2.273438 -0.171875 1.953125 -0.328125 C 1.628906 -0.484375 1.335938 -0.632812 1.078125 -0.78125 C 0.816406 -0.925781 0.625 -1.050781 0.5 -1.15625 L 0.328125 -1.3125 L 1.625 -3.515625 C 1.738281 -3.421875 1.894531 -3.300781 2.09375 -3.15625 C 2.289062 -3.007812 2.632812 -2.816406 3.125 -2.578125 C 3.625 -2.335938 4.066406 -2.21875 4.453125 -2.21875 C 5.554688 -2.21875 6.109375 -2.59375 6.109375 -3.34375 C 6.109375 -3.5 6.066406 -3.644531 5.984375 -3.78125 C 5.910156 -3.914062 5.769531 -4.050781 5.5625 -4.1875 C 5.363281 -4.320312 5.1875 -4.425781 5.03125 -4.5 C 4.882812 -4.582031 4.632812 -4.703125 4.28125 -4.859375 C 3.9375 -5.023438 3.679688 -5.148438 3.515625 -5.234375 C 2.816406 -5.578125 2.273438 -6.003906 1.890625 -6.515625 C 1.515625 -7.035156 1.328125 -7.59375 1.328125 -8.1875 C 1.328125 -9.226562 1.707031 -10.070312 2.46875 -10.71875 C 3.226562 -11.375 4.097656 -11.703125 5.078125 -11.703125 Z M 5.078125 -11.703125 "/></g></g></g><g fill="#747574" fill-opacity="1"><g transform="translate(693.813821, 57.017563)"><g><path d="M 5.21875 0 L 3.546875 0 L -0.28125 -7.15625 L 2.5625 -7.15625 L 4.3125 -3.296875 L 6.015625 -7.15625 L 7.71875 -7.15625 L 9.4375 -3.296875 L 11.171875 -7.15625 L 14.015625 -7.15625 L 10.1875 0 L 8.515625 0 L 6.875 -3.6875 Z M 5.21875 0 "/></g></g></g><g fill="#747574" fill-opacity="1"><g transform="translate(707.554942, 57.017563)"><g><path d="M 1.328125 -0.890625 C 0.660156 -1.617188 0.328125 -2.507812 0.328125 -3.5625 C 0.328125 -4.625 0.660156 -5.519531 1.328125 -6.25 C 1.992188 -6.988281 2.84375 -7.359375 3.875 -7.359375 C 4.820312 -7.359375 5.601562 -7.0625 6.21875 -6.46875 L 6.21875 -7.15625 L 8.6875 -7.15625 L 8.6875 0 L 6.25 0 L 6.25 -0.8125 L 6.21875 -0.8125 C 5.601562 -0.132812 4.820312 0.203125 3.875 0.203125 C 2.84375 0.203125 1.992188 -0.160156 1.328125 -0.890625 Z M 3.421875 -4.78125 C 3.097656 -4.46875 2.9375 -4.0625 2.9375 -3.5625 C 2.9375 -3.070312 3.085938 -2.671875 3.390625 -2.359375 C 3.703125 -2.046875 4.109375 -1.890625 4.609375 -1.890625 C 5.097656 -1.890625 5.492188 -2.046875 5.796875 -2.359375 C 6.109375 -2.679688 6.265625 -3.082031 6.265625 -3.5625 C 6.265625 -4.0625 6.101562 -4.46875 5.78125 -4.78125 C 5.46875 -5.09375 5.078125 -5.25 4.609375 -5.25 C 4.140625 -5.25 3.742188 -5.09375 3.421875 -4.78125 Z M 3.421875 -4.78125 "/></g></g></g><g fill="#747574" fill-opacity="1"><g transform="translate(717.07339, 57.017563)"><g><path d="M 8.1875 -6.265625 C 8.863281 -5.535156 9.203125 -4.640625 9.203125 -3.578125 C 9.203125 -2.523438 8.863281 -1.628906 8.1875 -0.890625 C 7.519531 -0.160156 6.671875 0.203125 5.640625 0.203125 C 4.691406 0.203125 3.910156 -0.09375 3.296875 -0.6875 L 3.296875 3.625 L 0.84375 3.625 L 0.84375 -7.15625 L 3.28125 -7.15625 L 3.28125 -6.34375 L 3.296875 -6.34375 C 3.910156 -7.019531 4.691406 -7.359375 5.640625 -7.359375 C 6.671875 -7.359375 7.519531 -6.992188 8.1875 -6.265625 Z M 6.09375 -2.359375 C 6.414062 -2.679688 6.578125 -3.085938 6.578125 -3.578125 C 6.578125 -4.078125 6.421875 -4.476562 6.109375 -4.78125 C 5.804688 -5.09375 5.40625 -5.25 4.90625 -5.25 C 4.425781 -5.25 4.03125 -5.09375 3.71875 -4.78125 C 3.40625 -4.46875 3.25 -4.066406 3.25 -3.578125 C 3.25 -3.085938 3.40625 -2.679688 3.71875 -2.359375 C 4.039062 -2.046875 4.4375 -1.890625 4.90625 -1.890625 C 5.375 -1.890625 5.769531 -2.046875 6.09375 -2.359375 Z M 6.09375 -2.359375 "/></g></g></g><g fill="#747574" fill-opacity="1"><g transform="translate(726.591837, 57.017563)"><g><path d="M 2.421875 -2.984375 C 2.867188 -2.984375 3.25 -2.828125 3.5625 -2.515625 C 3.875 -2.203125 4.03125 -1.820312 4.03125 -1.375 C 4.03125 0 3.25 1.332031 1.6875 2.625 L 0.96875 2.03125 C 1.039062 1.976562 1.125 1.894531 1.21875 1.78125 C 1.3125 1.664062 1.453125 1.4375 1.640625 1.09375 C 1.835938 0.757812 1.96875 0.421875 2.03125 0.078125 C 1.675781 -0.00390625 1.390625 -0.175781 1.171875 -0.4375 C 0.953125 -0.707031 0.84375 -1.019531 0.84375 -1.375 C 0.84375 -1.820312 0.992188 -2.203125 1.296875 -2.515625 C 1.609375 -2.828125 1.984375 -2.984375 2.421875 -2.984375 Z M 2.421875 -2.984375 "/></g></g></g><g fill="#3e4044" fill-opacity="1"><g transform="translate(684.448676, 73.492416)"><g><path d="M 0.109375 -9.203125 L 0.109375 -11.5 L 8.1875 -11.5 L 8.1875 -9.203125 L 5.46875 -9.203125 L 5.46875 0 L 2.84375 0 L 2.84375 -9.203125 Z M 0.109375 -9.203125 "/></g></g></g><g fill="#3e4044" fill-opacity="1"><g transform="translate(692.75467, 73.492416)"><g><path d="M 0.84375 0 L 0.84375 -7.15625 L 3.296875 -7.15625 L 3.296875 -6.125 L 3.328125 -6.125 C 3.347656 -6.15625 3.378906 -6.195312 3.421875 -6.25 C 3.460938 -6.3125 3.550781 -6.410156 3.6875 -6.546875 C 3.832031 -6.691406 3.984375 -6.816406 4.140625 -6.921875 C 4.296875 -7.035156 4.5 -7.132812 4.75 -7.21875 C 5 -7.3125 5.253906 -7.359375 5.515625 -7.359375 C 5.785156 -7.359375 6.050781 -7.320312 6.3125 -7.25 C 6.570312 -7.175781 6.765625 -7.101562 6.890625 -7.03125 L 7.078125 -6.90625 L 6.046875 -4.828125 C 5.742188 -5.085938 5.316406 -5.21875 4.765625 -5.21875 C 4.472656 -5.21875 4.21875 -5.148438 4 -5.015625 C 3.78125 -4.890625 3.628906 -4.734375 3.546875 -4.546875 C 3.460938 -4.359375 3.398438 -4.195312 3.359375 -4.0625 C 3.316406 -3.9375 3.296875 -3.835938 3.296875 -3.765625 L 3.296875 0 Z M 0.84375 0 "/></g></g></g><g fill="#3e4044" fill-opacity="1"><g transform="translate(699.694908, 73.492416)"><g><path d="M 1.328125 -0.890625 C 0.660156 -1.617188 0.328125 -2.507812 0.328125 -3.5625 C 0.328125 -4.625 0.660156 -5.519531 1.328125 -6.25 C 1.992188 -6.988281 2.84375 -7.359375 3.875 -7.359375 C 4.820312 -7.359375 5.601562 -7.0625 6.21875 -6.46875 L 6.21875 -7.15625 L 8.6875 -7.15625 L 8.6875 0 L 6.25 0 L 6.25 -0.8125 L 6.21875 -0.8125 C 5.601562 -0.132812 4.820312 0.203125 3.875 0.203125 C 2.84375 0.203125 1.992188 -0.160156 1.328125 -0.890625 Z M 3.421875 -4.78125 C 3.097656 -4.46875 2.9375 -4.0625 2.9375 -3.5625 C 2.9375 -3.070312 3.085938 -2.671875 3.390625 -2.359375 C 3.703125 -2.046875 4.109375 -1.890625 4.609375 -1.890625 C 5.097656 -1.890625 5.492188 -2.046875 5.796875 -2.359375 C 6.109375 -2.679688 6.265625 -3.082031 6.265625 -3.5625 C 6.265625 -4.0625 6.101562 -4.46875 5.78125 -4.78125 C 5.46875 -5.09375 5.078125 -5.25 4.609375 -5.25 C 4.140625 -5.25 3.742188 -5.09375 3.421875 -4.78125 Z M 3.421875 -4.78125 "/></g></g></g><g fill="#3e4044" fill-opacity="1"><g transform="translate(709.213355, 73.492416)"><g><path d="M 1.328125 -0.890625 C 0.660156 -1.617188 0.328125 -2.507812 0.328125 -3.5625 C 0.328125 -4.625 0.660156 -5.519531 1.328125 -6.25 C 1.992188 -6.988281 2.84375 -7.359375 3.875 -7.359375 C 4.820312 -7.359375 5.601562 -7.0625 6.21875 -6.46875 L 6.21875 -11.984375 L 8.6875 -11.984375 L 8.6875 0 L 6.25 0 L 6.25 -0.8125 L 6.21875 -0.8125 C 5.601562 -0.132812 4.820312 0.203125 3.875 0.203125 C 2.84375 0.203125 1.992188 -0.160156 1.328125 -0.890625 Z M 3.421875 -4.78125 C 3.097656 -4.46875 2.9375 -4.0625 2.9375 -3.5625 C 2.9375 -3.070312 3.085938 -2.671875 3.390625 -2.359375 C 3.703125 -2.046875 4.109375 -1.890625 4.609375 -1.890625 C 5.097656 -1.890625 5.492188 -2.046875 5.796875 -2.359375 C 6.109375 -2.679688 6.265625 -3.082031 6.265625 -3.5625 C 6.265625 -4.0625 6.101562 -4.46875 5.78125 -4.78125 C 5.46875 -5.09375 5.078125 -5.25 4.609375 -5.25 C 4.140625 -5.25 3.742188 -5.09375 3.421875 -4.78125 Z M 3.421875 -4.78125 "/></g></g></g><g fill="#3e4044" fill-opacity="1"><g transform="translate(718.731803, 73.492416)"><g><path d="M 8.0625 -3.234375 L 2.890625 -3.234375 C 2.890625 -2.734375 3.050781 -2.359375 3.375 -2.109375 C 3.695312 -1.867188 4.050781 -1.75 4.4375 -1.75 C 4.832031 -1.75 5.144531 -1.800781 5.375 -1.90625 C 5.613281 -2.019531 5.878906 -2.234375 6.171875 -2.546875 L 7.953125 -1.65625 C 7.210938 -0.414062 5.976562 0.203125 4.25 0.203125 C 3.175781 0.203125 2.253906 -0.160156 1.484375 -0.890625 C 0.710938 -1.628906 0.328125 -2.519531 0.328125 -3.5625 C 0.328125 -4.601562 0.710938 -5.492188 1.484375 -6.234375 C 2.253906 -6.984375 3.175781 -7.359375 4.25 -7.359375 C 5.382812 -7.359375 6.304688 -7.03125 7.015625 -6.375 C 7.722656 -5.71875 8.078125 -4.78125 8.078125 -3.5625 C 8.078125 -3.394531 8.070312 -3.285156 8.0625 -3.234375 Z M 2.953125 -4.59375 L 5.671875 -4.59375 C 5.617188 -4.96875 5.472656 -5.253906 5.234375 -5.453125 C 4.992188 -5.648438 4.691406 -5.75 4.328125 -5.75 C 3.910156 -5.75 3.582031 -5.640625 3.34375 -5.421875 C 3.101562 -5.210938 2.972656 -4.9375 2.953125 -4.59375 Z M 2.953125 -4.59375 "/></g></g></g><g fill="#3e4044" fill-opacity="1"><g transform="translate(727.135352, 73.492416)"><g/></g></g><g fill="#3e4044" fill-opacity="1"><g transform="translate(730.939945, 73.492416)"><g><path d="M 3.453125 -11.5 L 3.453125 0 L 0.84375 0 L 0.84375 -11.5 Z M 3.453125 -11.5 "/></g></g></g><g fill="#3e4044" fill-opacity="1"><g transform="translate(735.232305, 73.492416)"><g><path d="M 0.84375 0 L 0.84375 -7.15625 L 3.296875 -7.15625 L 3.296875 -6.390625 L 3.328125 -6.390625 C 3.972656 -7.035156 4.65625 -7.359375 5.375 -7.359375 C 5.726562 -7.359375 6.078125 -7.3125 6.421875 -7.21875 C 6.773438 -7.125 7.113281 -6.976562 7.4375 -6.78125 C 7.757812 -6.59375 8.019531 -6.316406 8.21875 -5.953125 C 8.414062 -5.597656 8.515625 -5.179688 8.515625 -4.703125 L 8.515625 0 L 6.046875 0 L 6.046875 -4.046875 C 6.046875 -4.410156 5.925781 -4.734375 5.6875 -5.015625 C 5.457031 -5.296875 5.148438 -5.4375 4.765625 -5.4375 C 4.390625 -5.4375 4.050781 -5.289062 3.75 -5 C 3.445312 -4.71875 3.296875 -4.398438 3.296875 -4.046875 L 3.296875 0 Z M 0.84375 0 "/></g></g></g><g fill="#ffffff" fill-opacity="1"><g transform="translate(744.436312, 73.492416)"><g><path d="M 2.421875 -2.984375 C 2.867188 -2.984375 3.25 -2.828125 3.5625 -2.515625 C 3.875 -2.203125 4.03125 -1.820312 4.03125 -1.375 C 4.03125 0 3.25 1.332031 1.6875 2.625 L 0.96875 2.03125 C 1.039062 1.976562 1.125 1.894531 1.21875 1.78125 C 1.3125 1.664062 1.453125 1.4375 1.640625 1.09375 C 1.835938 0.757812 1.96875 0.421875 2.03125 0.078125 C 1.675781 -0.00390625 1.390625 -0.175781 1.171875 -0.4375 C 0.953125 -0.707031 0.84375 -1.019531 0.84375 -1.375 C 0.84375 -1.820312 0.992188 -2.203125 1.296875 -2.515625 C 1.609375 -2.828125 1.984375 -2.984375 2.421875 -2.984375 Z M 2.421875 -2.984375 "/></g></g></g><g fill="#6da64a" fill-opacity="1"><g transform="translate(684.448676, 89.967268)"><g><path d="M 9.671875 -11.5 L 9.671875 -4.078125 C 9.671875 -2.671875 9.289062 -1.601562 8.53125 -0.875 C 7.769531 -0.15625 6.65625 0.203125 5.1875 0.203125 C 3.71875 0.203125 2.601562 -0.15625 1.84375 -0.875 C 1.082031 -1.601562 0.703125 -2.671875 0.703125 -4.078125 L 0.703125 -11.5 L 3.3125 -11.5 L 3.3125 -4.84375 C 3.3125 -3.914062 3.457031 -3.269531 3.75 -2.90625 C 4.039062 -2.550781 4.515625 -2.375 5.171875 -2.375 C 5.835938 -2.375 6.316406 -2.550781 6.609375 -2.90625 C 6.898438 -3.269531 7.046875 -3.914062 7.046875 -4.84375 L 7.046875 -11.5 Z M 9.671875 -11.5 "/></g></g></g><g fill="#6da64a" fill-opacity="1"><g transform="translate(694.817234, 89.967268)"><g><path d="M 8.1875 -6.265625 C 8.863281 -5.535156 9.203125 -4.640625 9.203125 -3.578125 C 9.203125 -2.523438 8.863281 -1.628906 8.1875 -0.890625 C 7.519531 -0.160156 6.671875 0.203125 5.640625 0.203125 C 4.691406 0.203125 3.910156 -0.09375 3.296875 -0.6875 L 3.296875 3.625 L 0.84375 3.625 L 0.84375 -7.15625 L 3.28125 -7.15625 L 3.28125 -6.34375 L 3.296875 -6.34375 C 3.910156 -7.019531 4.691406 -7.359375 5.640625 -7.359375 C 6.671875 -7.359375 7.519531 -6.992188 8.1875 -6.265625 Z M 6.09375 -2.359375 C 6.414062 -2.679688 6.578125 -3.085938 6.578125 -3.578125 C 6.578125 -4.078125 6.421875 -4.476562 6.109375 -4.78125 C 5.804688 -5.09375 5.40625 -5.25 4.90625 -5.25 C 4.425781 -5.25 4.03125 -5.09375 3.71875 -4.78125 C 3.40625 -4.46875 3.25 -4.066406 3.25 -3.578125 C 3.25 -3.085938 3.40625 -2.679688 3.71875 -2.359375 C 4.039062 -2.046875 4.4375 -1.890625 4.90625 -1.890625 C 5.375 -1.890625 5.769531 -2.046875 6.09375 -2.359375 Z M 6.09375 -2.359375 "/></g></g></g><g fill="#6da64a" fill-opacity="1"><g transform="translate(704.335681, 89.967268)"><g><path d="M 0.515625 1.75 L 2.53125 0.765625 C 2.90625 1.378906 3.550781 1.6875 4.46875 1.6875 C 4.894531 1.6875 5.289062 1.546875 5.65625 1.265625 C 6.03125 0.992188 6.21875 0.578125 6.21875 0.015625 L 6.21875 -0.515625 C 5.78125 -0.0351562 5 0.203125 3.875 0.203125 C 2.84375 0.203125 1.992188 -0.160156 1.328125 -0.890625 C 0.660156 -1.617188 0.328125 -2.507812 0.328125 -3.5625 C 0.328125 -4.625 0.660156 -5.519531 1.328125 -6.25 C 1.992188 -6.988281 2.84375 -7.359375 3.875 -7.359375 C 4.789062 -7.359375 5.554688 -7.078125 6.171875 -6.515625 L 6.21875 -6.515625 L 6.21875 -7.15625 L 8.6875 -7.15625 L 8.6875 0.1875 C 8.6875 1.351562 8.300781 2.25 7.53125 2.875 C 6.757812 3.507812 5.738281 3.828125 4.46875 3.828125 C 2.425781 3.828125 1.109375 3.132812 0.515625 1.75 Z M 3.421875 -4.78125 C 3.097656 -4.46875 2.9375 -4.0625 2.9375 -3.5625 C 2.9375 -3.070312 3.085938 -2.671875 3.390625 -2.359375 C 3.703125 -2.046875 4.109375 -1.890625 4.609375 -1.890625 C 5.097656 -1.890625 5.492188 -2.046875 5.796875 -2.359375 C 6.109375 -2.679688 6.265625 -3.082031 6.265625 -3.5625 C 6.265625 -4.0625 6.101562 -4.46875 5.78125 -4.78125 C 5.46875 -5.09375 5.078125 -5.25 4.609375 -5.25 C 4.140625 -5.25 3.742188 -5.09375 3.421875 -4.78125 Z M 3.421875 -4.78125 "/></g></g></g><g fill="#6da64a" fill-opacity="1"><g transform="translate(713.854128, 89.967268)"><g><path d="M 0.84375 0 L 0.84375 -7.15625 L 3.296875 -7.15625 L 3.296875 -6.125 L 3.328125 -6.125 C 3.347656 -6.15625 3.378906 -6.195312 3.421875 -6.25 C 3.460938 -6.3125 3.550781 -6.410156 3.6875 -6.546875 C 3.832031 -6.691406 3.984375 -6.816406 4.140625 -6.921875 C 4.296875 -7.035156 4.5 -7.132812 4.75 -7.21875 C 5 -7.3125 5.253906 -7.359375 5.515625 -7.359375 C 5.785156 -7.359375 6.050781 -7.320312 6.3125 -7.25 C 6.570312 -7.175781 6.765625 -7.101562 6.890625 -7.03125 L 7.078125 -6.90625 L 6.046875 -4.828125 C 5.742188 -5.085938 5.316406 -5.21875 4.765625 -5.21875 C 4.472656 -5.21875 4.21875 -5.148438 4 -5.015625 C 3.78125 -4.890625 3.628906 -4.734375 3.546875 -4.546875 C 3.460938 -4.359375 3.398438 -4.195312 3.359375 -4.0625 C 3.316406 -3.9375 3.296875 -3.835938 3.296875 -3.765625 L 3.296875 0 Z M 0.84375 0 "/></g></g></g><g fill="#6da64a" fill-opacity="1"><g transform="translate(720.794367, 89.967268)"><g><path d="M 1.328125 -0.890625 C 0.660156 -1.617188 0.328125 -2.507812 0.328125 -3.5625 C 0.328125 -4.625 0.660156 -5.519531 1.328125 -6.25 C 1.992188 -6.988281 2.84375 -7.359375 3.875 -7.359375 C 4.820312 -7.359375 5.601562 -7.0625 6.21875 -6.46875 L 6.21875 -7.15625 L 8.6875 -7.15625 L 8.6875 0 L 6.25 0 L 6.25 -0.8125 L 6.21875 -0.8125 C 5.601562 -0.132812 4.820312 0.203125 3.875 0.203125 C 2.84375 0.203125 1.992188 -0.160156 1.328125 -0.890625 Z M 3.421875 -4.78125 C 3.097656 -4.46875 2.9375 -4.0625 2.9375 -3.5625 C 2.9375 -3.070312 3.085938 -2.671875 3.390625 -2.359375 C 3.703125 -2.046875 4.109375 -1.890625 4.609375 -1.890625 C 5.097656 -1.890625 5.492188 -2.046875 5.796875 -2.359375 C 6.109375 -2.679688 6.265625 -3.082031 6.265625 -3.5625 C 6.265625 -4.0625 6.101562 -4.46875 5.78125 -4.78125 C 5.46875 -5.09375 5.078125 -5.25 4.609375 -5.25 C 4.140625 -5.25 3.742188 -5.09375 3.421875 -4.78125 Z M 3.421875 -4.78125 "/></g></g></g><g fill="#6da64a" fill-opacity="1"><g transform="translate(730.312814, 89.967268)"><g><path d="M 1.328125 -0.890625 C 0.660156 -1.617188 0.328125 -2.507812 0.328125 -3.5625 C 0.328125 -4.625 0.660156 -5.519531 1.328125 -6.25 C 1.992188 -6.988281 2.84375 -7.359375 3.875 -7.359375 C 4.820312 -7.359375 5.601562 -7.0625 6.21875 -6.46875 L 6.21875 -11.984375 L 8.6875 -11.984375 L 8.6875 0 L 6.25 0 L 6.25 -0.8125 L 6.21875 -0.8125 C 5.601562 -0.132812 4.820312 0.203125 3.875 0.203125 C 2.84375 0.203125 1.992188 -0.160156 1.328125 -0.890625 Z M 3.421875 -4.78125 C 3.097656 -4.46875 2.9375 -4.0625 2.9375 -3.5625 C 2.9375 -3.070312 3.085938 -2.671875 3.390625 -2.359375 C 3.703125 -2.046875 4.109375 -1.890625 4.609375 -1.890625 C 5.097656 -1.890625 5.492188 -2.046875 5.796875 -2.359375 C 6.109375 -2.679688 6.265625 -3.082031 6.265625 -3.5625 C 6.265625 -4.0625 6.101562 -4.46875 5.78125 -4.78125 C 5.46875 -5.09375 5.078125 -5.25 4.609375 -5.25 C 4.140625 -5.25 3.742188 -5.09375 3.421875 -4.78125 Z M 3.421875 -4.78125 "/></g></g></g><g fill="#6da64a" fill-opacity="1"><g transform="translate(739.831261, 89.967268)"><g><path d="M 8.0625 -3.234375 L 2.890625 -3.234375 C 2.890625 -2.734375 3.050781 -2.359375 3.375 -2.109375 C 3.695312 -1.867188 4.050781 -1.75 4.4375 -1.75 C 4.832031 -1.75 5.144531 -1.800781 5.375 -1.90625 C 5.613281 -2.019531 5.878906 -2.234375 6.171875 -2.546875 L 7.953125 -1.65625 C 7.210938 -0.414062 5.976562 0.203125 4.25 0.203125 C 3.175781 0.203125 2.253906 -0.160156 1.484375 -0.890625 C 0.710938 -1.628906 0.328125 -2.519531 0.328125 -3.5625 C 0.328125 -4.601562 0.710938 -5.492188 1.484375 -6.234375 C 2.253906 -6.984375 3.175781 -7.359375 4.25 -7.359375 C 5.382812 -7.359375 6.304688 -7.03125 7.015625 -6.375 C 7.722656 -5.71875 8.078125 -4.78125 8.078125 -3.5625 C 8.078125 -3.394531 8.070312 -3.285156 8.0625 -3.234375 Z M 2.953125 -4.59375 L 5.671875 -4.59375 C 5.617188 -4.96875 5.472656 -5.253906 5.234375 -5.453125 C 4.992188 -5.648438 4.691406 -5.75 4.328125 -5.75 C 3.910156 -5.75 3.582031 -5.640625 3.34375 -5.421875 C 3.101562 -5.210938 2.972656 -4.9375 2.953125 -4.59375 Z M 2.953125 -4.59375 "/></g></g></g><g fill="#6da64a" fill-opacity="1"><g transform="translate(748.234811, 89.967268)"><g><path d="M 2.421875 -2.984375 C 2.867188 -2.984375 3.25 -2.828125 3.5625 -2.515625 C 3.875 -2.203125 4.03125 -1.820312 4.03125 -1.375 C 4.03125 -0.9375 3.875 -0.5625 3.5625 -0.25 C 3.25 0.0507812 2.867188 0.203125 2.421875 0.203125 C 1.984375 0.203125 1.609375 0.0507812 1.296875 -0.25 C 0.992188 -0.5625 0.84375 -0.9375 0.84375 -1.375 C 0.84375 -1.820312 0.992188 -2.203125 1.296875 -2.515625 C 1.609375 -2.828125 1.984375 -2.984375 2.421875 -2.984375 Z M 2.421875 -2.984375 "/></g></g></g></svg>